<?xml version="1.0" encoding="UTF-8" standalone="no"?>
<!DOCTYPE svg PUBLIC "-//W3C//DTD SVG 1.1//EN"
 "http://www.w3.org/Graphics/SVG/1.1/DTD/svg11.dtd">
<!-- Generated by graphviz version 2.43.0 (0)
 -->
<!-- Title: oneDegreeRelationshipsDiagramImplied Pages: 1 -->
<svg width="500pt" height="384pt"
 viewBox="0.00 0.00 500.00 384.00" xmlns="http://www.w3.org/2000/svg" xmlns:xlink="http://www.w3.org/1999/xlink">
<g id="graph0" class="graph" transform="scale(1 1) rotate(0) translate(4 380)">
<title>oneDegreeRelationshipsDiagramImplied</title>
<polygon fill="#ffffff" stroke="transparent" points="-4,4 -4,-380 496,-380 496,4 -4,4"/>
<text text-anchor="middle" x="79.5" y="-7.2" font-family="Helvetica,sans-Serif" font-size="11.00">Generated by SchemaSpy</text>
<!-- jtbl_tlkpmesotypes -->
<g id="node1" class="node">
<title>jtbl_tlkpmesotypes</title>
<g id="a_node1"><a xlink:href="../../tables/jtbl_tlkpmesotypes.html" xlink:title="jtbl_tlkpmesotypes" target="_top">
<polygon fill="#ffffff" stroke="transparent" points="270,-169 270,-257 484,-257 484,-169 270,-169"/>
<polygon fill="#f5f5f5" stroke="transparent" points="272,-233 272,-255 482,-255 482,-233 272,-233"/>
<polygon fill="none" stroke="black" points="272,-233 272,-255 482,-255 482,-233 272,-233"/>
<text text-anchor="start" x="277" y="-242.2" font-family="Helvetica,sans-Serif" font-weight="bold" font-size="11.00">jtbl_tlkpmesotypes</text>
<text text-anchor="start" x="440" y="-241.2" font-family="Helvetica,sans-Serif" font-size="11.00">[table]</text>
<polygon fill="none" stroke="black" points="272,-211 272,-233 432,-233 432,-211 272,-211"/>
<image xlink:href="../../images/primaryKeys.png" width="11px" height="12px" preserveAspectRatio="xMinYMin meet" x="277" y="-228"/>
<text text-anchor="start" x="292" y="-219.2" font-family="Helvetica,sans-Serif" font-size="11.00">mesostructureid</text>
<polygon fill="none" stroke="black" points="432,-211 432,-233 482,-233 482,-211 432,-211"/>
<text text-anchor="start" x="435" y="-219.2" font-family="Helvetica,sans-Serif" font-size="11.00">int4[10]</text>
<polygon fill="none" stroke="black" points="272,-189 272,-211 432,-211 432,-189 272,-189"/>
<image xlink:href="../../images/primaryKeys.png" width="11px" height="12px" preserveAspectRatio="xMinYMin meet" x="277" y="-206"/>
<text text-anchor="start" x="292" y="-197.2" font-family="Helvetica,sans-Serif" font-size="11.00">fieldvalueid</text>
<polygon fill="none" stroke="black" points="432,-189 432,-211 482,-211 482,-189 432,-189"/>
<text text-anchor="start" x="435" y="-197.2" font-family="Helvetica,sans-Serif" font-size="11.00">int4[10]</text>
<polygon fill="#ffffff" stroke="transparent" points="272,-171 272,-189 482,-189 482,-171 272,-171"/>
<polygon fill="none" stroke="black" points="272,-171 272,-189 482,-189 482,-171 272,-171"/>
<polygon fill="#ffffff" stroke="transparent" points="273,-172 273,-188 332,-188 332,-172 273,-172"/>
<text text-anchor="start" x="275" y="-177.2" font-family="Helvetica,sans-Serif" font-size="11.00">&lt; 2</text>
<polygon fill="#ffffff" stroke="transparent" points="332,-172 332,-188 422,-188 422,-172 332,-172"/>
<text text-anchor="start" x="351.5" y="-177.2" font-family="Helvetica,sans-Serif" font-size="11.00">130 rows</text>
<polygon fill="#ffffff" stroke="transparent" points="422,-172 422,-188 481,-188 481,-172 422,-172"/>
<text text-anchor="start" x="459" y="-177.2" font-family="Helvetica,sans-Serif" font-size="11.00">0 &gt;</text>
<polygon fill="black" stroke="black" points="332,-172 332,-188 332,-188 332,-172 332,-172"/>
<polygon fill="black" stroke="black" points="422,-172 422,-188 422,-188 422,-172 422,-172"/>
<polygon fill="none" stroke="black" stroke-width="2" points="271,-170 271,-256 483,-256 483,-170 271,-170"/>
</a>
</g>
</g>
<!-- tlkpmesotypes -->
<g id="node2" class="node">
<title>tlkpmesotypes</title>
<g id="a_node2"><a xlink:href="../../tables/tlkpmesotypes.html" xlink:title="tlkpmesotypes" target="_top">
<polygon fill="#ffffff" stroke="transparent" points="37,-37 37,-117 192,-117 192,-37 37,-37"/>
<polygon fill="#f5f5f5" stroke="transparent" points="37.5,-95 37.5,-117 192.5,-117 192.5,-95 37.5,-95"/>
<polygon fill="none" stroke="black" points="37.5,-95 37.5,-117 192.5,-117 192.5,-95 37.5,-95"/>
<text text-anchor="start" x="42.5" y="-104.2" font-family="Helvetica,sans-Serif" font-weight="bold" font-size="11.00">tlkpmesotypes</text>
<text text-anchor="start" x="150.5" y="-103.2" font-family="Helvetica,sans-Serif" font-size="11.00">[table]</text>
<polygon fill="none" stroke="black" points="37.5,-73 37.5,-95 192.5,-95 192.5,-73 37.5,-73"/>
<image xlink:href="../../images/primaryKeys.png" width="11px" height="12px" preserveAspectRatio="xMinYMin meet" x="42.5" y="-90"/>
<text text-anchor="start" x="70.5" y="-81.2" font-family="Helvetica,sans-Serif" font-size="11.00">valueid</text>
<polygon fill="none" stroke="black" points="37.5,-55 37.5,-73 192.5,-73 192.5,-55 37.5,-55"/>
<text text-anchor="start" x="40.5" y="-61.2" font-family="Helvetica,sans-Serif" font-size="11.00">...</text>
<polygon fill="#ffffff" stroke="transparent" points="37.5,-37 37.5,-55 192.5,-55 192.5,-37 37.5,-37"/>
<polygon fill="none" stroke="black" points="37.5,-37 37.5,-55 192.5,-55 192.5,-37 37.5,-37"/>
<polygon fill="#ffffff" stroke="transparent" points="38.5,-38 38.5,-54 73.5,-54 73.5,-38 38.5,-38"/>
<text text-anchor="start" x="40.5" y="-43.2" font-family="Helvetica,sans-Serif" font-size="11.00"> &#160;</text>
<polygon fill="#ffffff" stroke="transparent" points="73.5,-38 73.5,-54 144.5,-54 144.5,-38 73.5,-38"/>
<text text-anchor="start" x="87" y="-43.2" font-family="Helvetica,sans-Serif" font-size="11.00">14 rows</text>
<polygon fill="#ffffff" stroke="transparent" points="144.5,-38 144.5,-54 191.5,-54 191.5,-38 144.5,-38"/>
<text text-anchor="start" x="169.5" y="-43.2" font-family="Helvetica,sans-Serif" font-size="11.00">1 &gt;</text>
<polygon fill="black" stroke="black" points="73.5,-38 73.5,-54 73.5,-54 73.5,-38 73.5,-38"/>
<polygon fill="black" stroke="black" points="144.5,-38 144.5,-54 144.5,-54 144.5,-38 144.5,-38"/>
</a>
</g>
</g>
<!-- jtbl_tlkpmesotypes&#45;&gt;tlkpmesotypes -->
<g id="edge1" class="edge">
<title>jtbl_tlkpmesotypes:w&#45;&gt;tlkpmesotypes:e</title>
<path fill="none" stroke="black" d="M256.76,-197.36C216.48,-180.09 249.93,-84 193.5,-84"/>
<polygon fill="black" stroke="black" points="263.13,-198.54 270.34,-203.54 267.07,-199.27 271,-200 271,-200 271,-200 267.07,-199.27 271.66,-196.46 263.13,-198.54 263.13,-198.54"/>
<ellipse fill="none" stroke="black" cx="259.99" cy="-197.96" rx="3.2" ry="3.2"/>
</g>
<!-- tbl_mesostructuredata -->
<g id="node3" class="node">
<title>tbl_mesostructuredata</title>
<g id="a_node3"><a xlink:href="../../tables/tbl_mesostructuredata.html" xlink:title="tbl_mesostructuredata" target="_top">
<polygon fill="#ffffff" stroke="transparent" points="8,-138 8,-372 221,-372 221,-138 8,-138"/>
<polygon fill="#f5f5f5" stroke="transparent" points="8.5,-350 8.5,-372 221.5,-372 221.5,-350 8.5,-350"/>
<polygon fill="none" stroke="black" points="8.5,-350 8.5,-372 221.5,-372 221.5,-350 8.5,-350"/>
<text text-anchor="start" x="13.5" y="-359.2" font-family="Helvetica,sans-Serif" font-weight="bold" font-size="11.00">tbl_mesostructuredata</text>
<text text-anchor="start" x="179.5" y="-358.2" font-family="Helvetica,sans-Serif" font-size="11.00">[table]</text>
<polygon fill="none" stroke="black" points="8.5,-328 8.5,-350 221.5,-350 221.5,-328 8.5,-328"/>
<image xlink:href="../../images/primaryKeys.png" width="11px" height="12px" preserveAspectRatio="xMinYMin meet" x="13.5" y="-345"/>
<text text-anchor="start" x="31.5" y="-336.2" font-family="Helvetica,sans-Serif" font-size="11.00">mesostructureid</text>
<polygon fill="none" stroke="black" points="8.5,-306 8.5,-328 221.5,-328 221.5,-306 8.5,-306"/>
<image xlink:href="../../images/foreignKeys.png" width="11px" height="12px" preserveAspectRatio="xMinYMin meet" x="13.5" y="-323"/>
<text text-anchor="start" x="31.5" y="-314.2" font-family="Helvetica,sans-Serif" font-size="11.00">macrostructureid</text>
<polygon fill="none" stroke="black" points="8.5,-284 8.5,-306 221.5,-306 221.5,-284 8.5,-284"/>
<image xlink:href="../../images/foreignKeys.png" width="11px" height="12px" preserveAspectRatio="xMinYMin meet" x="13.5" y="-301"/>
<text text-anchor="start" x="31.5" y="-292.2" font-family="Helvetica,sans-Serif" font-size="11.00">mesoclothierarchyid</text>
<polygon fill="none" stroke="black" points="8.5,-262 8.5,-284 221.5,-284 221.5,-262 8.5,-262"/>
<image xlink:href="../../images/foreignKeys.png" width="11px" height="12px" preserveAspectRatio="xMinYMin meet" x="13.5" y="-279"/>
<text text-anchor="start" x="31.5" y="-270.2" font-family="Helvetica,sans-Serif" font-size="11.00">mesolaminainheritanceid</text>
<polygon fill="none" stroke="black" points="8.5,-240 8.5,-262 221.5,-262 221.5,-240 8.5,-240"/>
<image xlink:href="../../images/foreignKeys.png" width="11px" height="12px" preserveAspectRatio="xMinYMin meet" x="13.5" y="-257"/>
<text text-anchor="start" x="31.5" y="-248.2" font-family="Helvetica,sans-Serif" font-size="11.00">mesolatcontinuityid</text>
<polygon fill="none" stroke="black" points="8.5,-218 8.5,-240 221.5,-240 221.5,-218 8.5,-218"/>
<image xlink:href="../../images/foreignKeys.png" width="11px" height="12px" preserveAspectRatio="xMinYMin meet" x="13.5" y="-235"/>
<text text-anchor="start" x="31.5" y="-226.2" font-family="Helvetica,sans-Serif" font-size="11.00">mesomodalityskewnessid</text>
<polygon fill="none" stroke="black" points="8.5,-196 8.5,-218 221.5,-218 221.5,-196 8.5,-196"/>
<image xlink:href="../../images/foreignKeys.png" width="11px" height="12px" preserveAspectRatio="xMinYMin meet" x="13.5" y="-213"/>
<text text-anchor="start" x="31.5" y="-204.2" font-family="Helvetica,sans-Serif" font-size="11.00">mesosynopticreliefid</text>
<polygon fill="none" stroke="black" points="8.5,-174 8.5,-196 221.5,-196 221.5,-174 8.5,-174"/>
<image xlink:href="../../images/foreignKeys.png" width="11px" height="12px" preserveAspectRatio="xMinYMin meet" x="13.5" y="-191"/>
<text text-anchor="start" x="31.5" y="-182.2" font-family="Helvetica,sans-Serif" font-size="11.00">mesowallsid</text>
<polygon fill="none" stroke="black" points="8.5,-156 8.5,-174 221.5,-174 221.5,-156 8.5,-156"/>
<text text-anchor="start" x="11.5" y="-162.2" font-family="Helvetica,sans-Serif" font-size="11.00">...</text>
<polygon fill="#ffffff" stroke="transparent" points="8.5,-138 8.5,-156 221.5,-156 221.5,-138 8.5,-138"/>
<polygon fill="none" stroke="black" points="8.5,-138 8.5,-156 221.5,-156 221.5,-138 8.5,-138"/>
<polygon fill="#ffffff" stroke="transparent" points="9.5,-139 9.5,-155 67.5,-155 67.5,-139 9.5,-139"/>
<text text-anchor="start" x="11.5" y="-144.2" font-family="Helvetica,sans-Serif" font-size="11.00">&lt; 7</text>
<polygon fill="#ffffff" stroke="transparent" points="67.5,-139 67.5,-155 156.5,-155 156.5,-139 67.5,-139"/>
<text text-anchor="start" x="86.5" y="-144.2" font-family="Helvetica,sans-Serif" font-size="11.00">277 rows</text>
<polygon fill="#ffffff" stroke="transparent" points="156.5,-139 156.5,-155 220.5,-155 220.5,-139 156.5,-139"/>
<text text-anchor="start" x="191.5" y="-144.2" font-family="Helvetica,sans-Serif" font-size="11.00">16 &gt;</text>
<polygon fill="black" stroke="black" points="67.5,-139 67.5,-155 67.5,-155 67.5,-139 67.5,-139"/>
<polygon fill="black" stroke="black" points="156.5,-139 156.5,-155 156.5,-155 156.5,-139 156.5,-139"/>
</a>
</g>
</g>
<!-- jtbl_tlkpmesotypes&#45;&gt;tbl_mesostructuredata -->
<g id="edge2" class="edge">
<title>jtbl_tlkpmesotypes:w&#45;&gt;tbl_mesostructuredata:e</title>
<path fill="none" stroke="black" d="M256.92,-225.63C226.89,-245.38 272.85,-339 222.5,-339"/>
<polygon fill="black" stroke="black" points="263.25,-224 271.9,-225.49 267.13,-223 271,-222 271,-222 271,-222 267.13,-223 270.1,-218.51 263.25,-224 263.25,-224"/>
<ellipse fill="none" stroke="black" cx="260.15" cy="-224.8" rx="3.2" ry="3.2"/>
</g>
</g>
</svg>
