<?xml version="1.0" encoding="UTF-8" standalone="no"?>
<!DOCTYPE svg PUBLIC "-//W3C//DTD SVG 1.1//EN"
 "http://www.w3.org/Graphics/SVG/1.1/DTD/svg11.dtd">
<!-- Generated by graphviz version 2.43.0 (0)
 -->
<!-- Title: oneDegreeRelationshipsDiagramImplied Pages: 1 -->
<svg width="1209pt" height="750pt"
 viewBox="0.00 0.00 1209.00 750.00" xmlns="http://www.w3.org/2000/svg" xmlns:xlink="http://www.w3.org/1999/xlink">
<g id="graph0" class="graph" transform="scale(1 1) rotate(0) translate(4 746)">
<title>oneDegreeRelationshipsDiagramImplied</title>
<polygon fill="#ffffff" stroke="transparent" points="-4,4 -4,-746 1205,-746 1205,4 -4,4"/>
<text text-anchor="middle" x="79.5" y="-7.2" font-family="Helvetica,sans-Serif" font-size="11.00">Generated by SchemaSpy</text>
<!-- jtbl_project_citations -->
<g id="node1" class="node">
<title>jtbl_project_citations</title>
<g id="a_node1"><a xlink:href="../../tables/jtbl_project_citations.html" xlink:title="jtbl_project_citations" target="_top">
<polygon fill="#ffffff" stroke="transparent" points="646.5,-632 646.5,-738 846.5,-738 846.5,-632 646.5,-632"/>
<polygon fill="#f5f5f5" stroke="transparent" points="646.5,-716 646.5,-738 846.5,-738 846.5,-716 646.5,-716"/>
<polygon fill="none" stroke="black" points="646.5,-716 646.5,-738 846.5,-738 846.5,-716 646.5,-716"/>
<text text-anchor="start" x="651.5" y="-725.2" font-family="Helvetica,sans-Serif" font-weight="bold" font-size="11.00">jtbl_project_citations</text>
<text text-anchor="start" x="804.5" y="-724.2" font-family="Helvetica,sans-Serif" font-size="11.00">[table]</text>
<polygon fill="none" stroke="black" points="646.5,-694 646.5,-716 846.5,-716 846.5,-694 646.5,-694"/>
<image xlink:href="../../images/primaryKeys.png" width="11px" height="12px" preserveAspectRatio="xMinYMin meet" x="651.5" y="-711"/>
<text text-anchor="start" x="679.5" y="-702.2" font-family="Helvetica,sans-Serif" font-size="11.00">junctid</text>
<polygon fill="#ffffff" stroke="transparent" points="646.5,-672 646.5,-694 846.5,-694 846.5,-672 646.5,-672"/>
<polygon fill="none" stroke="black" points="646.5,-672 646.5,-694 846.5,-694 846.5,-672 646.5,-672"/>
<image xlink:href="../../images/foreignKeys.png" width="11px" height="12px" preserveAspectRatio="xMinYMin meet" x="651.5" y="-689"/>
<text text-anchor="start" x="679.5" y="-680.2" font-family="Helvetica,sans-Serif" font-size="11.00">projectid</text>
<polygon fill="#ffffff" stroke="transparent" points="646.5,-650 646.5,-672 846.5,-672 846.5,-650 646.5,-650"/>
<polygon fill="none" stroke="black" points="646.5,-650 646.5,-672 846.5,-672 846.5,-650 646.5,-650"/>
<image xlink:href="../../images/foreignKeys.png" width="11px" height="12px" preserveAspectRatio="xMinYMin meet" x="651.5" y="-667"/>
<text text-anchor="start" x="679.5" y="-658.2" font-family="Helvetica,sans-Serif" font-size="11.00">citationid</text>
<polygon fill="#ffffff" stroke="transparent" points="646.5,-632 646.5,-650 846.5,-650 846.5,-632 646.5,-632"/>
<polygon fill="none" stroke="black" points="646.5,-632 646.5,-650 846.5,-650 846.5,-632 646.5,-632"/>
<polygon fill="#ffffff" stroke="transparent" points="647.5,-633 647.5,-649 721.5,-649 721.5,-633 647.5,-633"/>
<text text-anchor="start" x="649.5" y="-638.2" font-family="Helvetica,sans-Serif" font-size="11.00">&lt; 2</text>
<polygon fill="#ffffff" stroke="transparent" points="721.5,-633 721.5,-649 783.5,-649 783.5,-633 721.5,-633"/>
<text text-anchor="start" x="748.5" y="-638.2" font-family="Helvetica,sans-Serif" font-size="11.00"> &#160;</text>
<polygon fill="#ffffff" stroke="transparent" points="783.5,-633 783.5,-649 845.5,-649 845.5,-633 783.5,-633"/>
<text text-anchor="start" x="835.5" y="-638.2" font-family="Helvetica,sans-Serif" font-size="11.00"> &#160;</text>
<polygon fill="black" stroke="black" points="721.5,-633 721.5,-649 721.5,-649 721.5,-633 721.5,-633"/>
<polygon fill="black" stroke="black" points="783.5,-633 783.5,-649 783.5,-649 783.5,-633 783.5,-633"/>
</a>
</g>
</g>
<!-- tbl_projectdata -->
<g id="node2" class="node">
<title>tbl_projectdata</title>
<g id="a_node2"><a xlink:href="../../tables/tbl_projectdata.html" xlink:title="tbl_projectdata" target="_top">
<polygon fill="#ffffff" stroke="transparent" points="295,-224 295,-576 574,-576 574,-224 295,-224"/>
<polygon fill="#f5f5f5" stroke="transparent" points="297.5,-552 297.5,-574 572.5,-574 572.5,-552 297.5,-552"/>
<polygon fill="none" stroke="black" points="297.5,-552 297.5,-574 572.5,-574 572.5,-552 297.5,-552"/>
<text text-anchor="start" x="302.5" y="-561.2" font-family="Helvetica,sans-Serif" font-weight="bold" font-size="11.00">tbl_projectdata</text>
<text text-anchor="start" x="530.5" y="-560.2" font-family="Helvetica,sans-Serif" font-size="11.00">[table]</text>
<polygon fill="none" stroke="black" points="297.5,-530 297.5,-552 494.5,-552 494.5,-530 297.5,-530"/>
<image xlink:href="../../images/primaryKeys.png" width="11px" height="12px" preserveAspectRatio="xMinYMin meet" x="302.5" y="-547"/>
<text text-anchor="start" x="317.5" y="-538.2" font-family="Helvetica,sans-Serif" font-size="11.00">projectid</text>
<polygon fill="none" stroke="black" points="494.5,-530 494.5,-552 572.5,-552 572.5,-530 494.5,-530"/>
<text text-anchor="start" x="497.5" y="-538.2" font-family="Helvetica,sans-Serif" font-size="11.00">serial[10]</text>
<polygon fill="none" stroke="black" points="297.5,-508 297.5,-530 494.5,-530 494.5,-508 297.5,-508"/>
<text text-anchor="start" x="317.5" y="-516.2" font-family="Helvetica,sans-Serif" font-size="11.00">projectname</text>
<polygon fill="none" stroke="black" points="494.5,-508 494.5,-530 572.5,-530 572.5,-508 494.5,-508"/>
<text text-anchor="start" x="497.5" y="-516.2" font-family="Helvetica,sans-Serif" font-size="11.00">varchar[255]</text>
<polygon fill="none" stroke="black" points="297.5,-486 297.5,-508 494.5,-508 494.5,-486 297.5,-486"/>
<text text-anchor="start" x="317.5" y="-494.2" font-family="Helvetica,sans-Serif" font-size="11.00">principalinvestigator</text>
<polygon fill="none" stroke="black" points="494.5,-486 494.5,-508 572.5,-508 572.5,-486 494.5,-486"/>
<text text-anchor="start" x="497.5" y="-494.2" font-family="Helvetica,sans-Serif" font-size="11.00">varchar[255]</text>
<polygon fill="none" stroke="black" points="297.5,-464 297.5,-486 494.5,-486 494.5,-464 297.5,-464"/>
<text text-anchor="start" x="317.5" y="-472.2" font-family="Helvetica,sans-Serif" font-size="11.00">siteorlocationname</text>
<polygon fill="none" stroke="black" points="494.5,-464 494.5,-486 572.5,-486 572.5,-464 494.5,-464"/>
<text text-anchor="start" x="497.5" y="-472.2" font-family="Helvetica,sans-Serif" font-size="11.00">varchar[255]</text>
<polygon fill="none" stroke="black" points="297.5,-442 297.5,-464 494.5,-464 494.5,-442 297.5,-442"/>
<text text-anchor="start" x="317.5" y="-450.2" font-family="Helvetica,sans-Serif" font-size="11.00">startdate</text>
<polygon fill="none" stroke="black" points="494.5,-442 494.5,-464 572.5,-464 572.5,-442 494.5,-442"/>
<text text-anchor="start" x="497.5" y="-450.2" font-family="Helvetica,sans-Serif" font-size="11.00">date[13]</text>
<polygon fill="none" stroke="black" points="297.5,-420 297.5,-442 494.5,-442 494.5,-420 297.5,-420"/>
<text text-anchor="start" x="317.5" y="-428.2" font-family="Helvetica,sans-Serif" font-size="11.00">enddate</text>
<polygon fill="none" stroke="black" points="494.5,-420 494.5,-442 572.5,-442 572.5,-420 494.5,-420"/>
<text text-anchor="start" x="497.5" y="-428.2" font-family="Helvetica,sans-Serif" font-size="11.00">date[13]</text>
<polygon fill="none" stroke="black" points="297.5,-398 297.5,-420 494.5,-420 494.5,-398 297.5,-398"/>
<text text-anchor="start" x="317.5" y="-406.2" font-family="Helvetica,sans-Serif" font-size="11.00">instrumentsused</text>
<polygon fill="none" stroke="black" points="494.5,-398 494.5,-420 572.5,-420 572.5,-398 494.5,-398"/>
<text text-anchor="start" x="497.5" y="-406.2" font-family="Helvetica,sans-Serif" font-size="11.00">varchar[255]</text>
<polygon fill="none" stroke="black" points="297.5,-376 297.5,-398 494.5,-398 494.5,-376 297.5,-376"/>
<text text-anchor="start" x="317.5" y="-384.2" font-family="Helvetica,sans-Serif" font-size="11.00">orcid</text>
<polygon fill="none" stroke="black" points="494.5,-376 494.5,-398 572.5,-398 572.5,-376 494.5,-376"/>
<text text-anchor="start" x="497.5" y="-384.2" font-family="Helvetica,sans-Serif" font-size="11.00">varchar[255]</text>
<polygon fill="none" stroke="black" points="297.5,-354 297.5,-376 494.5,-376 494.5,-354 297.5,-354"/>
<text text-anchor="start" x="317.5" y="-362.2" font-family="Helvetica,sans-Serif" font-size="11.00">otherteammembers</text>
<polygon fill="none" stroke="black" points="494.5,-354 494.5,-376 572.5,-376 572.5,-354 494.5,-354"/>
<text text-anchor="start" x="497.5" y="-362.2" font-family="Helvetica,sans-Serif" font-size="11.00">varchar[255]</text>
<polygon fill="none" stroke="black" points="297.5,-332 297.5,-354 494.5,-354 494.5,-332 297.5,-332"/>
<text text-anchor="start" x="317.5" y="-340.2" font-family="Helvetica,sans-Serif" font-size="11.00">areaofinterest</text>
<polygon fill="none" stroke="black" points="494.5,-332 494.5,-354 572.5,-354 572.5,-332 494.5,-332"/>
<text text-anchor="start" x="497.5" y="-340.2" font-family="Helvetica,sans-Serif" font-size="11.00">varchar[255]</text>
<polygon fill="none" stroke="black" points="297.5,-310 297.5,-332 494.5,-332 494.5,-310 297.5,-310"/>
<text text-anchor="start" x="317.5" y="-318.2" font-family="Helvetica,sans-Serif" font-size="11.00">purposeofstudy</text>
<polygon fill="none" stroke="black" points="494.5,-310 494.5,-332 572.5,-332 572.5,-310 494.5,-310"/>
<text text-anchor="start" x="497.5" y="-318.2" font-family="Helvetica,sans-Serif" font-size="11.00">varchar[255]</text>
<polygon fill="none" stroke="black" points="297.5,-288 297.5,-310 494.5,-310 494.5,-288 297.5,-288"/>
<text text-anchor="start" x="317.5" y="-296.2" font-family="Helvetica,sans-Serif" font-size="11.00">fundingsource</text>
<polygon fill="none" stroke="black" points="494.5,-288 494.5,-310 572.5,-310 572.5,-288 494.5,-288"/>
<text text-anchor="start" x="497.5" y="-296.2" font-family="Helvetica,sans-Serif" font-size="11.00">varchar[255]</text>
<polygon fill="none" stroke="black" points="297.5,-266 297.5,-288 494.5,-288 494.5,-266 297.5,-266"/>
<text text-anchor="start" x="317.5" y="-274.2" font-family="Helvetica,sans-Serif" font-size="11.00">grantid</text>
<polygon fill="none" stroke="black" points="494.5,-266 494.5,-288 572.5,-288 572.5,-266 494.5,-266"/>
<text text-anchor="start" x="497.5" y="-274.2" font-family="Helvetica,sans-Serif" font-size="11.00">varchar[255]</text>
<polygon fill="none" stroke="black" points="297.5,-244 297.5,-266 494.5,-266 494.5,-244 297.5,-244"/>
<image xlink:href="../../images/foreignKeys.png" width="11px" height="12px" preserveAspectRatio="xMinYMin meet" x="302.5" y="-261"/>
<text text-anchor="start" x="317.5" y="-252.2" font-family="Helvetica,sans-Serif" font-size="11.00">projecttectonicsettingid</text>
<polygon fill="none" stroke="black" points="494.5,-244 494.5,-266 572.5,-266 572.5,-244 494.5,-244"/>
<text text-anchor="start" x="497.5" y="-252.2" font-family="Helvetica,sans-Serif" font-size="11.00">int4[10]</text>
<polygon fill="#ffffff" stroke="transparent" points="297.5,-226 297.5,-244 572.5,-244 572.5,-226 297.5,-226"/>
<polygon fill="none" stroke="black" points="297.5,-226 297.5,-244 572.5,-244 572.5,-226 297.5,-226"/>
<polygon fill="#ffffff" stroke="transparent" points="298.5,-227 298.5,-243 381.5,-243 381.5,-227 298.5,-227"/>
<text text-anchor="start" x="300.5" y="-232.2" font-family="Helvetica,sans-Serif" font-size="11.00">&lt; 1</text>
<polygon fill="#ffffff" stroke="transparent" points="381.5,-227 381.5,-243 488.5,-243 488.5,-227 381.5,-227"/>
<text text-anchor="start" x="413" y="-232.2" font-family="Helvetica,sans-Serif" font-size="11.00">12 rows</text>
<polygon fill="#ffffff" stroke="transparent" points="488.5,-227 488.5,-243 571.5,-243 571.5,-227 488.5,-227"/>
<text text-anchor="start" x="549.5" y="-232.2" font-family="Helvetica,sans-Serif" font-size="11.00">6 &gt;</text>
<polygon fill="black" stroke="black" points="381.5,-227 381.5,-243 381.5,-243 381.5,-227 381.5,-227"/>
<polygon fill="black" stroke="black" points="488.5,-227 488.5,-243 488.5,-243 488.5,-227 488.5,-227"/>
<polygon fill="none" stroke="black" stroke-width="2" points="296,-225 296,-575 573,-575 573,-225 296,-225"/>
</a>
</g>
</g>
<!-- jtbl_project_citations&#45;&gt;tbl_projectdata -->
<g id="edge1" class="edge">
<title>jtbl_project_citations:w&#45;&gt;tbl_projectdata:e</title>
<path fill="none" stroke="black" d="M631.06,-680.41C584.97,-661.17 638.59,-541 573.5,-541"/>
<polygon fill="black" stroke="black" points="637.63,-681.59 644.87,-686.54 641.56,-682.3 645.5,-683 645.5,-683 645.5,-683 641.56,-682.3 646.13,-679.46 637.63,-681.59 637.63,-681.59"/>
<ellipse fill="none" stroke="black" cx="634.48" cy="-681.03" rx="3.2" ry="3.2"/>
</g>
<!-- tlkpprojecttectonicsetting -->
<g id="node4" class="node">
<title>tlkpprojecttectonicsetting</title>
<g id="a_node4"><a xlink:href="../../tables/tlkpprojecttectonicsetting.html" xlink:title="tlkpprojecttectonicsetting" target="_top">
<polygon fill="#ffffff" stroke="transparent" points="8,-208 8,-288 246,-288 246,-208 8,-208"/>
<polygon fill="#f5f5f5" stroke="transparent" points="8,-266 8,-288 246,-288 246,-266 8,-266"/>
<polygon fill="none" stroke="black" points="8,-266 8,-288 246,-288 246,-266 8,-266"/>
<text text-anchor="start" x="13" y="-275.2" font-family="Helvetica,sans-Serif" font-weight="bold" font-size="11.00">tlkpprojecttectonicsetting</text>
<text text-anchor="start" x="204" y="-274.2" font-family="Helvetica,sans-Serif" font-size="11.00">[table]</text>
<polygon fill="none" stroke="black" points="8,-244 8,-266 246,-266 246,-244 8,-244"/>
<image xlink:href="../../images/primaryKeys.png" width="11px" height="12px" preserveAspectRatio="xMinYMin meet" x="13" y="-261"/>
<text text-anchor="start" x="41" y="-252.2" font-family="Helvetica,sans-Serif" font-size="11.00">valueid</text>
<polygon fill="none" stroke="black" points="8,-226 8,-244 246,-244 246,-226 8,-226"/>
<text text-anchor="start" x="11" y="-232.2" font-family="Helvetica,sans-Serif" font-size="11.00">...</text>
<polygon fill="#ffffff" stroke="transparent" points="8,-208 8,-226 246,-226 246,-208 8,-208"/>
<polygon fill="none" stroke="black" points="8,-208 8,-226 246,-226 246,-208 8,-208"/>
<polygon fill="#ffffff" stroke="transparent" points="9,-209 9,-225 74,-225 74,-209 9,-209"/>
<text text-anchor="start" x="11" y="-214.2" font-family="Helvetica,sans-Serif" font-size="11.00"> &#160;</text>
<polygon fill="#ffffff" stroke="transparent" points="74,-209 74,-225 168,-225 168,-209 74,-209"/>
<text text-anchor="start" x="102.5" y="-214.2" font-family="Helvetica,sans-Serif" font-size="11.00">8 rows</text>
<polygon fill="#ffffff" stroke="transparent" points="168,-209 168,-225 245,-225 245,-209 168,-209"/>
<text text-anchor="start" x="223" y="-214.2" font-family="Helvetica,sans-Serif" font-size="11.00">1 &gt;</text>
<polygon fill="black" stroke="black" points="74,-209 74,-225 74,-225 74,-209 74,-209"/>
<polygon fill="black" stroke="black" points="168,-209 168,-225 168,-225 168,-209 168,-209"/>
</a>
</g>
</g>
<!-- tbl_projectdata&#45;&gt;tlkpprojecttectonicsetting -->
<g id="edge3" class="edge">
<title>tbl_projectdata:w&#45;&gt;tlkpprojecttectonicsetting:e</title>
<path fill="none" stroke="black" d="M281.84,-255C270.41,-255 263.16,-255 247,-255"/>
<polygon fill="black" stroke="black" points="288.5,-255 296.5,-258.6 292.5,-255 296.5,-255 296.5,-255 296.5,-255 292.5,-255 296.5,-251.4 288.5,-255 288.5,-255"/>
<ellipse fill="none" stroke="black" cx="285.3" cy="-255" rx="3.2" ry="3.2"/>
</g>
<!-- tbl_megastructuredata -->
<g id="node3" class="node">
<title>tbl_megastructuredata</title>
<g id="a_node3"><a xlink:href="../../tables/tbl_megastructuredata.html" xlink:title="tbl_megastructuredata" target="_top">
<polygon fill="#ffffff" stroke="transparent" points="623,-147 623,-557 870,-557 870,-147 623,-147"/>
<polygon fill="#f5f5f5" stroke="transparent" points="623.5,-535 623.5,-557 870.5,-557 870.5,-535 623.5,-535"/>
<polygon fill="none" stroke="black" points="623.5,-535 623.5,-557 870.5,-557 870.5,-535 623.5,-535"/>
<text text-anchor="start" x="628.5" y="-544.2" font-family="Helvetica,sans-Serif" font-weight="bold" font-size="11.00">tbl_megastructuredata</text>
<text text-anchor="start" x="828.5" y="-543.2" font-family="Helvetica,sans-Serif" font-size="11.00">[table]</text>
<polygon fill="none" stroke="black" points="623.5,-513 623.5,-535 870.5,-535 870.5,-513 623.5,-513"/>
<image xlink:href="../../images/primaryKeys.png" width="11px" height="12px" preserveAspectRatio="xMinYMin meet" x="628.5" y="-530"/>
<text text-anchor="start" x="643.5" y="-521.2" font-family="Helvetica,sans-Serif" font-size="11.00">megastructureid</text>
<polygon fill="none" stroke="black" points="623.5,-491 623.5,-513 870.5,-513 870.5,-491 623.5,-491"/>
<image xlink:href="../../images/foreignKeys.png" width="11px" height="12px" preserveAspectRatio="xMinYMin meet" x="628.5" y="-508"/>
<text text-anchor="start" x="643.5" y="-499.2" font-family="Helvetica,sans-Serif" font-size="11.00">projectid</text>
<polygon fill="none" stroke="black" points="623.5,-469 623.5,-491 870.5,-491 870.5,-469 623.5,-469"/>
<image xlink:href="../../images/foreignKeys.png" width="11px" height="12px" preserveAspectRatio="xMinYMin meet" x="628.5" y="-486"/>
<text text-anchor="start" x="643.5" y="-477.2" font-family="Helvetica,sans-Serif" font-size="11.00">citationgroupid</text>
<polygon fill="none" stroke="black" points="623.5,-447 623.5,-469 870.5,-469 870.5,-447 623.5,-447"/>
<image xlink:href="../../images/foreignKeys.png" width="11px" height="12px" preserveAspectRatio="xMinYMin meet" x="628.5" y="-464"/>
<text text-anchor="start" x="643.5" y="-455.2" font-family="Helvetica,sans-Serif" font-size="11.00">megabuildupinterfaceid</text>
<polygon fill="none" stroke="black" points="623.5,-425 623.5,-447 870.5,-447 870.5,-425 623.5,-425"/>
<image xlink:href="../../images/foreignKeys.png" width="11px" height="12px" preserveAspectRatio="xMinYMin meet" x="628.5" y="-442"/>
<text text-anchor="start" x="643.5" y="-433.2" font-family="Helvetica,sans-Serif" font-size="11.00">megabuilduptypeid</text>
<polygon fill="none" stroke="black" points="623.5,-403 623.5,-425 870.5,-425 870.5,-403 623.5,-403"/>
<image xlink:href="../../images/foreignKeys.png" width="11px" height="12px" preserveAspectRatio="xMinYMin meet" x="628.5" y="-420"/>
<text text-anchor="start" x="643.5" y="-411.2" font-family="Helvetica,sans-Serif" font-size="11.00">megadepositionalsettingid</text>
<polygon fill="none" stroke="black" points="623.5,-381 623.5,-403 870.5,-403 870.5,-381 623.5,-381"/>
<image xlink:href="../../images/foreignKeys.png" width="11px" height="12px" preserveAspectRatio="xMinYMin meet" x="628.5" y="-398"/>
<text text-anchor="start" x="643.5" y="-389.2" font-family="Helvetica,sans-Serif" font-size="11.00">megahorizontalscaleid</text>
<polygon fill="none" stroke="black" points="623.5,-359 623.5,-381 870.5,-381 870.5,-359 623.5,-359"/>
<image xlink:href="../../images/foreignKeys.png" width="11px" height="12px" preserveAspectRatio="xMinYMin meet" x="628.5" y="-376"/>
<text text-anchor="start" x="643.5" y="-367.2" font-family="Helvetica,sans-Serif" font-size="11.00">megainitiationid</text>
<polygon fill="none" stroke="black" points="623.5,-337 623.5,-359 870.5,-359 870.5,-337 623.5,-337"/>
<image xlink:href="../../images/foreignKeys.png" width="11px" height="12px" preserveAspectRatio="xMinYMin meet" x="628.5" y="-354"/>
<text text-anchor="start" x="643.5" y="-345.2" font-family="Helvetica,sans-Serif" font-size="11.00">megasedinterfaceid</text>
<polygon fill="none" stroke="black" points="623.5,-315 623.5,-337 870.5,-337 870.5,-315 623.5,-315"/>
<image xlink:href="../../images/foreignKeys.png" width="11px" height="12px" preserveAspectRatio="xMinYMin meet" x="628.5" y="-332"/>
<text text-anchor="start" x="643.5" y="-323.2" font-family="Helvetica,sans-Serif" font-size="11.00">megasubstrateid</text>
<polygon fill="none" stroke="black" points="623.5,-293 623.5,-315 870.5,-315 870.5,-293 623.5,-293"/>
<image xlink:href="../../images/foreignKeys.png" width="11px" height="12px" preserveAspectRatio="xMinYMin meet" x="628.5" y="-310"/>
<text text-anchor="start" x="643.5" y="-301.2" font-family="Helvetica,sans-Serif" font-size="11.00">megaverticalscaleid</text>
<polygon fill="none" stroke="black" points="623.5,-271 623.5,-293 870.5,-293 870.5,-271 623.5,-271"/>
<image xlink:href="../../images/foreignKeys.png" width="11px" height="12px" preserveAspectRatio="xMinYMin meet" x="628.5" y="-288"/>
<text text-anchor="start" x="643.5" y="-279.2" font-family="Helvetica,sans-Serif" font-size="11.00">collectionid</text>
<polygon fill="none" stroke="black" points="623.5,-249 623.5,-271 870.5,-271 870.5,-249 623.5,-249"/>
<image xlink:href="../../images/foreignKeys.png" width="11px" height="12px" preserveAspectRatio="xMinYMin meet" x="628.5" y="-266"/>
<text text-anchor="start" x="643.5" y="-257.2" font-family="Helvetica,sans-Serif" font-size="11.00">megainterpretedageunitid</text>
<polygon fill="none" stroke="black" points="623.5,-227 623.5,-249 870.5,-249 870.5,-227 623.5,-227"/>
<image xlink:href="../../images/foreignKeys.png" width="11px" height="12px" preserveAspectRatio="xMinYMin meet" x="628.5" y="-244"/>
<text text-anchor="start" x="643.5" y="-235.2" font-family="Helvetica,sans-Serif" font-size="11.00">megainterpretedagequalifierid</text>
<polygon fill="none" stroke="black" points="623.5,-205 623.5,-227 870.5,-227 870.5,-205 623.5,-205"/>
<image xlink:href="../../images/foreignKeys.png" width="11px" height="12px" preserveAspectRatio="xMinYMin meet" x="628.5" y="-222"/>
<text text-anchor="start" x="643.5" y="-213.2" font-family="Helvetica,sans-Serif" font-size="11.00">megaageinterpretationbasisid</text>
<polygon fill="none" stroke="black" points="623.5,-183 623.5,-205 870.5,-205 870.5,-183 623.5,-183"/>
<image xlink:href="../../images/foreignKeys.png" width="11px" height="12px" preserveAspectRatio="xMinYMin meet" x="628.5" y="-200"/>
<text text-anchor="start" x="643.5" y="-191.2" font-family="Helvetica,sans-Serif" font-size="11.00">megaageconfidenceid</text>
<polygon fill="none" stroke="black" points="623.5,-165 623.5,-183 870.5,-183 870.5,-165 623.5,-165"/>
<text text-anchor="start" x="626.5" y="-171.2" font-family="Helvetica,sans-Serif" font-size="11.00">...</text>
<polygon fill="#ffffff" stroke="transparent" points="623.5,-147 623.5,-165 870.5,-165 870.5,-147 623.5,-147"/>
<polygon fill="none" stroke="black" points="623.5,-147 623.5,-165 870.5,-165 870.5,-147 623.5,-147"/>
<polygon fill="#ffffff" stroke="transparent" points="624.5,-148 624.5,-164 698.5,-164 698.5,-148 624.5,-148"/>
<text text-anchor="start" x="626.5" y="-153.2" font-family="Helvetica,sans-Serif" font-size="11.00">&lt; 15</text>
<polygon fill="#ffffff" stroke="transparent" points="698.5,-148 698.5,-164 796.5,-164 796.5,-148 698.5,-148"/>
<text text-anchor="start" x="722" y="-153.2" font-family="Helvetica,sans-Serif" font-size="11.00">160 rows</text>
<polygon fill="#ffffff" stroke="transparent" points="796.5,-148 796.5,-164 869.5,-164 869.5,-148 796.5,-148"/>
<text text-anchor="start" x="840.5" y="-153.2" font-family="Helvetica,sans-Serif" font-size="11.00">11 &gt;</text>
<polygon fill="black" stroke="black" points="698.5,-148 698.5,-164 698.5,-164 698.5,-148 698.5,-148"/>
<polygon fill="black" stroke="black" points="796.5,-148 796.5,-164 796.5,-164 796.5,-148 796.5,-148"/>
</a>
</g>
</g>
<!-- tbl_megastructuredata&#45;&gt;tbl_projectdata -->
<g id="edge2" class="edge">
<title>tbl_megastructuredata:w&#45;&gt;tbl_projectdata:e</title>
<path fill="none" stroke="black" d="M608.46,-506.78C595.93,-517.2 595.25,-541 573.5,-541"/>
<polygon fill="black" stroke="black" points="614.93,-504.58 623.66,-505.41 618.71,-503.29 622.5,-502 622.5,-502 622.5,-502 618.71,-503.29 621.34,-498.59 614.93,-504.58 614.93,-504.58"/>
<ellipse fill="none" stroke="black" cx="611.9" cy="-505.61" rx="3.2" ry="3.2"/>
</g>
<!-- v_export_master -->
<g id="node5" class="node">
<title>v_export_master</title>
<g id="a_node5"><a xlink:href="../../tables/v_export_master.html" xlink:title="v_export_master" target="_top">
<polygon fill="#ffffff" stroke="transparent" points="919,-367 919,-649 1193,-649 1193,-367 919,-367"/>
<polygon fill="#f5f5f5" stroke="transparent" points="919,-627 919,-649 1193,-649 1193,-627 919,-627"/>
<polygon fill="none" stroke="black" points="919,-627 919,-649 1193,-649 1193,-627 919,-627"/>
<text text-anchor="start" x="924" y="-636.2" font-family="Helvetica,sans-Serif" font-weight="bold" font-size="11.00">v_export_master</text>
<text text-anchor="start" x="1153" y="-635.2" font-family="Helvetica,sans-Serif" font-size="11.00">[view]</text>
<polygon fill="none" stroke="black" points="919,-605 919,-627 1193,-627 1193,-605 919,-605"/>
<image xlink:href="../../images/foreignKeys.png" width="11px" height="12px" preserveAspectRatio="xMinYMin meet" x="924" y="-622"/>
<text text-anchor="start" x="939" y="-613.2" font-family="Helvetica,sans-Serif" font-size="11.00">project_projectid</text>
<polygon fill="none" stroke="black" points="919,-583 919,-605 1193,-605 1193,-583 919,-583"/>
<image xlink:href="../../images/foreignKeys.png" width="11px" height="12px" preserveAspectRatio="xMinYMin meet" x="924" y="-600"/>
<text text-anchor="start" x="939" y="-591.2" font-family="Helvetica,sans-Serif" font-size="11.00">mega_megastructureid</text>
<polygon fill="none" stroke="black" points="919,-561 919,-583 1193,-583 1193,-561 919,-561"/>
<image xlink:href="../../images/foreignKeys.png" width="11px" height="12px" preserveAspectRatio="xMinYMin meet" x="924" y="-578"/>
<text text-anchor="start" x="939" y="-569.2" font-family="Helvetica,sans-Serif" font-size="11.00">mega_projectid</text>
<polygon fill="none" stroke="black" points="919,-539 919,-561 1193,-561 1193,-539 919,-539"/>
<image xlink:href="../../images/foreignKeys.png" width="11px" height="12px" preserveAspectRatio="xMinYMin meet" x="924" y="-556"/>
<text text-anchor="start" x="939" y="-547.2" font-family="Helvetica,sans-Serif" font-size="11.00">mega_citationgroupid</text>
<polygon fill="none" stroke="black" points="919,-517 919,-539 1193,-539 1193,-517 919,-517"/>
<image xlink:href="../../images/foreignKeys.png" width="11px" height="12px" preserveAspectRatio="xMinYMin meet" x="924" y="-534"/>
<text text-anchor="start" x="939" y="-525.2" font-family="Helvetica,sans-Serif" font-size="11.00">mega_collectionid</text>
<polygon fill="none" stroke="black" points="919,-495 919,-517 1193,-517 1193,-495 919,-495"/>
<image xlink:href="../../images/foreignKeys.png" width="11px" height="12px" preserveAspectRatio="xMinYMin meet" x="924" y="-512"/>
<text text-anchor="start" x="939" y="-503.2" font-family="Helvetica,sans-Serif" font-size="11.00">macro_macrostructureid</text>
<polygon fill="none" stroke="black" points="919,-473 919,-495 1193,-495 1193,-473 919,-473"/>
<image xlink:href="../../images/foreignKeys.png" width="11px" height="12px" preserveAspectRatio="xMinYMin meet" x="924" y="-490"/>
<text text-anchor="start" x="939" y="-481.2" font-family="Helvetica,sans-Serif" font-size="11.00">macro_megastructureid</text>
<polygon fill="none" stroke="black" points="919,-451 919,-473 1193,-473 1193,-451 919,-451"/>
<image xlink:href="../../images/foreignKeys.png" width="11px" height="12px" preserveAspectRatio="xMinYMin meet" x="924" y="-468"/>
<text text-anchor="start" x="939" y="-459.2" font-family="Helvetica,sans-Serif" font-size="11.00">meso_mesostructureid</text>
<polygon fill="none" stroke="black" points="919,-429 919,-451 1193,-451 1193,-429 919,-429"/>
<image xlink:href="../../images/foreignKeys.png" width="11px" height="12px" preserveAspectRatio="xMinYMin meet" x="924" y="-446"/>
<text text-anchor="start" x="939" y="-437.2" font-family="Helvetica,sans-Serif" font-size="11.00">meso_macrostructureid</text>
<polygon fill="none" stroke="black" points="919,-407 919,-429 1193,-429 1193,-407 919,-407"/>
<image xlink:href="../../images/foreignKeys.png" width="11px" height="12px" preserveAspectRatio="xMinYMin meet" x="924" y="-424"/>
<text text-anchor="start" x="939" y="-415.2" font-family="Helvetica,sans-Serif" font-size="11.00">micro_microstructureid</text>
<polygon fill="none" stroke="black" points="919,-385 919,-407 1193,-407 1193,-385 919,-385"/>
<image xlink:href="../../images/foreignKeys.png" width="11px" height="12px" preserveAspectRatio="xMinYMin meet" x="924" y="-402"/>
<text text-anchor="start" x="939" y="-393.2" font-family="Helvetica,sans-Serif" font-size="11.00">micro_mesostructureid</text>
<polygon fill="none" stroke="black" points="919,-367 919,-385 1193,-385 1193,-367 919,-367"/>
<text text-anchor="start" x="922" y="-373.2" font-family="Helvetica,sans-Serif" font-size="11.00">...</text>
</a>
</g>
</g>
<!-- v_export_master&#45;&gt;tbl_projectdata -->
<g id="edge6" class="edge">
<title>v_export_master:w&#45;&gt;tbl_projectdata:e</title>
<path fill="none" stroke="black" stroke-dasharray="5,2" d="M903.39,-572.14C780.27,-574.51 739.08,-605.7 615,-568 593.95,-561.6 595.5,-541 573.5,-541"/>
<polygon fill="black" stroke="black" points="910,-572.08 918.03,-575.6 914,-572.04 918,-572 918,-572 918,-572 914,-572.04 917.97,-568.4 910,-572.08 910,-572.08"/>
<ellipse fill="none" stroke="black" cx="906.8" cy="-572.11" rx="3.2" ry="3.2"/>
</g>
<!-- v_export_master&#45;&gt;tbl_projectdata -->
<g id="edge7" class="edge">
<title>v_export_master:w&#45;&gt;tbl_projectdata:e</title>
<path fill="none" stroke="black" stroke-dasharray="5,2" d="M903.17,-616.01C827.63,-616.05 671.41,-615.38 615,-587 590.4,-574.63 601.03,-541 573.5,-541"/>
<polygon fill="black" stroke="black" points="910,-616 918,-619.6 914,-616 918,-616 918,-616 918,-616 914,-616 918,-612.4 910,-616 910,-616"/>
<ellipse fill="none" stroke="black" cx="906.8" cy="-616.01" rx="3.2" ry="3.2"/>
</g>
<!-- v_export_master&#45;&gt;tbl_megastructuredata -->
<g id="edge4" class="edge">
<title>v_export_master:w&#45;&gt;tbl_megastructuredata:e</title>
<path fill="none" stroke="black" stroke-dasharray="5,2" d="M904.44,-488.9C892.56,-499.59 892.8,-524 871.5,-524"/>
<polygon fill="black" stroke="black" points="910.48,-486.72 919.22,-487.39 914.24,-485.36 918,-484 918,-484 918,-484 914.24,-485.36 916.78,-480.61 910.48,-486.72 910.48,-486.72"/>
<ellipse fill="none" stroke="black" cx="907.47" cy="-487.81" rx="3.2" ry="3.2"/>
</g>
<!-- v_export_master&#45;&gt;tbl_megastructuredata -->
<g id="edge5" class="edge">
<title>v_export_master:w&#45;&gt;tbl_megastructuredata:e</title>
<path fill="none" stroke="black" stroke-dasharray="5,2" d="M904.33,-588.97C888.14,-572.92 902.72,-524 871.5,-524"/>
<polygon fill="black" stroke="black" points="910.49,-591.24 916.76,-597.38 914.25,-592.62 918,-594 918,-594 918,-594 914.25,-592.62 919.24,-590.62 910.49,-591.24 910.49,-591.24"/>
<ellipse fill="none" stroke="black" cx="907.49" cy="-590.13" rx="3.2" ry="3.2"/>
</g>
<!-- v_export_mega -->
<g id="node6" class="node">
<title>v_export_mega</title>
<g id="a_node6"><a xlink:href="../../tables/v_export_mega.html" xlink:title="v_export_mega" target="_top">
<polygon fill="#ffffff" stroke="transparent" points="919,-138 919,-266 1193,-266 1193,-138 919,-138"/>
<polygon fill="#f5f5f5" stroke="transparent" points="919,-244 919,-266 1193,-266 1193,-244 919,-244"/>
<polygon fill="none" stroke="black" points="919,-244 919,-266 1193,-266 1193,-244 919,-244"/>
<text text-anchor="start" x="924" y="-253.2" font-family="Helvetica,sans-Serif" font-weight="bold" font-size="11.00">v_export_mega</text>
<text text-anchor="start" x="1153" y="-252.2" font-family="Helvetica,sans-Serif" font-size="11.00">[view]</text>
<polygon fill="none" stroke="black" points="919,-222 919,-244 1193,-244 1193,-222 919,-222"/>
<image xlink:href="../../images/foreignKeys.png" width="11px" height="12px" preserveAspectRatio="xMinYMin meet" x="924" y="-239"/>
<text text-anchor="start" x="939" y="-230.2" font-family="Helvetica,sans-Serif" font-size="11.00">mega_megastructureid</text>
<polygon fill="none" stroke="black" points="919,-200 919,-222 1193,-222 1193,-200 919,-200"/>
<image xlink:href="../../images/foreignKeys.png" width="11px" height="12px" preserveAspectRatio="xMinYMin meet" x="924" y="-217"/>
<text text-anchor="start" x="939" y="-208.2" font-family="Helvetica,sans-Serif" font-size="11.00">mega_projectid</text>
<polygon fill="none" stroke="black" points="919,-178 919,-200 1193,-200 1193,-178 919,-178"/>
<image xlink:href="../../images/foreignKeys.png" width="11px" height="12px" preserveAspectRatio="xMinYMin meet" x="924" y="-195"/>
<text text-anchor="start" x="939" y="-186.2" font-family="Helvetica,sans-Serif" font-size="11.00">mega_citationgroupid</text>
<polygon fill="none" stroke="black" points="919,-156 919,-178 1193,-178 1193,-156 919,-156"/>
<image xlink:href="../../images/foreignKeys.png" width="11px" height="12px" preserveAspectRatio="xMinYMin meet" x="924" y="-173"/>
<text text-anchor="start" x="939" y="-164.2" font-family="Helvetica,sans-Serif" font-size="11.00">mega_collectionid</text>
<polygon fill="none" stroke="black" points="919,-138 919,-156 1193,-156 1193,-138 919,-138"/>
<text text-anchor="start" x="922" y="-144.2" font-family="Helvetica,sans-Serif" font-size="11.00">...</text>
</a>
</g>
</g>
<!-- v_export_mega&#45;&gt;tbl_projectdata -->
<g id="edge9" class="edge">
<title>v_export_mega:w&#45;&gt;tbl_projectdata:e</title>
<path fill="none" stroke="black" stroke-dasharray="5,2" d="M904,-206.6C888.93,-193.2 904.59,-152.85 878,-137 827.8,-107.07 658.39,-97.84 615,-137 548,-197.47 663.75,-541 573.5,-541"/>
<polygon fill="black" stroke="black" points="910.37,-208.6 916.92,-214.43 914.18,-209.8 918,-211 918,-211 918,-211 914.18,-209.8 919.08,-207.57 910.37,-208.6 910.37,-208.6"/>
<ellipse fill="none" stroke="black" cx="907.32" cy="-207.64" rx="3.2" ry="3.2"/>
</g>
<!-- v_export_mega&#45;&gt;tbl_megastructuredata -->
<g id="edge8" class="edge">
<title>v_export_mega:w&#45;&gt;tbl_megastructuredata:e</title>
<path fill="none" stroke="black" stroke-dasharray="5,2" d="M904.5,-238.81C865.64,-279.83 931.49,-524 871.5,-524"/>
<polygon fill="black" stroke="black" points="910.65,-236.16 919.42,-236.31 914.33,-234.58 918,-233 918,-233 918,-233 914.33,-234.58 916.58,-229.69 910.65,-236.16 910.65,-236.16"/>
<ellipse fill="none" stroke="black" cx="907.71" cy="-237.43" rx="3.2" ry="3.2"/>
</g>
<!-- v_export_project -->
<g id="node7" class="node">
<title>v_export_project</title>
<g id="a_node7"><a xlink:href="../../tables/v_export_project.html" xlink:title="v_export_project" target="_top">
<polygon fill="#ffffff" stroke="transparent" points="625.5,-37 625.5,-99 867.5,-99 867.5,-37 625.5,-37"/>
<polygon fill="#f5f5f5" stroke="transparent" points="625.5,-77 625.5,-99 867.5,-99 867.5,-77 625.5,-77"/>
<polygon fill="none" stroke="black" points="625.5,-77 625.5,-99 867.5,-99 867.5,-77 625.5,-77"/>
<text text-anchor="start" x="630.5" y="-86.2" font-family="Helvetica,sans-Serif" font-weight="bold" font-size="11.00">v_export_project</text>
<text text-anchor="start" x="827.5" y="-85.2" font-family="Helvetica,sans-Serif" font-size="11.00">[view]</text>
<polygon fill="none" stroke="black" points="625.5,-55 625.5,-77 867.5,-77 867.5,-55 625.5,-55"/>
<image xlink:href="../../images/foreignKeys.png" width="11px" height="12px" preserveAspectRatio="xMinYMin meet" x="630.5" y="-72"/>
<text text-anchor="start" x="645.5" y="-63.2" font-family="Helvetica,sans-Serif" font-size="11.00">project_projectid</text>
<polygon fill="none" stroke="black" points="625.5,-37 625.5,-55 867.5,-55 867.5,-37 625.5,-37"/>
<text text-anchor="start" x="628.5" y="-43.2" font-family="Helvetica,sans-Serif" font-size="11.00">...</text>
</a>
</g>
</g>
<!-- v_export_project&#45;&gt;tbl_projectdata -->
<g id="edge10" class="edge">
<title>v_export_project:w&#45;&gt;tbl_projectdata:e</title>
<path fill="none" stroke="black" stroke-dasharray="5,2" d="M610.33,-69.55C534.03,-113.02 674.27,-541 573.5,-541"/>
<polygon fill="black" stroke="black" points="616.74,-67.94 625.37,-69.49 620.62,-66.97 624.5,-66 624.5,-66 624.5,-66 620.62,-66.97 623.63,-62.51 616.74,-67.94 616.74,-67.94"/>
<ellipse fill="none" stroke="black" cx="613.64" cy="-68.72" rx="3.2" ry="3.2"/>
</g>
</g>
</svg>
