<?xml version="1.0" encoding="UTF-8" standalone="no"?>
<!DOCTYPE svg PUBLIC "-//W3C//DTD SVG 1.1//EN"
 "http://www.w3.org/Graphics/SVG/1.1/DTD/svg11.dtd">
<!-- Generated by graphviz version 2.43.0 (0)
 -->
<!-- Title: oneDegreeRelationshipsDiagramImplied Pages: 1 -->
<svg width="553pt" height="283pt"
 viewBox="0.00 0.00 553.00 283.00" xmlns="http://www.w3.org/2000/svg" xmlns:xlink="http://www.w3.org/1999/xlink">
<g id="graph0" class="graph" transform="scale(1 1) rotate(0) translate(4 279)">
<title>oneDegreeRelationshipsDiagramImplied</title>
<polygon fill="#ffffff" stroke="transparent" points="-4,4 -4,-279 549,-279 549,4 -4,4"/>
<text text-anchor="middle" x="79.5" y="-7.2" font-family="Helvetica,sans-Serif" font-size="11.00">Generated by SchemaSpy</text>
<!-- tbl_mesostructuredata -->
<g id="node1" class="node">
<title>tbl_mesostructuredata</title>
<g id="a_node1"><a xlink:href="../../tables/tbl_mesostructuredata.html" xlink:title="tbl_mesostructuredata" target="_top">
<polygon fill="#ffffff" stroke="transparent" points="324,-37 324,-271 537,-271 537,-37 324,-37"/>
<polygon fill="#f5f5f5" stroke="transparent" points="324.5,-249 324.5,-271 537.5,-271 537.5,-249 324.5,-249"/>
<polygon fill="none" stroke="black" points="324.5,-249 324.5,-271 537.5,-271 537.5,-249 324.5,-249"/>
<text text-anchor="start" x="329.5" y="-258.2" font-family="Helvetica,sans-Serif" font-weight="bold" font-size="11.00">tbl_mesostructuredata</text>
<text text-anchor="start" x="495.5" y="-257.2" font-family="Helvetica,sans-Serif" font-size="11.00">[table]</text>
<polygon fill="none" stroke="black" points="324.5,-227 324.5,-249 537.5,-249 537.5,-227 324.5,-227"/>
<image xlink:href="../../images/primaryKeys.png" width="11px" height="12px" preserveAspectRatio="xMinYMin meet" x="329.5" y="-244"/>
<text text-anchor="start" x="347.5" y="-235.2" font-family="Helvetica,sans-Serif" font-size="11.00">mesostructureid</text>
<polygon fill="none" stroke="black" points="324.5,-205 324.5,-227 537.5,-227 537.5,-205 324.5,-205"/>
<image xlink:href="../../images/foreignKeys.png" width="11px" height="12px" preserveAspectRatio="xMinYMin meet" x="329.5" y="-222"/>
<text text-anchor="start" x="347.5" y="-213.2" font-family="Helvetica,sans-Serif" font-size="11.00">macrostructureid</text>
<polygon fill="none" stroke="black" points="324.5,-183 324.5,-205 537.5,-205 537.5,-183 324.5,-183"/>
<image xlink:href="../../images/foreignKeys.png" width="11px" height="12px" preserveAspectRatio="xMinYMin meet" x="329.5" y="-200"/>
<text text-anchor="start" x="347.5" y="-191.2" font-family="Helvetica,sans-Serif" font-size="11.00">mesoclothierarchyid</text>
<polygon fill="none" stroke="black" points="324.5,-161 324.5,-183 537.5,-183 537.5,-161 324.5,-161"/>
<image xlink:href="../../images/foreignKeys.png" width="11px" height="12px" preserveAspectRatio="xMinYMin meet" x="329.5" y="-178"/>
<text text-anchor="start" x="347.5" y="-169.2" font-family="Helvetica,sans-Serif" font-size="11.00">mesolaminainheritanceid</text>
<polygon fill="none" stroke="black" points="324.5,-139 324.5,-161 537.5,-161 537.5,-139 324.5,-139"/>
<image xlink:href="../../images/foreignKeys.png" width="11px" height="12px" preserveAspectRatio="xMinYMin meet" x="329.5" y="-156"/>
<text text-anchor="start" x="347.5" y="-147.2" font-family="Helvetica,sans-Serif" font-size="11.00">mesolatcontinuityid</text>
<polygon fill="none" stroke="black" points="324.5,-117 324.5,-139 537.5,-139 537.5,-117 324.5,-117"/>
<image xlink:href="../../images/foreignKeys.png" width="11px" height="12px" preserveAspectRatio="xMinYMin meet" x="329.5" y="-134"/>
<text text-anchor="start" x="347.5" y="-125.2" font-family="Helvetica,sans-Serif" font-size="11.00">mesomodalityskewnessid</text>
<polygon fill="none" stroke="black" points="324.5,-95 324.5,-117 537.5,-117 537.5,-95 324.5,-95"/>
<image xlink:href="../../images/foreignKeys.png" width="11px" height="12px" preserveAspectRatio="xMinYMin meet" x="329.5" y="-112"/>
<text text-anchor="start" x="347.5" y="-103.2" font-family="Helvetica,sans-Serif" font-size="11.00">mesosynopticreliefid</text>
<polygon fill="none" stroke="black" points="324.5,-73 324.5,-95 537.5,-95 537.5,-73 324.5,-73"/>
<image xlink:href="../../images/foreignKeys.png" width="11px" height="12px" preserveAspectRatio="xMinYMin meet" x="329.5" y="-90"/>
<text text-anchor="start" x="347.5" y="-81.2" font-family="Helvetica,sans-Serif" font-size="11.00">mesowallsid</text>
<polygon fill="none" stroke="black" points="324.5,-55 324.5,-73 537.5,-73 537.5,-55 324.5,-55"/>
<text text-anchor="start" x="327.5" y="-61.2" font-family="Helvetica,sans-Serif" font-size="11.00">...</text>
<polygon fill="#ffffff" stroke="transparent" points="324.5,-37 324.5,-55 537.5,-55 537.5,-37 324.5,-37"/>
<polygon fill="none" stroke="black" points="324.5,-37 324.5,-55 537.5,-55 537.5,-37 324.5,-37"/>
<polygon fill="#ffffff" stroke="transparent" points="325.5,-38 325.5,-54 383.5,-54 383.5,-38 325.5,-38"/>
<text text-anchor="start" x="327.5" y="-43.2" font-family="Helvetica,sans-Serif" font-size="11.00">&lt; 7</text>
<polygon fill="#ffffff" stroke="transparent" points="383.5,-38 383.5,-54 472.5,-54 472.5,-38 383.5,-38"/>
<text text-anchor="start" x="402.5" y="-43.2" font-family="Helvetica,sans-Serif" font-size="11.00">277 rows</text>
<polygon fill="#ffffff" stroke="transparent" points="472.5,-38 472.5,-54 536.5,-54 536.5,-38 472.5,-38"/>
<text text-anchor="start" x="507.5" y="-43.2" font-family="Helvetica,sans-Serif" font-size="11.00">16 &gt;</text>
<polygon fill="black" stroke="black" points="383.5,-38 383.5,-54 383.5,-54 383.5,-38 383.5,-38"/>
<polygon fill="black" stroke="black" points="472.5,-38 472.5,-54 472.5,-54 472.5,-38 472.5,-38"/>
</a>
</g>
</g>
<!-- tlkpmesoclothierarchy -->
<g id="node2" class="node">
<title>tlkpmesoclothierarchy</title>
<g id="a_node2"><a xlink:href="../../tables/tlkpmesoclothierarchy.html" xlink:title="tlkpmesoclothierarchy" target="_top">
<polygon fill="#ffffff" stroke="transparent" points="8,-119 8,-229 275,-229 275,-119 8,-119"/>
<polygon fill="#f5f5f5" stroke="transparent" points="10.5,-205 10.5,-227 273.5,-227 273.5,-205 10.5,-205"/>
<polygon fill="none" stroke="black" points="10.5,-205 10.5,-227 273.5,-227 273.5,-205 10.5,-205"/>
<text text-anchor="start" x="15.5" y="-214.2" font-family="Helvetica,sans-Serif" font-weight="bold" font-size="11.00">tlkpmesoclothierarchy</text>
<text text-anchor="start" x="231.5" y="-213.2" font-family="Helvetica,sans-Serif" font-size="11.00">[table]</text>
<polygon fill="none" stroke="black" points="10.5,-183 10.5,-205 195.5,-205 195.5,-183 10.5,-183"/>
<image xlink:href="../../images/primaryKeys.png" width="11px" height="12px" preserveAspectRatio="xMinYMin meet" x="15.5" y="-200"/>
<text text-anchor="start" x="30.5" y="-191.2" font-family="Helvetica,sans-Serif" font-size="11.00">valueid</text>
<polygon fill="none" stroke="black" points="195.5,-183 195.5,-205 273.5,-205 273.5,-183 195.5,-183"/>
<text text-anchor="start" x="198.5" y="-191.2" font-family="Helvetica,sans-Serif" font-size="11.00">serial[10]</text>
<polygon fill="none" stroke="black" points="10.5,-161 10.5,-183 195.5,-183 195.5,-161 10.5,-161"/>
<text text-anchor="start" x="30.5" y="-169.2" font-family="Helvetica,sans-Serif" font-size="11.00">textfield</text>
<polygon fill="none" stroke="black" points="195.5,-161 195.5,-183 273.5,-183 273.5,-161 195.5,-161"/>
<text text-anchor="start" x="198.5" y="-169.2" font-family="Helvetica,sans-Serif" font-size="11.00">varchar[255]</text>
<polygon fill="none" stroke="black" points="10.5,-139 10.5,-161 195.5,-161 195.5,-139 10.5,-139"/>
<text text-anchor="start" x="30.5" y="-147.2" font-family="Helvetica,sans-Serif" font-size="11.00">sort</text>
<polygon fill="none" stroke="black" points="195.5,-139 195.5,-161 273.5,-161 273.5,-139 195.5,-139"/>
<text text-anchor="start" x="198.5" y="-147.2" font-family="Helvetica,sans-Serif" font-size="11.00">int4[10]</text>
<polygon fill="#ffffff" stroke="transparent" points="10.5,-121 10.5,-139 273.5,-139 273.5,-121 10.5,-121"/>
<polygon fill="none" stroke="black" points="10.5,-121 10.5,-139 273.5,-139 273.5,-121 10.5,-121"/>
<polygon fill="#ffffff" stroke="transparent" points="11.5,-122 11.5,-138 93.5,-138 93.5,-122 11.5,-122"/>
<text text-anchor="start" x="13.5" y="-127.2" font-family="Helvetica,sans-Serif" font-size="11.00">&lt; 0</text>
<polygon fill="#ffffff" stroke="transparent" points="93.5,-122 93.5,-138 191.5,-138 191.5,-122 93.5,-122"/>
<text text-anchor="start" x="124" y="-127.2" font-family="Helvetica,sans-Serif" font-size="11.00">4 rows</text>
<polygon fill="#ffffff" stroke="transparent" points="191.5,-122 191.5,-138 272.5,-138 272.5,-122 191.5,-122"/>
<text text-anchor="start" x="250.5" y="-127.2" font-family="Helvetica,sans-Serif" font-size="11.00">1 &gt;</text>
<polygon fill="black" stroke="black" points="93.5,-122 93.5,-138 93.5,-138 93.5,-122 93.5,-122"/>
<polygon fill="black" stroke="black" points="191.5,-122 191.5,-138 191.5,-138 191.5,-122 191.5,-122"/>
<polygon fill="none" stroke="black" stroke-width="2" points="9,-120 9,-228 274,-228 274,-120 9,-120"/>
</a>
</g>
</g>
<!-- tbl_mesostructuredata&#45;&gt;tlkpmesoclothierarchy -->
<g id="edge1" class="edge">
<title>tbl_mesostructuredata:w&#45;&gt;tlkpmesoclothierarchy:e</title>
<path fill="none" stroke="black" d="M308.99,-194C297.68,-194 290.49,-194 274.5,-194"/>
<polygon fill="black" stroke="black" points="315.5,-194 323.5,-197.6 319.5,-194 323.5,-194 323.5,-194 323.5,-194 319.5,-194 323.5,-190.4 315.5,-194 315.5,-194"/>
<ellipse fill="none" stroke="black" cx="312.3" cy="-194" rx="3.2" ry="3.2"/>
</g>
</g>
</svg>
