<?xml version="1.0" encoding="UTF-8" standalone="no"?>
<!DOCTYPE svg PUBLIC "-//W3C//DTD SVG 1.1//EN"
 "http://www.w3.org/Graphics/SVG/1.1/DTD/svg11.dtd">
<!-- Generated by graphviz version 2.43.0 (0)
 -->
<!-- Title: twoDegreesRelationshipsDiagram Pages: 1 -->
<svg width="538pt" height="238pt"
 viewBox="0.00 0.00 538.00 238.00" xmlns="http://www.w3.org/2000/svg" xmlns:xlink="http://www.w3.org/1999/xlink">
<g id="graph0" class="graph" transform="scale(1 1) rotate(0) translate(4 234)">
<title>twoDegreesRelationshipsDiagram</title>
<polygon fill="#ffffff" stroke="transparent" points="-4,4 -4,-234 534,-234 534,4 -4,4"/>
<text text-anchor="middle" x="79.5" y="-7.2" font-family="Helvetica,sans-Serif" font-size="11.00">Generated by SchemaSpy</text>
<!-- jtbl_tlkpmesolamprofile -->
<g id="node1" class="node">
<title>jtbl_tlkpmesolamprofile</title>
<g id="a_node1"><a xlink:href="../../tables/jtbl_tlkpmesolamprofile.html" xlink:title="jtbl_tlkpmesolamprofile" target="_top">
<polygon fill="#ffffff" stroke="transparent" points="302,-113 302,-197 522,-197 522,-113 302,-113"/>
<polygon fill="#f5f5f5" stroke="transparent" points="302,-175 302,-197 522,-197 522,-175 302,-175"/>
<polygon fill="none" stroke="black" points="302,-175 302,-197 522,-197 522,-175 302,-175"/>
<text text-anchor="start" x="307" y="-184.2" font-family="Helvetica,sans-Serif" font-weight="bold" font-size="11.00">jtbl_tlkpmesolamprofile</text>
<text text-anchor="start" x="480" y="-183.2" font-family="Helvetica,sans-Serif" font-size="11.00">[table]</text>
<polygon fill="none" stroke="black" points="302,-153 302,-175 522,-175 522,-153 302,-153"/>
<image xlink:href="../../images/primaryKeys.png" width="11px" height="12px" preserveAspectRatio="xMinYMin meet" x="307" y="-170"/>
<text text-anchor="start" x="335" y="-161.2" font-family="Helvetica,sans-Serif" font-size="11.00">mesostructureid</text>
<polygon fill="none" stroke="black" points="302,-131 302,-153 522,-153 522,-131 302,-131"/>
<image xlink:href="../../images/primaryKeys.png" width="11px" height="12px" preserveAspectRatio="xMinYMin meet" x="307" y="-148"/>
<text text-anchor="start" x="335" y="-139.2" font-family="Helvetica,sans-Serif" font-size="11.00">fieldvalueid</text>
<polygon fill="#ffffff" stroke="transparent" points="302,-113 302,-131 522,-131 522,-113 302,-113"/>
<polygon fill="none" stroke="black" points="302,-113 302,-131 522,-131 522,-113 302,-113"/>
<polygon fill="#ffffff" stroke="transparent" points="303,-114 303,-130 372,-130 372,-114 303,-114"/>
<text text-anchor="start" x="305" y="-119.2" font-family="Helvetica,sans-Serif" font-size="11.00">&lt; 2</text>
<polygon fill="#ffffff" stroke="transparent" points="372,-114 372,-130 465,-130 465,-114 372,-114"/>
<text text-anchor="start" x="396.5" y="-119.2" font-family="Helvetica,sans-Serif" font-size="11.00">87 rows</text>
<polygon fill="#ffffff" stroke="transparent" points="465,-114 465,-130 521,-130 521,-114 465,-114"/>
<text text-anchor="start" x="511" y="-119.2" font-family="Helvetica,sans-Serif" font-size="11.00"> &#160;</text>
<polygon fill="black" stroke="black" points="372,-114 372,-130 372,-130 372,-114 372,-114"/>
<polygon fill="black" stroke="black" points="465,-114 465,-130 465,-130 465,-114 465,-114"/>
</a>
</g>
</g>
<!-- tlkpmesolamprofile -->
<g id="node2" class="node">
<title>tlkpmesolamprofile</title>
<g id="a_node2"><a xlink:href="../../tables/tlkpmesolamprofile.html" xlink:title="tlkpmesolamprofile" target="_top">
<polygon fill="#ffffff" stroke="transparent" points="8,-37 8,-147 253,-147 253,-37 8,-37"/>
<polygon fill="#f5f5f5" stroke="transparent" points="10.5,-123 10.5,-145 251.5,-145 251.5,-123 10.5,-123"/>
<polygon fill="none" stroke="black" points="10.5,-123 10.5,-145 251.5,-145 251.5,-123 10.5,-123"/>
<text text-anchor="start" x="15.5" y="-132.2" font-family="Helvetica,sans-Serif" font-weight="bold" font-size="11.00">tlkpmesolamprofile</text>
<text text-anchor="start" x="209.5" y="-131.2" font-family="Helvetica,sans-Serif" font-size="11.00">[table]</text>
<polygon fill="none" stroke="black" points="10.5,-101 10.5,-123 173.5,-123 173.5,-101 10.5,-101"/>
<image xlink:href="../../images/primaryKeys.png" width="11px" height="12px" preserveAspectRatio="xMinYMin meet" x="15.5" y="-118"/>
<text text-anchor="start" x="30.5" y="-109.2" font-family="Helvetica,sans-Serif" font-size="11.00">valueid</text>
<polygon fill="none" stroke="black" points="173.5,-101 173.5,-123 251.5,-123 251.5,-101 173.5,-101"/>
<text text-anchor="start" x="176.5" y="-109.2" font-family="Helvetica,sans-Serif" font-size="11.00">serial[10]</text>
<polygon fill="none" stroke="black" points="10.5,-79 10.5,-101 173.5,-101 173.5,-79 10.5,-79"/>
<text text-anchor="start" x="30.5" y="-87.2" font-family="Helvetica,sans-Serif" font-size="11.00">textfield</text>
<polygon fill="none" stroke="black" points="173.5,-79 173.5,-101 251.5,-101 251.5,-79 173.5,-79"/>
<text text-anchor="start" x="176.5" y="-87.2" font-family="Helvetica,sans-Serif" font-size="11.00">varchar[255]</text>
<polygon fill="none" stroke="black" points="10.5,-57 10.5,-79 173.5,-79 173.5,-57 10.5,-57"/>
<text text-anchor="start" x="30.5" y="-65.2" font-family="Helvetica,sans-Serif" font-size="11.00">sort</text>
<polygon fill="none" stroke="black" points="173.5,-57 173.5,-79 251.5,-79 251.5,-57 173.5,-57"/>
<text text-anchor="start" x="176.5" y="-65.2" font-family="Helvetica,sans-Serif" font-size="11.00">int4[10]</text>
<polygon fill="#ffffff" stroke="transparent" points="10.5,-39 10.5,-57 251.5,-57 251.5,-39 10.5,-39"/>
<polygon fill="none" stroke="black" points="10.5,-39 10.5,-57 251.5,-57 251.5,-39 10.5,-39"/>
<polygon fill="#ffffff" stroke="transparent" points="11.5,-40 11.5,-56 83.5,-56 83.5,-40 11.5,-40"/>
<text text-anchor="start" x="13.5" y="-45.2" font-family="Helvetica,sans-Serif" font-size="11.00">&lt; 0</text>
<polygon fill="#ffffff" stroke="transparent" points="83.5,-40 83.5,-56 179.5,-56 179.5,-40 83.5,-40"/>
<text text-anchor="start" x="109.5" y="-45.2" font-family="Helvetica,sans-Serif" font-size="11.00">12 rows</text>
<polygon fill="#ffffff" stroke="transparent" points="179.5,-40 179.5,-56 250.5,-56 250.5,-40 179.5,-40"/>
<text text-anchor="start" x="228.5" y="-45.2" font-family="Helvetica,sans-Serif" font-size="11.00">1 &gt;</text>
<polygon fill="black" stroke="black" points="83.5,-40 83.5,-56 83.5,-56 83.5,-40 83.5,-40"/>
<polygon fill="black" stroke="black" points="179.5,-40 179.5,-56 179.5,-56 179.5,-40 179.5,-40"/>
<polygon fill="none" stroke="black" stroke-width="2" points="9,-38 9,-146 252,-146 252,-38 9,-38"/>
</a>
</g>
</g>
<!-- jtbl_tlkpmesolamprofile&#45;&gt;tlkpmesolamprofile -->
<g id="edge1" class="edge">
<title>jtbl_tlkpmesolamprofile:w&#45;&gt;tlkpmesolamprofile:e</title>
<path fill="none" stroke="black" d="M287.01,-137.83C275.17,-129.59 271.91,-112 252.5,-112"/>
<polygon fill="black" stroke="black" points="293.33,-139.71 299.97,-145.45 297.17,-140.86 301,-142 301,-142 301,-142 297.17,-140.86 302.03,-138.55 293.33,-139.71 293.33,-139.71"/>
<ellipse fill="none" stroke="black" cx="290.27" cy="-138.8" rx="3.2" ry="3.2"/>
</g>
<!-- tbl_mesostructuredata -->
<g id="node3" class="node">
<title>tbl_mesostructuredata</title>
<g id="a_node3"><a xlink:href="../../tables/tbl_mesostructuredata.html" xlink:title="tbl_mesostructuredata" target="_top">
<polygon fill="#ffffff" stroke="transparent" points="24,-168 24,-226 237,-226 237,-168 24,-168"/>
<polygon fill="#f5f5f5" stroke="transparent" points="24.5,-204 24.5,-226 237.5,-226 237.5,-204 24.5,-204"/>
<polygon fill="none" stroke="black" points="24.5,-204 24.5,-226 237.5,-226 237.5,-204 24.5,-204"/>
<text text-anchor="start" x="29.5" y="-213.2" font-family="Helvetica,sans-Serif" font-weight="bold" font-size="11.00">tbl_mesostructuredata</text>
<text text-anchor="start" x="195.5" y="-212.2" font-family="Helvetica,sans-Serif" font-size="11.00">[table]</text>
<polygon fill="none" stroke="black" points="24.5,-186 24.5,-204 237.5,-204 237.5,-186 24.5,-186"/>
<text text-anchor="start" x="27.5" y="-192.2" font-family="Helvetica,sans-Serif" font-size="11.00">...</text>
<polygon fill="#ffffff" stroke="transparent" points="24.5,-168 24.5,-186 237.5,-186 237.5,-168 24.5,-168"/>
<polygon fill="none" stroke="black" points="24.5,-168 24.5,-186 237.5,-186 237.5,-168 24.5,-168"/>
<polygon fill="#ffffff" stroke="transparent" points="25.5,-169 25.5,-185 83.5,-185 83.5,-169 25.5,-169"/>
<text text-anchor="start" x="27.5" y="-174.2" font-family="Helvetica,sans-Serif" font-size="11.00">&lt; 7</text>
<polygon fill="#ffffff" stroke="transparent" points="83.5,-169 83.5,-185 172.5,-185 172.5,-169 83.5,-169"/>
<text text-anchor="start" x="102.5" y="-174.2" font-family="Helvetica,sans-Serif" font-size="11.00">277 rows</text>
<polygon fill="#ffffff" stroke="transparent" points="172.5,-169 172.5,-185 236.5,-185 236.5,-169 172.5,-169"/>
<text text-anchor="start" x="207.5" y="-174.2" font-family="Helvetica,sans-Serif" font-size="11.00">16 &gt;</text>
<polygon fill="black" stroke="black" points="83.5,-169 83.5,-185 83.5,-185 83.5,-169 83.5,-169"/>
<polygon fill="black" stroke="black" points="172.5,-169 172.5,-185 172.5,-185 172.5,-169 172.5,-169"/>
</a>
</g>
</g>
<!-- jtbl_tlkpmesolamprofile&#45;&gt;tbl_mesostructuredata -->
<g id="edge2" class="edge">
<title>jtbl_tlkpmesolamprofile:w&#45;&gt;tbl_mesostructuredata:e</title>
<path fill="none" stroke="black" d="M286.63,-166.75C268.79,-174.34 263.81,-195 238.5,-195"/>
<polygon fill="black" stroke="black" points="293.14,-165.5 301.68,-167.54 297.07,-164.75 301,-164 301,-164 301,-164 297.07,-164.75 300.32,-160.46 293.14,-165.5 293.14,-165.5"/>
<ellipse fill="none" stroke="black" cx="290" cy="-166.11" rx="3.2" ry="3.2"/>
</g>
</g>
</svg>
