<?xml version="1.0" encoding="UTF-8" standalone="no"?>
<!DOCTYPE svg PUBLIC "-//W3C//DTD SVG 1.1//EN"
 "http://www.w3.org/Graphics/SVG/1.1/DTD/svg11.dtd">
<!-- Generated by graphviz version 2.43.0 (0)
 -->
<!-- Title: oneDegreeRelationshipsDiagram Pages: 1 -->
<svg width="634pt" height="459pt"
 viewBox="0.00 0.00 634.00 459.00" xmlns="http://www.w3.org/2000/svg" xmlns:xlink="http://www.w3.org/1999/xlink">
<g id="graph0" class="graph" transform="scale(1 1) rotate(0) translate(4 455)">
<title>oneDegreeRelationshipsDiagram</title>
<polygon fill="#ffffff" stroke="transparent" points="-4,4 -4,-455 630,-455 630,4 -4,4"/>
<text text-anchor="middle" x="79.5" y="-7.2" font-family="Helvetica,sans-Serif" font-size="11.00">Generated by SchemaSpy</text>
<!-- tbl_megastructuredata -->
<g id="node1" class="node">
<title>tbl_megastructuredata</title>
<g id="a_node1"><a xlink:href="../../tables/tbl_megastructuredata.html" xlink:title="tbl_megastructuredata" target="_top">
<polygon fill="#ffffff" stroke="transparent" points="371,-37 371,-447 618,-447 618,-37 371,-37"/>
<polygon fill="#f5f5f5" stroke="transparent" points="371.5,-425 371.5,-447 618.5,-447 618.5,-425 371.5,-425"/>
<polygon fill="none" stroke="black" points="371.5,-425 371.5,-447 618.5,-447 618.5,-425 371.5,-425"/>
<text text-anchor="start" x="376.5" y="-434.2" font-family="Helvetica,sans-Serif" font-weight="bold" font-size="11.00">tbl_megastructuredata</text>
<text text-anchor="start" x="576.5" y="-433.2" font-family="Helvetica,sans-Serif" font-size="11.00">[table]</text>
<polygon fill="none" stroke="black" points="371.5,-403 371.5,-425 618.5,-425 618.5,-403 371.5,-403"/>
<image xlink:href="../../images/primaryKeys.png" width="11px" height="12px" preserveAspectRatio="xMinYMin meet" x="376.5" y="-420"/>
<text text-anchor="start" x="391.5" y="-411.2" font-family="Helvetica,sans-Serif" font-size="11.00">megastructureid</text>
<polygon fill="none" stroke="black" points="371.5,-381 371.5,-403 618.5,-403 618.5,-381 371.5,-381"/>
<image xlink:href="../../images/foreignKeys.png" width="11px" height="12px" preserveAspectRatio="xMinYMin meet" x="376.5" y="-398"/>
<text text-anchor="start" x="391.5" y="-389.2" font-family="Helvetica,sans-Serif" font-size="11.00">projectid</text>
<polygon fill="none" stroke="black" points="371.5,-359 371.5,-381 618.5,-381 618.5,-359 371.5,-359"/>
<image xlink:href="../../images/foreignKeys.png" width="11px" height="12px" preserveAspectRatio="xMinYMin meet" x="376.5" y="-376"/>
<text text-anchor="start" x="391.5" y="-367.2" font-family="Helvetica,sans-Serif" font-size="11.00">citationgroupid</text>
<polygon fill="none" stroke="black" points="371.5,-337 371.5,-359 618.5,-359 618.5,-337 371.5,-337"/>
<image xlink:href="../../images/foreignKeys.png" width="11px" height="12px" preserveAspectRatio="xMinYMin meet" x="376.5" y="-354"/>
<text text-anchor="start" x="391.5" y="-345.2" font-family="Helvetica,sans-Serif" font-size="11.00">megabuildupinterfaceid</text>
<polygon fill="none" stroke="black" points="371.5,-315 371.5,-337 618.5,-337 618.5,-315 371.5,-315"/>
<image xlink:href="../../images/foreignKeys.png" width="11px" height="12px" preserveAspectRatio="xMinYMin meet" x="376.5" y="-332"/>
<text text-anchor="start" x="391.5" y="-323.2" font-family="Helvetica,sans-Serif" font-size="11.00">megabuilduptypeid</text>
<polygon fill="none" stroke="black" points="371.5,-293 371.5,-315 618.5,-315 618.5,-293 371.5,-293"/>
<image xlink:href="../../images/foreignKeys.png" width="11px" height="12px" preserveAspectRatio="xMinYMin meet" x="376.5" y="-310"/>
<text text-anchor="start" x="391.5" y="-301.2" font-family="Helvetica,sans-Serif" font-size="11.00">megadepositionalsettingid</text>
<polygon fill="none" stroke="black" points="371.5,-271 371.5,-293 618.5,-293 618.5,-271 371.5,-271"/>
<image xlink:href="../../images/foreignKeys.png" width="11px" height="12px" preserveAspectRatio="xMinYMin meet" x="376.5" y="-288"/>
<text text-anchor="start" x="391.5" y="-279.2" font-family="Helvetica,sans-Serif" font-size="11.00">megahorizontalscaleid</text>
<polygon fill="none" stroke="black" points="371.5,-249 371.5,-271 618.5,-271 618.5,-249 371.5,-249"/>
<image xlink:href="../../images/foreignKeys.png" width="11px" height="12px" preserveAspectRatio="xMinYMin meet" x="376.5" y="-266"/>
<text text-anchor="start" x="391.5" y="-257.2" font-family="Helvetica,sans-Serif" font-size="11.00">megainitiationid</text>
<polygon fill="none" stroke="black" points="371.5,-227 371.5,-249 618.5,-249 618.5,-227 371.5,-227"/>
<image xlink:href="../../images/foreignKeys.png" width="11px" height="12px" preserveAspectRatio="xMinYMin meet" x="376.5" y="-244"/>
<text text-anchor="start" x="391.5" y="-235.2" font-family="Helvetica,sans-Serif" font-size="11.00">megasedinterfaceid</text>
<polygon fill="none" stroke="black" points="371.5,-205 371.5,-227 618.5,-227 618.5,-205 371.5,-205"/>
<image xlink:href="../../images/foreignKeys.png" width="11px" height="12px" preserveAspectRatio="xMinYMin meet" x="376.5" y="-222"/>
<text text-anchor="start" x="391.5" y="-213.2" font-family="Helvetica,sans-Serif" font-size="11.00">megasubstrateid</text>
<polygon fill="none" stroke="black" points="371.5,-183 371.5,-205 618.5,-205 618.5,-183 371.5,-183"/>
<image xlink:href="../../images/foreignKeys.png" width="11px" height="12px" preserveAspectRatio="xMinYMin meet" x="376.5" y="-200"/>
<text text-anchor="start" x="391.5" y="-191.2" font-family="Helvetica,sans-Serif" font-size="11.00">megaverticalscaleid</text>
<polygon fill="none" stroke="black" points="371.5,-161 371.5,-183 618.5,-183 618.5,-161 371.5,-161"/>
<image xlink:href="../../images/foreignKeys.png" width="11px" height="12px" preserveAspectRatio="xMinYMin meet" x="376.5" y="-178"/>
<text text-anchor="start" x="391.5" y="-169.2" font-family="Helvetica,sans-Serif" font-size="11.00">collectionid</text>
<polygon fill="none" stroke="black" points="371.5,-139 371.5,-161 618.5,-161 618.5,-139 371.5,-139"/>
<image xlink:href="../../images/foreignKeys.png" width="11px" height="12px" preserveAspectRatio="xMinYMin meet" x="376.5" y="-156"/>
<text text-anchor="start" x="391.5" y="-147.2" font-family="Helvetica,sans-Serif" font-size="11.00">megainterpretedageunitid</text>
<polygon fill="none" stroke="black" points="371.5,-117 371.5,-139 618.5,-139 618.5,-117 371.5,-117"/>
<image xlink:href="../../images/foreignKeys.png" width="11px" height="12px" preserveAspectRatio="xMinYMin meet" x="376.5" y="-134"/>
<text text-anchor="start" x="391.5" y="-125.2" font-family="Helvetica,sans-Serif" font-size="11.00">megainterpretedagequalifierid</text>
<polygon fill="none" stroke="black" points="371.5,-95 371.5,-117 618.5,-117 618.5,-95 371.5,-95"/>
<image xlink:href="../../images/foreignKeys.png" width="11px" height="12px" preserveAspectRatio="xMinYMin meet" x="376.5" y="-112"/>
<text text-anchor="start" x="391.5" y="-103.2" font-family="Helvetica,sans-Serif" font-size="11.00">megaageinterpretationbasisid</text>
<polygon fill="none" stroke="black" points="371.5,-73 371.5,-95 618.5,-95 618.5,-73 371.5,-73"/>
<image xlink:href="../../images/foreignKeys.png" width="11px" height="12px" preserveAspectRatio="xMinYMin meet" x="376.5" y="-90"/>
<text text-anchor="start" x="391.5" y="-81.2" font-family="Helvetica,sans-Serif" font-size="11.00">megaageconfidenceid</text>
<polygon fill="none" stroke="black" points="371.5,-55 371.5,-73 618.5,-73 618.5,-55 371.5,-55"/>
<text text-anchor="start" x="374.5" y="-61.2" font-family="Helvetica,sans-Serif" font-size="11.00">...</text>
<polygon fill="#ffffff" stroke="transparent" points="371.5,-37 371.5,-55 618.5,-55 618.5,-37 371.5,-37"/>
<polygon fill="none" stroke="black" points="371.5,-37 371.5,-55 618.5,-55 618.5,-37 371.5,-37"/>
<polygon fill="#ffffff" stroke="transparent" points="372.5,-38 372.5,-54 448.5,-54 448.5,-38 372.5,-38"/>
<text text-anchor="start" x="374.5" y="-43.2" font-family="Helvetica,sans-Serif" font-size="11.00">&lt; 13</text>
<polygon fill="#ffffff" stroke="transparent" points="448.5,-38 448.5,-54 548.5,-54 548.5,-38 448.5,-38"/>
<text text-anchor="start" x="473" y="-43.2" font-family="Helvetica,sans-Serif" font-size="11.00">160 rows</text>
<polygon fill="#ffffff" stroke="transparent" points="548.5,-38 548.5,-54 617.5,-54 617.5,-38 548.5,-38"/>
<text text-anchor="start" x="595.5" y="-43.2" font-family="Helvetica,sans-Serif" font-size="11.00">6 &gt;</text>
<polygon fill="black" stroke="black" points="448.5,-38 448.5,-54 448.5,-54 448.5,-38 448.5,-38"/>
<polygon fill="black" stroke="black" points="548.5,-38 548.5,-54 548.5,-54 548.5,-38 548.5,-38"/>
</a>
</g>
</g>
<!-- tlkpmegadepositionalsetting -->
<g id="node2" class="node">
<title>tlkpmegadepositionalsetting</title>
<g id="a_node2"><a xlink:href="../../tables/tlkpmegadepositionalsetting.html" xlink:title="tlkpmegadepositionalsetting" target="_top">
<polygon fill="#ffffff" stroke="transparent" points="8,-229 8,-339 322,-339 322,-229 8,-229"/>
<polygon fill="#f5f5f5" stroke="transparent" points="10,-315 10,-337 320,-337 320,-315 10,-315"/>
<polygon fill="none" stroke="black" points="10,-315 10,-337 320,-337 320,-315 10,-315"/>
<text text-anchor="start" x="15" y="-324.2" font-family="Helvetica,sans-Serif" font-weight="bold" font-size="11.00">tlkpmegadepositionalsetting</text>
<text text-anchor="start" x="278" y="-323.2" font-family="Helvetica,sans-Serif" font-size="11.00">[table]</text>
<polygon fill="none" stroke="black" points="10,-293 10,-315 242,-315 242,-293 10,-293"/>
<image xlink:href="../../images/primaryKeys.png" width="11px" height="12px" preserveAspectRatio="xMinYMin meet" x="15" y="-310"/>
<text text-anchor="start" x="30" y="-301.2" font-family="Helvetica,sans-Serif" font-size="11.00">valueid</text>
<polygon fill="none" stroke="black" points="242,-293 242,-315 320,-315 320,-293 242,-293"/>
<text text-anchor="start" x="245" y="-301.2" font-family="Helvetica,sans-Serif" font-size="11.00">serial[10]</text>
<polygon fill="none" stroke="black" points="10,-271 10,-293 242,-293 242,-271 10,-271"/>
<text text-anchor="start" x="30" y="-279.2" font-family="Helvetica,sans-Serif" font-size="11.00">textfield</text>
<polygon fill="none" stroke="black" points="242,-271 242,-293 320,-293 320,-271 242,-271"/>
<text text-anchor="start" x="245" y="-279.2" font-family="Helvetica,sans-Serif" font-size="11.00">varchar[255]</text>
<polygon fill="none" stroke="black" points="10,-249 10,-271 242,-271 242,-249 10,-249"/>
<text text-anchor="start" x="30" y="-257.2" font-family="Helvetica,sans-Serif" font-size="11.00">sort</text>
<polygon fill="none" stroke="black" points="242,-249 242,-271 320,-271 320,-249 242,-249"/>
<text text-anchor="start" x="245" y="-257.2" font-family="Helvetica,sans-Serif" font-size="11.00">int4[10]</text>
<polygon fill="#ffffff" stroke="transparent" points="10,-231 10,-249 320,-249 320,-231 10,-231"/>
<polygon fill="none" stroke="black" points="10,-231 10,-249 320,-249 320,-231 10,-231"/>
<polygon fill="#ffffff" stroke="transparent" points="11,-232 11,-248 106,-248 106,-232 11,-232"/>
<text text-anchor="start" x="13" y="-237.2" font-family="Helvetica,sans-Serif" font-size="11.00">&lt; 0</text>
<polygon fill="#ffffff" stroke="transparent" points="106,-232 106,-248 225,-248 225,-232 106,-232"/>
<text text-anchor="start" x="143.5" y="-237.2" font-family="Helvetica,sans-Serif" font-size="11.00">17 rows</text>
<polygon fill="#ffffff" stroke="transparent" points="225,-232 225,-248 319,-248 319,-232 225,-232"/>
<text text-anchor="start" x="297" y="-237.2" font-family="Helvetica,sans-Serif" font-size="11.00">1 &gt;</text>
<polygon fill="black" stroke="black" points="106,-232 106,-248 106,-248 106,-232 106,-232"/>
<polygon fill="black" stroke="black" points="225,-232 225,-248 225,-248 225,-232 225,-232"/>
<polygon fill="none" stroke="black" stroke-width="2" points="9,-230 9,-338 321,-338 321,-230 9,-230"/>
</a>
</g>
</g>
<!-- tbl_megastructuredata&#45;&gt;tlkpmegadepositionalsetting -->
<g id="edge1" class="edge">
<title>tbl_megastructuredata:w&#45;&gt;tlkpmegadepositionalsetting:e</title>
<path fill="none" stroke="black" d="M355.84,-304C344.41,-304 337.16,-304 321,-304"/>
<polygon fill="black" stroke="black" points="362.5,-304 370.5,-307.6 366.5,-304 370.5,-304 370.5,-304 370.5,-304 366.5,-304 370.5,-300.4 362.5,-304 362.5,-304"/>
<ellipse fill="none" stroke="black" cx="359.3" cy="-304" rx="3.2" ry="3.2"/>
</g>
</g>
</svg>
