<?xml version="1.0" encoding="UTF-8" standalone="no"?>
<!DOCTYPE svg PUBLIC "-//W3C//DTD SVG 1.1//EN"
 "http://www.w3.org/Graphics/SVG/1.1/DTD/svg11.dtd">
<!-- Generated by graphviz version 2.43.0 (0)
 -->
<!-- Title: oneDegreeRelationshipsDiagram Pages: 1 -->
<svg width="594pt" height="201pt"
 viewBox="0.00 0.00 594.00 201.00" xmlns="http://www.w3.org/2000/svg" xmlns:xlink="http://www.w3.org/1999/xlink">
<g id="graph0" class="graph" transform="scale(1 1) rotate(0) translate(4 197)">
<title>oneDegreeRelationshipsDiagram</title>
<polygon fill="#ffffff" stroke="transparent" points="-4,4 -4,-197 590,-197 590,4 -4,4"/>
<text text-anchor="middle" x="79.5" y="-7.2" font-family="Helvetica,sans-Serif" font-size="11.00">Generated by SchemaSpy</text>
<!-- jtbl_tlkpmicroporositytypes -->
<g id="node1" class="node">
<title>jtbl_tlkpmicroporositytypes</title>
<g id="a_node1"><a xlink:href="../../tables/jtbl_tlkpmicroporositytypes.html" xlink:title="jtbl_tlkpmicroporositytypes" target="_top">
<polygon fill="#ffffff" stroke="transparent" points="330,-83 330,-189 578,-189 578,-83 330,-83"/>
<polygon fill="#f5f5f5" stroke="transparent" points="330,-167 330,-189 578,-189 578,-167 330,-167"/>
<polygon fill="none" stroke="black" points="330,-167 330,-189 578,-189 578,-167 330,-167"/>
<text text-anchor="start" x="335" y="-176.2" font-family="Helvetica,sans-Serif" font-weight="bold" font-size="11.00">jtbl_tlkpmicroporositytypes</text>
<text text-anchor="start" x="536" y="-175.2" font-family="Helvetica,sans-Serif" font-size="11.00">[table]</text>
<polygon fill="none" stroke="black" points="330,-145 330,-167 578,-167 578,-145 330,-145"/>
<image xlink:href="../../images/primaryKeys.png" width="11px" height="12px" preserveAspectRatio="xMinYMin meet" x="335" y="-162"/>
<text text-anchor="start" x="363" y="-153.2" font-family="Helvetica,sans-Serif" font-size="11.00">junctid</text>
<polygon fill="none" stroke="black" points="330,-123 330,-145 578,-145 578,-123 330,-123"/>
<image xlink:href="../../images/foreignKeys.png" width="11px" height="12px" preserveAspectRatio="xMinYMin meet" x="335" y="-140"/>
<text text-anchor="start" x="363" y="-131.2" font-family="Helvetica,sans-Serif" font-size="11.00">microstructureid</text>
<polygon fill="none" stroke="black" points="330,-101 330,-123 578,-123 578,-101 330,-101"/>
<image xlink:href="../../images/foreignKeys.png" width="11px" height="12px" preserveAspectRatio="xMinYMin meet" x="335" y="-118"/>
<text text-anchor="start" x="363" y="-109.2" font-family="Helvetica,sans-Serif" font-size="11.00">fieldvalueid</text>
<polygon fill="#ffffff" stroke="transparent" points="330,-83 330,-101 578,-101 578,-83 330,-83"/>
<polygon fill="none" stroke="black" points="330,-83 330,-101 578,-101 578,-83 330,-83"/>
<polygon fill="#ffffff" stroke="transparent" points="331,-84 331,-100 421,-100 421,-84 331,-84"/>
<text text-anchor="start" x="333" y="-89.2" font-family="Helvetica,sans-Serif" font-size="11.00">&lt; 2</text>
<polygon fill="#ffffff" stroke="transparent" points="421,-84 421,-100 499,-100 499,-84 421,-84"/>
<text text-anchor="start" x="456" y="-89.2" font-family="Helvetica,sans-Serif" font-size="11.00"> &#160;</text>
<polygon fill="#ffffff" stroke="transparent" points="499,-84 499,-100 577,-100 577,-84 499,-84"/>
<text text-anchor="start" x="567" y="-89.2" font-family="Helvetica,sans-Serif" font-size="11.00"> &#160;</text>
<polygon fill="black" stroke="black" points="421,-84 421,-100 421,-100 421,-84 421,-84"/>
<polygon fill="black" stroke="black" points="499,-84 499,-100 499,-100 499,-84 499,-84"/>
</a>
</g>
</g>
<!-- tlkpmicroporositytypes -->
<g id="node2" class="node">
<title>tlkpmicroporositytypes</title>
<g id="a_node2"><a xlink:href="../../tables/tlkpmicroporositytypes.html" xlink:title="tlkpmicroporositytypes" target="_top">
<polygon fill="#ffffff" stroke="transparent" points="8,-37 8,-147 281,-147 281,-37 8,-37"/>
<polygon fill="#f5f5f5" stroke="transparent" points="10.5,-123 10.5,-145 279.5,-145 279.5,-123 10.5,-123"/>
<polygon fill="none" stroke="black" points="10.5,-123 10.5,-145 279.5,-145 279.5,-123 10.5,-123"/>
<text text-anchor="start" x="15.5" y="-132.2" font-family="Helvetica,sans-Serif" font-weight="bold" font-size="11.00">tlkpmicroporositytypes</text>
<text text-anchor="start" x="237.5" y="-131.2" font-family="Helvetica,sans-Serif" font-size="11.00">[table]</text>
<polygon fill="none" stroke="black" points="10.5,-101 10.5,-123 201.5,-123 201.5,-101 10.5,-101"/>
<image xlink:href="../../images/primaryKeys.png" width="11px" height="12px" preserveAspectRatio="xMinYMin meet" x="15.5" y="-118"/>
<text text-anchor="start" x="30.5" y="-109.2" font-family="Helvetica,sans-Serif" font-size="11.00">valueid</text>
<polygon fill="none" stroke="black" points="201.5,-101 201.5,-123 279.5,-123 279.5,-101 201.5,-101"/>
<text text-anchor="start" x="204.5" y="-109.2" font-family="Helvetica,sans-Serif" font-size="11.00">serial[10]</text>
<polygon fill="none" stroke="black" points="10.5,-79 10.5,-101 201.5,-101 201.5,-79 10.5,-79"/>
<text text-anchor="start" x="30.5" y="-87.2" font-family="Helvetica,sans-Serif" font-size="11.00">textfield</text>
<polygon fill="none" stroke="black" points="201.5,-79 201.5,-101 279.5,-101 279.5,-79 201.5,-79"/>
<text text-anchor="start" x="204.5" y="-87.2" font-family="Helvetica,sans-Serif" font-size="11.00">varchar[255]</text>
<polygon fill="none" stroke="black" points="10.5,-57 10.5,-79 201.5,-79 201.5,-57 10.5,-57"/>
<text text-anchor="start" x="30.5" y="-65.2" font-family="Helvetica,sans-Serif" font-size="11.00">sort</text>
<polygon fill="none" stroke="black" points="201.5,-57 201.5,-79 279.5,-79 279.5,-57 201.5,-57"/>
<text text-anchor="start" x="204.5" y="-65.2" font-family="Helvetica,sans-Serif" font-size="11.00">int4[10]</text>
<polygon fill="#ffffff" stroke="transparent" points="10.5,-39 10.5,-57 279.5,-57 279.5,-39 10.5,-39"/>
<polygon fill="none" stroke="black" points="10.5,-39 10.5,-57 279.5,-57 279.5,-39 10.5,-39"/>
<polygon fill="#ffffff" stroke="transparent" points="11.5,-40 11.5,-56 92.5,-56 92.5,-40 11.5,-40"/>
<text text-anchor="start" x="13.5" y="-45.2" font-family="Helvetica,sans-Serif" font-size="11.00">&lt; 0</text>
<polygon fill="#ffffff" stroke="transparent" points="92.5,-40 92.5,-56 197.5,-56 197.5,-40 92.5,-40"/>
<text text-anchor="start" x="123" y="-45.2" font-family="Helvetica,sans-Serif" font-size="11.00">16 rows</text>
<polygon fill="#ffffff" stroke="transparent" points="197.5,-40 197.5,-56 278.5,-56 278.5,-40 197.5,-40"/>
<text text-anchor="start" x="256.5" y="-45.2" font-family="Helvetica,sans-Serif" font-size="11.00">1 &gt;</text>
<polygon fill="black" stroke="black" points="92.5,-40 92.5,-56 92.5,-56 92.5,-40 92.5,-40"/>
<polygon fill="black" stroke="black" points="197.5,-40 197.5,-56 197.5,-56 197.5,-40 197.5,-40"/>
<polygon fill="none" stroke="black" stroke-width="2" points="9,-38 9,-146 280,-146 280,-38 9,-38"/>
</a>
</g>
</g>
<!-- jtbl_tlkpmicroporositytypes&#45;&gt;tlkpmicroporositytypes -->
<g id="edge1" class="edge">
<title>jtbl_tlkpmicroporositytypes:w&#45;&gt;tlkpmicroporositytypes:e</title>
<path fill="none" stroke="black" d="M314.28,-112C303.29,-112 296.16,-112 280.5,-112"/>
<polygon fill="black" stroke="black" points="321,-112 329,-115.6 325,-112 329,-112 329,-112 329,-112 325,-112 329,-108.4 321,-112 321,-112"/>
<ellipse fill="none" stroke="black" cx="317.8" cy="-112" rx="3.2" ry="3.2"/>
</g>
</g>
</svg>
