<?xml version="1.0" encoding="UTF-8" standalone="no"?>
<!DOCTYPE svg PUBLIC "-//W3C//DTD SVG 1.1//EN"
 "http://www.w3.org/Graphics/SVG/1.1/DTD/svg11.dtd">
<!-- Generated by graphviz version 2.43.0 (0)
 -->
<!-- Title: oneDegreeRelationshipsDiagram Pages: 1 -->
<svg width="886pt" height="586pt"
 viewBox="0.00 0.00 886.00 586.00" xmlns="http://www.w3.org/2000/svg" xmlns:xlink="http://www.w3.org/1999/xlink">
<g id="graph0" class="graph" transform="scale(1 1) rotate(0) translate(4 582)">
<title>oneDegreeRelationshipsDiagram</title>
<polygon fill="#ffffff" stroke="transparent" points="-4,4 -4,-582 882,-582 882,4 -4,4"/>
<text text-anchor="middle" x="79.5" y="-7.2" font-family="Helvetica,sans-Serif" font-size="11.00">Generated by SchemaSpy</text>
<!-- jtbl_project_citations -->
<g id="node1" class="node">
<title>jtbl_project_citations</title>
<g id="a_node1"><a xlink:href="../../tables/jtbl_project_citations.html" xlink:title="jtbl_project_citations" target="_top">
<polygon fill="#ffffff" stroke="transparent" points="646.5,-468 646.5,-574 846.5,-574 846.5,-468 646.5,-468"/>
<polygon fill="#f5f5f5" stroke="transparent" points="646.5,-552 646.5,-574 846.5,-574 846.5,-552 646.5,-552"/>
<polygon fill="none" stroke="black" points="646.5,-552 646.5,-574 846.5,-574 846.5,-552 646.5,-552"/>
<text text-anchor="start" x="651.5" y="-561.2" font-family="Helvetica,sans-Serif" font-weight="bold" font-size="11.00">jtbl_project_citations</text>
<text text-anchor="start" x="804.5" y="-560.2" font-family="Helvetica,sans-Serif" font-size="11.00">[table]</text>
<polygon fill="none" stroke="black" points="646.5,-530 646.5,-552 846.5,-552 846.5,-530 646.5,-530"/>
<image xlink:href="../../images/primaryKeys.png" width="11px" height="12px" preserveAspectRatio="xMinYMin meet" x="651.5" y="-547"/>
<text text-anchor="start" x="679.5" y="-538.2" font-family="Helvetica,sans-Serif" font-size="11.00">junctid</text>
<polygon fill="#ffffff" stroke="transparent" points="646.5,-508 646.5,-530 846.5,-530 846.5,-508 646.5,-508"/>
<polygon fill="none" stroke="black" points="646.5,-508 646.5,-530 846.5,-530 846.5,-508 646.5,-508"/>
<image xlink:href="../../images/foreignKeys.png" width="11px" height="12px" preserveAspectRatio="xMinYMin meet" x="651.5" y="-525"/>
<text text-anchor="start" x="679.5" y="-516.2" font-family="Helvetica,sans-Serif" font-size="11.00">projectid</text>
<polygon fill="#ffffff" stroke="transparent" points="646.5,-486 646.5,-508 846.5,-508 846.5,-486 646.5,-486"/>
<polygon fill="none" stroke="black" points="646.5,-486 646.5,-508 846.5,-508 846.5,-486 646.5,-486"/>
<image xlink:href="../../images/foreignKeys.png" width="11px" height="12px" preserveAspectRatio="xMinYMin meet" x="651.5" y="-503"/>
<text text-anchor="start" x="679.5" y="-494.2" font-family="Helvetica,sans-Serif" font-size="11.00">citationid</text>
<polygon fill="#ffffff" stroke="transparent" points="646.5,-468 646.5,-486 846.5,-486 846.5,-468 646.5,-468"/>
<polygon fill="none" stroke="black" points="646.5,-468 646.5,-486 846.5,-486 846.5,-468 646.5,-468"/>
<polygon fill="#ffffff" stroke="transparent" points="647.5,-469 647.5,-485 721.5,-485 721.5,-469 647.5,-469"/>
<text text-anchor="start" x="649.5" y="-474.2" font-family="Helvetica,sans-Serif" font-size="11.00">&lt; 2</text>
<polygon fill="#ffffff" stroke="transparent" points="721.5,-469 721.5,-485 783.5,-485 783.5,-469 721.5,-469"/>
<text text-anchor="start" x="748.5" y="-474.2" font-family="Helvetica,sans-Serif" font-size="11.00"> &#160;</text>
<polygon fill="#ffffff" stroke="transparent" points="783.5,-469 783.5,-485 845.5,-485 845.5,-469 783.5,-469"/>
<text text-anchor="start" x="835.5" y="-474.2" font-family="Helvetica,sans-Serif" font-size="11.00"> &#160;</text>
<polygon fill="black" stroke="black" points="721.5,-469 721.5,-485 721.5,-485 721.5,-469 721.5,-469"/>
<polygon fill="black" stroke="black" points="783.5,-469 783.5,-485 783.5,-485 783.5,-469 783.5,-469"/>
</a>
</g>
</g>
<!-- tbl_projectdata -->
<g id="node2" class="node">
<title>tbl_projectdata</title>
<g id="a_node2"><a xlink:href="../../tables/tbl_projectdata.html" xlink:title="tbl_projectdata" target="_top">
<polygon fill="#ffffff" stroke="transparent" points="295,-138 295,-490 574,-490 574,-138 295,-138"/>
<polygon fill="#f5f5f5" stroke="transparent" points="297.5,-466 297.5,-488 572.5,-488 572.5,-466 297.5,-466"/>
<polygon fill="none" stroke="black" points="297.5,-466 297.5,-488 572.5,-488 572.5,-466 297.5,-466"/>
<text text-anchor="start" x="302.5" y="-475.2" font-family="Helvetica,sans-Serif" font-weight="bold" font-size="11.00">tbl_projectdata</text>
<text text-anchor="start" x="530.5" y="-474.2" font-family="Helvetica,sans-Serif" font-size="11.00">[table]</text>
<polygon fill="none" stroke="black" points="297.5,-444 297.5,-466 494.5,-466 494.5,-444 297.5,-444"/>
<image xlink:href="../../images/primaryKeys.png" width="11px" height="12px" preserveAspectRatio="xMinYMin meet" x="302.5" y="-461"/>
<text text-anchor="start" x="317.5" y="-452.2" font-family="Helvetica,sans-Serif" font-size="11.00">projectid</text>
<polygon fill="none" stroke="black" points="494.5,-444 494.5,-466 572.5,-466 572.5,-444 494.5,-444"/>
<text text-anchor="start" x="497.5" y="-452.2" font-family="Helvetica,sans-Serif" font-size="11.00">serial[10]</text>
<polygon fill="none" stroke="black" points="297.5,-422 297.5,-444 494.5,-444 494.5,-422 297.5,-422"/>
<text text-anchor="start" x="317.5" y="-430.2" font-family="Helvetica,sans-Serif" font-size="11.00">projectname</text>
<polygon fill="none" stroke="black" points="494.5,-422 494.5,-444 572.5,-444 572.5,-422 494.5,-422"/>
<text text-anchor="start" x="497.5" y="-430.2" font-family="Helvetica,sans-Serif" font-size="11.00">varchar[255]</text>
<polygon fill="none" stroke="black" points="297.5,-400 297.5,-422 494.5,-422 494.5,-400 297.5,-400"/>
<text text-anchor="start" x="317.5" y="-408.2" font-family="Helvetica,sans-Serif" font-size="11.00">principalinvestigator</text>
<polygon fill="none" stroke="black" points="494.5,-400 494.5,-422 572.5,-422 572.5,-400 494.5,-400"/>
<text text-anchor="start" x="497.5" y="-408.2" font-family="Helvetica,sans-Serif" font-size="11.00">varchar[255]</text>
<polygon fill="none" stroke="black" points="297.5,-378 297.5,-400 494.5,-400 494.5,-378 297.5,-378"/>
<text text-anchor="start" x="317.5" y="-386.2" font-family="Helvetica,sans-Serif" font-size="11.00">siteorlocationname</text>
<polygon fill="none" stroke="black" points="494.5,-378 494.5,-400 572.5,-400 572.5,-378 494.5,-378"/>
<text text-anchor="start" x="497.5" y="-386.2" font-family="Helvetica,sans-Serif" font-size="11.00">varchar[255]</text>
<polygon fill="none" stroke="black" points="297.5,-356 297.5,-378 494.5,-378 494.5,-356 297.5,-356"/>
<text text-anchor="start" x="317.5" y="-364.2" font-family="Helvetica,sans-Serif" font-size="11.00">startdate</text>
<polygon fill="none" stroke="black" points="494.5,-356 494.5,-378 572.5,-378 572.5,-356 494.5,-356"/>
<text text-anchor="start" x="497.5" y="-364.2" font-family="Helvetica,sans-Serif" font-size="11.00">date[13]</text>
<polygon fill="none" stroke="black" points="297.5,-334 297.5,-356 494.5,-356 494.5,-334 297.5,-334"/>
<text text-anchor="start" x="317.5" y="-342.2" font-family="Helvetica,sans-Serif" font-size="11.00">enddate</text>
<polygon fill="none" stroke="black" points="494.5,-334 494.5,-356 572.5,-356 572.5,-334 494.5,-334"/>
<text text-anchor="start" x="497.5" y="-342.2" font-family="Helvetica,sans-Serif" font-size="11.00">date[13]</text>
<polygon fill="none" stroke="black" points="297.5,-312 297.5,-334 494.5,-334 494.5,-312 297.5,-312"/>
<text text-anchor="start" x="317.5" y="-320.2" font-family="Helvetica,sans-Serif" font-size="11.00">instrumentsused</text>
<polygon fill="none" stroke="black" points="494.5,-312 494.5,-334 572.5,-334 572.5,-312 494.5,-312"/>
<text text-anchor="start" x="497.5" y="-320.2" font-family="Helvetica,sans-Serif" font-size="11.00">varchar[255]</text>
<polygon fill="none" stroke="black" points="297.5,-290 297.5,-312 494.5,-312 494.5,-290 297.5,-290"/>
<text text-anchor="start" x="317.5" y="-298.2" font-family="Helvetica,sans-Serif" font-size="11.00">orcid</text>
<polygon fill="none" stroke="black" points="494.5,-290 494.5,-312 572.5,-312 572.5,-290 494.5,-290"/>
<text text-anchor="start" x="497.5" y="-298.2" font-family="Helvetica,sans-Serif" font-size="11.00">varchar[255]</text>
<polygon fill="none" stroke="black" points="297.5,-268 297.5,-290 494.5,-290 494.5,-268 297.5,-268"/>
<text text-anchor="start" x="317.5" y="-276.2" font-family="Helvetica,sans-Serif" font-size="11.00">otherteammembers</text>
<polygon fill="none" stroke="black" points="494.5,-268 494.5,-290 572.5,-290 572.5,-268 494.5,-268"/>
<text text-anchor="start" x="497.5" y="-276.2" font-family="Helvetica,sans-Serif" font-size="11.00">varchar[255]</text>
<polygon fill="none" stroke="black" points="297.5,-246 297.5,-268 494.5,-268 494.5,-246 297.5,-246"/>
<text text-anchor="start" x="317.5" y="-254.2" font-family="Helvetica,sans-Serif" font-size="11.00">areaofinterest</text>
<polygon fill="none" stroke="black" points="494.5,-246 494.5,-268 572.5,-268 572.5,-246 494.5,-246"/>
<text text-anchor="start" x="497.5" y="-254.2" font-family="Helvetica,sans-Serif" font-size="11.00">varchar[255]</text>
<polygon fill="none" stroke="black" points="297.5,-224 297.5,-246 494.5,-246 494.5,-224 297.5,-224"/>
<text text-anchor="start" x="317.5" y="-232.2" font-family="Helvetica,sans-Serif" font-size="11.00">purposeofstudy</text>
<polygon fill="none" stroke="black" points="494.5,-224 494.5,-246 572.5,-246 572.5,-224 494.5,-224"/>
<text text-anchor="start" x="497.5" y="-232.2" font-family="Helvetica,sans-Serif" font-size="11.00">varchar[255]</text>
<polygon fill="none" stroke="black" points="297.5,-202 297.5,-224 494.5,-224 494.5,-202 297.5,-202"/>
<text text-anchor="start" x="317.5" y="-210.2" font-family="Helvetica,sans-Serif" font-size="11.00">fundingsource</text>
<polygon fill="none" stroke="black" points="494.5,-202 494.5,-224 572.5,-224 572.5,-202 494.5,-202"/>
<text text-anchor="start" x="497.5" y="-210.2" font-family="Helvetica,sans-Serif" font-size="11.00">varchar[255]</text>
<polygon fill="none" stroke="black" points="297.5,-180 297.5,-202 494.5,-202 494.5,-180 297.5,-180"/>
<text text-anchor="start" x="317.5" y="-188.2" font-family="Helvetica,sans-Serif" font-size="11.00">grantid</text>
<polygon fill="none" stroke="black" points="494.5,-180 494.5,-202 572.5,-202 572.5,-180 494.5,-180"/>
<text text-anchor="start" x="497.5" y="-188.2" font-family="Helvetica,sans-Serif" font-size="11.00">varchar[255]</text>
<polygon fill="none" stroke="black" points="297.5,-158 297.5,-180 494.5,-180 494.5,-158 297.5,-158"/>
<image xlink:href="../../images/foreignKeys.png" width="11px" height="12px" preserveAspectRatio="xMinYMin meet" x="302.5" y="-175"/>
<text text-anchor="start" x="317.5" y="-166.2" font-family="Helvetica,sans-Serif" font-size="11.00">projecttectonicsettingid</text>
<polygon fill="none" stroke="black" points="494.5,-158 494.5,-180 572.5,-180 572.5,-158 494.5,-158"/>
<text text-anchor="start" x="497.5" y="-166.2" font-family="Helvetica,sans-Serif" font-size="11.00">int4[10]</text>
<polygon fill="#ffffff" stroke="transparent" points="297.5,-140 297.5,-158 572.5,-158 572.5,-140 297.5,-140"/>
<polygon fill="none" stroke="black" points="297.5,-140 297.5,-158 572.5,-158 572.5,-140 297.5,-140"/>
<polygon fill="#ffffff" stroke="transparent" points="298.5,-141 298.5,-157 381.5,-157 381.5,-141 298.5,-141"/>
<text text-anchor="start" x="300.5" y="-146.2" font-family="Helvetica,sans-Serif" font-size="11.00">&lt; 1</text>
<polygon fill="#ffffff" stroke="transparent" points="381.5,-141 381.5,-157 488.5,-157 488.5,-141 381.5,-141"/>
<text text-anchor="start" x="413" y="-146.2" font-family="Helvetica,sans-Serif" font-size="11.00">12 rows</text>
<polygon fill="#ffffff" stroke="transparent" points="488.5,-141 488.5,-157 571.5,-157 571.5,-141 488.5,-141"/>
<text text-anchor="start" x="549.5" y="-146.2" font-family="Helvetica,sans-Serif" font-size="11.00">2 &gt;</text>
<polygon fill="black" stroke="black" points="381.5,-141 381.5,-157 381.5,-157 381.5,-141 381.5,-141"/>
<polygon fill="black" stroke="black" points="488.5,-141 488.5,-157 488.5,-157 488.5,-141 488.5,-141"/>
<polygon fill="none" stroke="black" stroke-width="2" points="296,-139 296,-489 573,-489 573,-139 296,-139"/>
</a>
</g>
</g>
<!-- jtbl_project_citations&#45;&gt;tbl_projectdata -->
<g id="edge1" class="edge">
<title>jtbl_project_citations:w&#45;&gt;tbl_projectdata:e</title>
<path fill="none" stroke="black" d="M631.16,-515.91C605.31,-503.13 610.63,-455 573.5,-455"/>
<polygon fill="black" stroke="black" points="637.68,-517.32 644.74,-522.52 641.59,-518.16 645.5,-519 645.5,-519 645.5,-519 641.59,-518.16 646.26,-515.48 637.68,-517.32 637.68,-517.32"/>
<ellipse fill="none" stroke="black" cx="634.55" cy="-516.64" rx="3.2" ry="3.2"/>
</g>
<!-- tlkpprojecttectonicsetting -->
<g id="node4" class="node">
<title>tlkpprojecttectonicsetting</title>
<g id="a_node4"><a xlink:href="../../tables/tlkpprojecttectonicsetting.html" xlink:title="tlkpprojecttectonicsetting" target="_top">
<polygon fill="#ffffff" stroke="transparent" points="8,-122 8,-202 246,-202 246,-122 8,-122"/>
<polygon fill="#f5f5f5" stroke="transparent" points="8,-180 8,-202 246,-202 246,-180 8,-180"/>
<polygon fill="none" stroke="black" points="8,-180 8,-202 246,-202 246,-180 8,-180"/>
<text text-anchor="start" x="13" y="-189.2" font-family="Helvetica,sans-Serif" font-weight="bold" font-size="11.00">tlkpprojecttectonicsetting</text>
<text text-anchor="start" x="204" y="-188.2" font-family="Helvetica,sans-Serif" font-size="11.00">[table]</text>
<polygon fill="none" stroke="black" points="8,-158 8,-180 246,-180 246,-158 8,-158"/>
<image xlink:href="../../images/primaryKeys.png" width="11px" height="12px" preserveAspectRatio="xMinYMin meet" x="13" y="-175"/>
<text text-anchor="start" x="41" y="-166.2" font-family="Helvetica,sans-Serif" font-size="11.00">valueid</text>
<polygon fill="none" stroke="black" points="8,-140 8,-158 246,-158 246,-140 8,-140"/>
<text text-anchor="start" x="11" y="-146.2" font-family="Helvetica,sans-Serif" font-size="11.00">...</text>
<polygon fill="#ffffff" stroke="transparent" points="8,-122 8,-140 246,-140 246,-122 8,-122"/>
<polygon fill="none" stroke="black" points="8,-122 8,-140 246,-140 246,-122 8,-122"/>
<polygon fill="#ffffff" stroke="transparent" points="9,-123 9,-139 74,-139 74,-123 9,-123"/>
<text text-anchor="start" x="11" y="-128.2" font-family="Helvetica,sans-Serif" font-size="11.00"> &#160;</text>
<polygon fill="#ffffff" stroke="transparent" points="74,-123 74,-139 168,-139 168,-123 74,-123"/>
<text text-anchor="start" x="102.5" y="-128.2" font-family="Helvetica,sans-Serif" font-size="11.00">8 rows</text>
<polygon fill="#ffffff" stroke="transparent" points="168,-123 168,-139 245,-139 245,-123 168,-123"/>
<text text-anchor="start" x="223" y="-128.2" font-family="Helvetica,sans-Serif" font-size="11.00">1 &gt;</text>
<polygon fill="black" stroke="black" points="74,-123 74,-139 74,-139 74,-123 74,-123"/>
<polygon fill="black" stroke="black" points="168,-123 168,-139 168,-139 168,-123 168,-123"/>
</a>
</g>
</g>
<!-- tbl_projectdata&#45;&gt;tlkpprojecttectonicsetting -->
<g id="edge3" class="edge">
<title>tbl_projectdata:w&#45;&gt;tlkpprojecttectonicsetting:e</title>
<path fill="none" stroke="black" d="M281.84,-169C270.41,-169 263.16,-169 247,-169"/>
<polygon fill="black" stroke="black" points="288.5,-169 296.5,-172.6 292.5,-169 296.5,-169 296.5,-169 296.5,-169 292.5,-169 296.5,-165.4 288.5,-169 288.5,-169"/>
<ellipse fill="none" stroke="black" cx="285.3" cy="-169" rx="3.2" ry="3.2"/>
</g>
<!-- tbl_megastructuredata -->
<g id="node3" class="node">
<title>tbl_megastructuredata</title>
<g id="a_node3"><a xlink:href="../../tables/tbl_megastructuredata.html" xlink:title="tbl_megastructuredata" target="_top">
<polygon fill="#ffffff" stroke="transparent" points="623,-37 623,-447 870,-447 870,-37 623,-37"/>
<polygon fill="#f5f5f5" stroke="transparent" points="623.5,-425 623.5,-447 870.5,-447 870.5,-425 623.5,-425"/>
<polygon fill="none" stroke="black" points="623.5,-425 623.5,-447 870.5,-447 870.5,-425 623.5,-425"/>
<text text-anchor="start" x="628.5" y="-434.2" font-family="Helvetica,sans-Serif" font-weight="bold" font-size="11.00">tbl_megastructuredata</text>
<text text-anchor="start" x="828.5" y="-433.2" font-family="Helvetica,sans-Serif" font-size="11.00">[table]</text>
<polygon fill="none" stroke="black" points="623.5,-403 623.5,-425 870.5,-425 870.5,-403 623.5,-403"/>
<image xlink:href="../../images/primaryKeys.png" width="11px" height="12px" preserveAspectRatio="xMinYMin meet" x="628.5" y="-420"/>
<text text-anchor="start" x="643.5" y="-411.2" font-family="Helvetica,sans-Serif" font-size="11.00">megastructureid</text>
<polygon fill="none" stroke="black" points="623.5,-381 623.5,-403 870.5,-403 870.5,-381 623.5,-381"/>
<image xlink:href="../../images/foreignKeys.png" width="11px" height="12px" preserveAspectRatio="xMinYMin meet" x="628.5" y="-398"/>
<text text-anchor="start" x="643.5" y="-389.2" font-family="Helvetica,sans-Serif" font-size="11.00">projectid</text>
<polygon fill="none" stroke="black" points="623.5,-359 623.5,-381 870.5,-381 870.5,-359 623.5,-359"/>
<image xlink:href="../../images/foreignKeys.png" width="11px" height="12px" preserveAspectRatio="xMinYMin meet" x="628.5" y="-376"/>
<text text-anchor="start" x="643.5" y="-367.2" font-family="Helvetica,sans-Serif" font-size="11.00">citationgroupid</text>
<polygon fill="none" stroke="black" points="623.5,-337 623.5,-359 870.5,-359 870.5,-337 623.5,-337"/>
<image xlink:href="../../images/foreignKeys.png" width="11px" height="12px" preserveAspectRatio="xMinYMin meet" x="628.5" y="-354"/>
<text text-anchor="start" x="643.5" y="-345.2" font-family="Helvetica,sans-Serif" font-size="11.00">megabuildupinterfaceid</text>
<polygon fill="none" stroke="black" points="623.5,-315 623.5,-337 870.5,-337 870.5,-315 623.5,-315"/>
<image xlink:href="../../images/foreignKeys.png" width="11px" height="12px" preserveAspectRatio="xMinYMin meet" x="628.5" y="-332"/>
<text text-anchor="start" x="643.5" y="-323.2" font-family="Helvetica,sans-Serif" font-size="11.00">megabuilduptypeid</text>
<polygon fill="none" stroke="black" points="623.5,-293 623.5,-315 870.5,-315 870.5,-293 623.5,-293"/>
<image xlink:href="../../images/foreignKeys.png" width="11px" height="12px" preserveAspectRatio="xMinYMin meet" x="628.5" y="-310"/>
<text text-anchor="start" x="643.5" y="-301.2" font-family="Helvetica,sans-Serif" font-size="11.00">megadepositionalsettingid</text>
<polygon fill="none" stroke="black" points="623.5,-271 623.5,-293 870.5,-293 870.5,-271 623.5,-271"/>
<image xlink:href="../../images/foreignKeys.png" width="11px" height="12px" preserveAspectRatio="xMinYMin meet" x="628.5" y="-288"/>
<text text-anchor="start" x="643.5" y="-279.2" font-family="Helvetica,sans-Serif" font-size="11.00">megahorizontalscaleid</text>
<polygon fill="none" stroke="black" points="623.5,-249 623.5,-271 870.5,-271 870.5,-249 623.5,-249"/>
<image xlink:href="../../images/foreignKeys.png" width="11px" height="12px" preserveAspectRatio="xMinYMin meet" x="628.5" y="-266"/>
<text text-anchor="start" x="643.5" y="-257.2" font-family="Helvetica,sans-Serif" font-size="11.00">megainitiationid</text>
<polygon fill="none" stroke="black" points="623.5,-227 623.5,-249 870.5,-249 870.5,-227 623.5,-227"/>
<image xlink:href="../../images/foreignKeys.png" width="11px" height="12px" preserveAspectRatio="xMinYMin meet" x="628.5" y="-244"/>
<text text-anchor="start" x="643.5" y="-235.2" font-family="Helvetica,sans-Serif" font-size="11.00">megasedinterfaceid</text>
<polygon fill="none" stroke="black" points="623.5,-205 623.5,-227 870.5,-227 870.5,-205 623.5,-205"/>
<image xlink:href="../../images/foreignKeys.png" width="11px" height="12px" preserveAspectRatio="xMinYMin meet" x="628.5" y="-222"/>
<text text-anchor="start" x="643.5" y="-213.2" font-family="Helvetica,sans-Serif" font-size="11.00">megasubstrateid</text>
<polygon fill="none" stroke="black" points="623.5,-183 623.5,-205 870.5,-205 870.5,-183 623.5,-183"/>
<image xlink:href="../../images/foreignKeys.png" width="11px" height="12px" preserveAspectRatio="xMinYMin meet" x="628.5" y="-200"/>
<text text-anchor="start" x="643.5" y="-191.2" font-family="Helvetica,sans-Serif" font-size="11.00">megaverticalscaleid</text>
<polygon fill="none" stroke="black" points="623.5,-161 623.5,-183 870.5,-183 870.5,-161 623.5,-161"/>
<image xlink:href="../../images/foreignKeys.png" width="11px" height="12px" preserveAspectRatio="xMinYMin meet" x="628.5" y="-178"/>
<text text-anchor="start" x="643.5" y="-169.2" font-family="Helvetica,sans-Serif" font-size="11.00">collectionid</text>
<polygon fill="none" stroke="black" points="623.5,-139 623.5,-161 870.5,-161 870.5,-139 623.5,-139"/>
<image xlink:href="../../images/foreignKeys.png" width="11px" height="12px" preserveAspectRatio="xMinYMin meet" x="628.5" y="-156"/>
<text text-anchor="start" x="643.5" y="-147.2" font-family="Helvetica,sans-Serif" font-size="11.00">megainterpretedageunitid</text>
<polygon fill="none" stroke="black" points="623.5,-117 623.5,-139 870.5,-139 870.5,-117 623.5,-117"/>
<image xlink:href="../../images/foreignKeys.png" width="11px" height="12px" preserveAspectRatio="xMinYMin meet" x="628.5" y="-134"/>
<text text-anchor="start" x="643.5" y="-125.2" font-family="Helvetica,sans-Serif" font-size="11.00">megainterpretedagequalifierid</text>
<polygon fill="none" stroke="black" points="623.5,-95 623.5,-117 870.5,-117 870.5,-95 623.5,-95"/>
<image xlink:href="../../images/foreignKeys.png" width="11px" height="12px" preserveAspectRatio="xMinYMin meet" x="628.5" y="-112"/>
<text text-anchor="start" x="643.5" y="-103.2" font-family="Helvetica,sans-Serif" font-size="11.00">megaageinterpretationbasisid</text>
<polygon fill="none" stroke="black" points="623.5,-73 623.5,-95 870.5,-95 870.5,-73 623.5,-73"/>
<image xlink:href="../../images/foreignKeys.png" width="11px" height="12px" preserveAspectRatio="xMinYMin meet" x="628.5" y="-90"/>
<text text-anchor="start" x="643.5" y="-81.2" font-family="Helvetica,sans-Serif" font-size="11.00">megaageconfidenceid</text>
<polygon fill="none" stroke="black" points="623.5,-55 623.5,-73 870.5,-73 870.5,-55 623.5,-55"/>
<text text-anchor="start" x="626.5" y="-61.2" font-family="Helvetica,sans-Serif" font-size="11.00">...</text>
<polygon fill="#ffffff" stroke="transparent" points="623.5,-37 623.5,-55 870.5,-55 870.5,-37 623.5,-37"/>
<polygon fill="none" stroke="black" points="623.5,-37 623.5,-55 870.5,-55 870.5,-37 623.5,-37"/>
<polygon fill="#ffffff" stroke="transparent" points="624.5,-38 624.5,-54 700.5,-54 700.5,-38 624.5,-38"/>
<text text-anchor="start" x="626.5" y="-43.2" font-family="Helvetica,sans-Serif" font-size="11.00">&lt; 13</text>
<polygon fill="#ffffff" stroke="transparent" points="700.5,-38 700.5,-54 800.5,-54 800.5,-38 700.5,-38"/>
<text text-anchor="start" x="725" y="-43.2" font-family="Helvetica,sans-Serif" font-size="11.00">160 rows</text>
<polygon fill="#ffffff" stroke="transparent" points="800.5,-38 800.5,-54 869.5,-54 869.5,-38 800.5,-38"/>
<text text-anchor="start" x="847.5" y="-43.2" font-family="Helvetica,sans-Serif" font-size="11.00">6 &gt;</text>
<polygon fill="black" stroke="black" points="700.5,-38 700.5,-54 700.5,-54 700.5,-38 700.5,-38"/>
<polygon fill="black" stroke="black" points="800.5,-38 800.5,-54 800.5,-54 800.5,-38 800.5,-38"/>
</a>
</g>
</g>
<!-- tbl_megastructuredata&#45;&gt;tbl_projectdata -->
<g id="edge2" class="edge">
<title>tbl_megastructuredata:w&#45;&gt;tbl_projectdata:e</title>
<path fill="none" stroke="black" d="M608.72,-396.94C592.88,-411.8 602.88,-455 573.5,-455"/>
<polygon fill="black" stroke="black" points="614.97,-394.7 623.72,-395.39 618.73,-393.35 622.5,-392 622.5,-392 622.5,-392 618.73,-393.35 621.28,-388.61 614.97,-394.7 614.97,-394.7"/>
<ellipse fill="none" stroke="black" cx="611.96" cy="-395.78" rx="3.2" ry="3.2"/>
</g>
</g>
</svg>
