<?xml version="1.0" encoding="UTF-8" standalone="no"?>
<!DOCTYPE svg PUBLIC "-//W3C//DTD SVG 1.1//EN"
 "http://www.w3.org/Graphics/SVG/1.1/DTD/svg11.dtd">
<!-- Generated by graphviz version 2.43.0 (0)
 -->
<!-- Title: oneDegreeRelationshipsDiagram Pages: 1 -->
<svg width="470pt" height="179pt"
 viewBox="0.00 0.00 470.00 179.00" xmlns="http://www.w3.org/2000/svg" xmlns:xlink="http://www.w3.org/1999/xlink">
<g id="graph0" class="graph" transform="scale(1 1) rotate(0) translate(4 175)">
<title>oneDegreeRelationshipsDiagram</title>
<polygon fill="#ffffff" stroke="transparent" points="-4,4 -4,-175 466,-175 466,4 -4,4"/>
<text text-anchor="middle" x="79.5" y="-7.2" font-family="Helvetica,sans-Serif" font-size="11.00">Generated by SchemaSpy</text>
<!-- jtbl_tlkpmesotypes -->
<g id="node1" class="node">
<title>jtbl_tlkpmesotypes</title>
<g id="a_node1"><a xlink:href="../../tables/jtbl_tlkpmesotypes.html" xlink:title="jtbl_tlkpmesotypes" target="_top">
<polygon fill="#ffffff" stroke="transparent" points="268,-83 268,-167 454,-167 454,-83 268,-83"/>
<polygon fill="#f5f5f5" stroke="transparent" points="268,-145 268,-167 454,-167 454,-145 268,-145"/>
<polygon fill="none" stroke="black" points="268,-145 268,-167 454,-167 454,-145 268,-145"/>
<text text-anchor="start" x="273" y="-154.2" font-family="Helvetica,sans-Serif" font-weight="bold" font-size="11.00">jtbl_tlkpmesotypes</text>
<text text-anchor="start" x="412" y="-153.2" font-family="Helvetica,sans-Serif" font-size="11.00">[table]</text>
<polygon fill="none" stroke="black" points="268,-123 268,-145 454,-145 454,-123 268,-123"/>
<image xlink:href="../../images/primaryKeys.png" width="11px" height="12px" preserveAspectRatio="xMinYMin meet" x="273" y="-140"/>
<text text-anchor="start" x="301" y="-131.2" font-family="Helvetica,sans-Serif" font-size="11.00">mesostructureid</text>
<polygon fill="none" stroke="black" points="268,-101 268,-123 454,-123 454,-101 268,-101"/>
<image xlink:href="../../images/primaryKeys.png" width="11px" height="12px" preserveAspectRatio="xMinYMin meet" x="273" y="-118"/>
<text text-anchor="start" x="301" y="-109.2" font-family="Helvetica,sans-Serif" font-size="11.00">fieldvalueid</text>
<polygon fill="#ffffff" stroke="transparent" points="268,-83 268,-101 454,-101 454,-83 268,-83"/>
<polygon fill="none" stroke="black" points="268,-83 268,-101 454,-101 454,-83 268,-83"/>
<polygon fill="#ffffff" stroke="transparent" points="269,-84 269,-100 324,-100 324,-84 269,-84"/>
<text text-anchor="start" x="271" y="-89.2" font-family="Helvetica,sans-Serif" font-size="11.00">&lt; 2</text>
<polygon fill="#ffffff" stroke="transparent" points="324,-84 324,-100 410,-100 410,-84 324,-84"/>
<text text-anchor="start" x="341.5" y="-89.2" font-family="Helvetica,sans-Serif" font-size="11.00">130 rows</text>
<polygon fill="#ffffff" stroke="transparent" points="410,-84 410,-100 453,-100 453,-84 410,-84"/>
<text text-anchor="start" x="443" y="-89.2" font-family="Helvetica,sans-Serif" font-size="11.00"> &#160;</text>
<polygon fill="black" stroke="black" points="324,-84 324,-100 324,-100 324,-84 324,-84"/>
<polygon fill="black" stroke="black" points="410,-84 410,-100 410,-100 410,-84 410,-84"/>
</a>
</g>
</g>
<!-- tlkpmesotypes -->
<g id="node2" class="node">
<title>tlkpmesotypes</title>
<g id="a_node2"><a xlink:href="../../tables/tlkpmesotypes.html" xlink:title="tlkpmesotypes" target="_top">
<polygon fill="#ffffff" stroke="transparent" points="8,-37 8,-147 219,-147 219,-37 8,-37"/>
<polygon fill="#f5f5f5" stroke="transparent" points="10.5,-123 10.5,-145 217.5,-145 217.5,-123 10.5,-123"/>
<polygon fill="none" stroke="black" points="10.5,-123 10.5,-145 217.5,-145 217.5,-123 10.5,-123"/>
<text text-anchor="start" x="15.5" y="-132.2" font-family="Helvetica,sans-Serif" font-weight="bold" font-size="11.00">tlkpmesotypes</text>
<text text-anchor="start" x="175.5" y="-131.2" font-family="Helvetica,sans-Serif" font-size="11.00">[table]</text>
<polygon fill="none" stroke="black" points="10.5,-101 10.5,-123 139.5,-123 139.5,-101 10.5,-101"/>
<image xlink:href="../../images/primaryKeys.png" width="11px" height="12px" preserveAspectRatio="xMinYMin meet" x="15.5" y="-118"/>
<text text-anchor="start" x="30.5" y="-109.2" font-family="Helvetica,sans-Serif" font-size="11.00">valueid</text>
<polygon fill="none" stroke="black" points="139.5,-101 139.5,-123 217.5,-123 217.5,-101 139.5,-101"/>
<text text-anchor="start" x="142.5" y="-109.2" font-family="Helvetica,sans-Serif" font-size="11.00">serial[10]</text>
<polygon fill="none" stroke="black" points="10.5,-79 10.5,-101 139.5,-101 139.5,-79 10.5,-79"/>
<text text-anchor="start" x="30.5" y="-87.2" font-family="Helvetica,sans-Serif" font-size="11.00">textfield</text>
<polygon fill="none" stroke="black" points="139.5,-79 139.5,-101 217.5,-101 217.5,-79 139.5,-79"/>
<text text-anchor="start" x="142.5" y="-87.2" font-family="Helvetica,sans-Serif" font-size="11.00">varchar[255]</text>
<polygon fill="none" stroke="black" points="10.5,-57 10.5,-79 139.5,-79 139.5,-57 10.5,-57"/>
<text text-anchor="start" x="30.5" y="-65.2" font-family="Helvetica,sans-Serif" font-size="11.00">sort</text>
<polygon fill="none" stroke="black" points="139.5,-57 139.5,-79 217.5,-79 217.5,-57 139.5,-57"/>
<text text-anchor="start" x="142.5" y="-65.2" font-family="Helvetica,sans-Serif" font-size="11.00">int4[10]</text>
<polygon fill="#ffffff" stroke="transparent" points="10.5,-39 10.5,-57 217.5,-57 217.5,-39 10.5,-39"/>
<polygon fill="none" stroke="black" points="10.5,-39 10.5,-57 217.5,-57 217.5,-39 10.5,-39"/>
<polygon fill="#ffffff" stroke="transparent" points="11.5,-40 11.5,-56 72.5,-56 72.5,-40 11.5,-40"/>
<text text-anchor="start" x="13.5" y="-45.2" font-family="Helvetica,sans-Serif" font-size="11.00">&lt; 0</text>
<polygon fill="#ffffff" stroke="transparent" points="72.5,-40 72.5,-56 156.5,-56 156.5,-40 72.5,-40"/>
<text text-anchor="start" x="92.5" y="-45.2" font-family="Helvetica,sans-Serif" font-size="11.00">14 rows</text>
<polygon fill="#ffffff" stroke="transparent" points="156.5,-40 156.5,-56 216.5,-56 216.5,-40 156.5,-40"/>
<text text-anchor="start" x="194.5" y="-45.2" font-family="Helvetica,sans-Serif" font-size="11.00">1 &gt;</text>
<polygon fill="black" stroke="black" points="72.5,-40 72.5,-56 72.5,-56 72.5,-40 72.5,-40"/>
<polygon fill="black" stroke="black" points="156.5,-40 156.5,-56 156.5,-56 156.5,-40 156.5,-40"/>
<polygon fill="none" stroke="black" stroke-width="2" points="9,-38 9,-146 218,-146 218,-38 9,-38"/>
</a>
</g>
</g>
<!-- jtbl_tlkpmesotypes&#45;&gt;tlkpmesotypes -->
<g id="edge1" class="edge">
<title>jtbl_tlkpmesotypes:w&#45;&gt;tlkpmesotypes:e</title>
<path fill="none" stroke="black" d="M252.28,-112C241.29,-112 234.16,-112 218.5,-112"/>
<polygon fill="black" stroke="black" points="259,-112 267,-115.6 263,-112 267,-112 267,-112 267,-112 263,-112 267,-108.4 259,-112 259,-112"/>
<ellipse fill="none" stroke="black" cx="255.8" cy="-112" rx="3.2" ry="3.2"/>
</g>
</g>
</svg>
