<?xml version="1.0" encoding="UTF-8" standalone="no"?>
<!DOCTYPE svg PUBLIC "-//W3C//DTD SVG 1.1//EN"
 "http://www.w3.org/Graphics/SVG/1.1/DTD/svg11.dtd">
<!-- Generated by graphviz version 2.43.0 (0)
 -->
<!-- Title: largeRelationshipsDiagram Pages: 1 -->
<svg width="716pt" height="989pt"
 viewBox="0.00 0.00 716.00 989.00" xmlns="http://www.w3.org/2000/svg" xmlns:xlink="http://www.w3.org/1999/xlink">
<g id="graph0" class="graph" transform="scale(1 1) rotate(0) translate(4 985)">
<title>largeRelationshipsDiagram</title>
<polygon fill="#ffffff" stroke="transparent" points="-4,4 -4,-985 712,-985 712,4 -4,4"/>
<text text-anchor="middle" x="79.5" y="-7.2" font-family="Helvetica,sans-Serif" font-size="11.00">Generated by SchemaSpy</text>
<!-- lookup_export_working -->
<g id="node1" class="node">
<title>lookup_export_working</title>
<g id="a_node1"><a xlink:href="../../tables/lookup_export_working.html" xlink:title="lookup_export_working" target="_top">
<polygon fill="#ffffff" stroke="transparent" points="8,-673 8,-977 224,-977 224,-673 8,-673"/>
<polygon fill="#f5f5f5" stroke="transparent" points="8,-955 8,-977 224,-977 224,-955 8,-955"/>
<polygon fill="none" stroke="black" points="8,-955 8,-977 224,-977 224,-955 8,-955"/>
<text text-anchor="start" x="13" y="-964.2" font-family="Helvetica,sans-Serif" font-weight="bold" font-size="11.00">lookup_export_working</text>
<text text-anchor="start" x="182" y="-963.2" font-family="Helvetica,sans-Serif" font-size="11.00">[table]</text>
<polygon fill="none" stroke="black" points="8,-933 8,-955 224,-955 224,-933 8,-933"/>
<text text-anchor="start" x="41" y="-941.2" font-family="Helvetica,sans-Serif" font-size="11.00">lookup_schema</text>
<polygon fill="none" stroke="black" points="8,-911 8,-933 224,-933 224,-911 8,-911"/>
<text text-anchor="start" x="41" y="-919.2" font-family="Helvetica,sans-Serif" font-size="11.00">lookup_table</text>
<polygon fill="none" stroke="black" points="8,-889 8,-911 224,-911 224,-889 8,-889"/>
<text text-anchor="start" x="41" y="-897.2" font-family="Helvetica,sans-Serif" font-size="11.00">lookup_valueid</text>
<polygon fill="none" stroke="black" points="8,-867 8,-889 224,-889 224,-867 8,-867"/>
<text text-anchor="start" x="41" y="-875.2" font-family="Helvetica,sans-Serif" font-size="11.00">lookup_text</text>
<polygon fill="none" stroke="black" points="8,-845 8,-867 224,-867 224,-845 8,-845"/>
<text text-anchor="start" x="41" y="-853.2" font-family="Helvetica,sans-Serif" font-size="11.00">sort</text>
<polygon fill="none" stroke="black" points="8,-823 8,-845 224,-845 224,-823 8,-823"/>
<text text-anchor="start" x="41" y="-831.2" font-family="Helvetica,sans-Serif" font-size="11.00">include_in_vocab</text>
<polygon fill="none" stroke="black" points="8,-801 8,-823 224,-823 224,-801 8,-801"/>
<text text-anchor="start" x="41" y="-809.2" font-family="Helvetica,sans-Serif" font-size="11.00">source_short</text>
<polygon fill="none" stroke="black" points="8,-779 8,-801 224,-801 224,-779 8,-779"/>
<text text-anchor="start" x="41" y="-787.2" font-family="Helvetica,sans-Serif" font-size="11.00">source_page</text>
<polygon fill="none" stroke="black" points="8,-757 8,-779 224,-779 224,-757 8,-757"/>
<text text-anchor="start" x="41" y="-765.2" font-family="Helvetica,sans-Serif" font-size="11.00">source_figure</text>
<polygon fill="none" stroke="black" points="8,-735 8,-757 224,-757 224,-735 8,-735"/>
<image xlink:href="../../images/foreignKeys.png" width="11px" height="12px" preserveAspectRatio="xMinYMin meet" x="13" y="-752"/>
<text text-anchor="start" x="41" y="-743.2" font-family="Helvetica,sans-Serif" font-size="11.00">definition_status</text>
<polygon fill="none" stroke="black" points="8,-713 8,-735 224,-735 224,-713 8,-713"/>
<text text-anchor="start" x="41" y="-721.2" font-family="Helvetica,sans-Serif" font-size="11.00">working_definition</text>
<polygon fill="none" stroke="black" points="8,-691 8,-713 224,-713 224,-691 8,-691"/>
<text text-anchor="start" x="41" y="-699.2" font-family="Helvetica,sans-Serif" font-size="11.00">notes</text>
<polygon fill="#ffffff" stroke="transparent" points="8,-673 8,-691 224,-691 224,-673 8,-673"/>
<polygon fill="none" stroke="black" points="8,-673 8,-691 224,-691 224,-673 8,-673"/>
<polygon fill="#ffffff" stroke="transparent" points="9,-674 9,-690 66,-690 66,-674 9,-674"/>
<text text-anchor="start" x="11" y="-679.2" font-family="Helvetica,sans-Serif" font-size="11.00"> &#160;</text>
<polygon fill="#ffffff" stroke="transparent" points="66,-674 66,-690 166,-690 166,-674 66,-674"/>
<text text-anchor="start" x="90.5" y="-679.2" font-family="Helvetica,sans-Serif" font-size="11.00">539 rows</text>
<polygon fill="#ffffff" stroke="transparent" points="166,-674 166,-690 223,-690 223,-674 166,-674"/>
<text text-anchor="start" x="213" y="-679.2" font-family="Helvetica,sans-Serif" font-size="11.00"> &#160;</text>
<polygon fill="black" stroke="black" points="66,-674 66,-690 66,-690 66,-674 66,-674"/>
<polygon fill="black" stroke="black" points="166,-674 166,-690 166,-690 166,-674 166,-674"/>
</a>
</g>
</g>
<!-- tlkpvocab_status -->
<g id="node2" class="node">
<title>tlkpvocab_status</title>
<g id="a_node2"><a xlink:href="../../tables/tlkpvocab_status.html" xlink:title="tlkpvocab_status" target="_top">
<polygon fill="#ffffff" stroke="transparent" points="61,-279 61,-363 232,-363 232,-279 61,-279"/>
<polygon fill="#f5f5f5" stroke="transparent" points="61.5,-341 61.5,-363 232.5,-363 232.5,-341 61.5,-341"/>
<polygon fill="none" stroke="black" points="61.5,-341 61.5,-363 232.5,-363 232.5,-341 61.5,-341"/>
<text text-anchor="start" x="66.5" y="-350.2" font-family="Helvetica,sans-Serif" font-weight="bold" font-size="11.00">tlkpvocab_status</text>
<text text-anchor="start" x="190.5" y="-349.2" font-family="Helvetica,sans-Serif" font-size="11.00">[table]</text>
<polygon fill="none" stroke="black" points="61.5,-319 61.5,-341 232.5,-341 232.5,-319 61.5,-319"/>
<image xlink:href="../../images/primaryKeys.png" width="11px" height="12px" preserveAspectRatio="xMinYMin meet" x="66.5" y="-336"/>
<text text-anchor="start" x="94.5" y="-327.2" font-family="Helvetica,sans-Serif" font-size="11.00">status</text>
<polygon fill="none" stroke="black" points="61.5,-297 61.5,-319 232.5,-319 232.5,-297 61.5,-297"/>
<text text-anchor="start" x="94.5" y="-305.2" font-family="Helvetica,sans-Serif" font-size="11.00">description</text>
<polygon fill="#ffffff" stroke="transparent" points="61.5,-279 61.5,-297 232.5,-297 232.5,-279 61.5,-279"/>
<polygon fill="none" stroke="black" points="61.5,-279 61.5,-297 232.5,-297 232.5,-279 61.5,-279"/>
<polygon fill="#ffffff" stroke="transparent" points="62.5,-280 62.5,-296 115.5,-296 115.5,-280 62.5,-280"/>
<text text-anchor="start" x="64.5" y="-285.2" font-family="Helvetica,sans-Serif" font-size="11.00"> &#160;</text>
<polygon fill="#ffffff" stroke="transparent" points="115.5,-280 115.5,-296 167.5,-296 167.5,-280 115.5,-280"/>
<text text-anchor="start" x="137.5" y="-285.2" font-family="Helvetica,sans-Serif" font-size="11.00"> &#160;</text>
<polygon fill="#ffffff" stroke="transparent" points="167.5,-280 167.5,-296 231.5,-296 231.5,-280 167.5,-280"/>
<text text-anchor="start" x="209.5" y="-285.2" font-family="Helvetica,sans-Serif" font-size="11.00">1 &gt;</text>
<polygon fill="black" stroke="black" points="115.5,-280 115.5,-296 115.5,-296 115.5,-280 115.5,-280"/>
<polygon fill="black" stroke="black" points="167.5,-280 167.5,-296 167.5,-296 167.5,-280 167.5,-280"/>
</a>
</g>
</g>
<!-- vocab_terms -->
<g id="node3" class="node">
<title>vocab_terms</title>
<g id="a_node3"><a xlink:href="../../tables/vocab_terms.html" xlink:title="vocab_terms" target="_top">
<polygon fill="#ffffff" stroke="transparent" points="281,-37 281,-473 425,-473 425,-37 281,-37"/>
<polygon fill="#f5f5f5" stroke="transparent" points="281,-451 281,-473 425,-473 425,-451 281,-451"/>
<polygon fill="none" stroke="black" points="281,-451 281,-473 425,-473 425,-451 281,-451"/>
<text text-anchor="start" x="286" y="-460.2" font-family="Helvetica,sans-Serif" font-weight="bold" font-size="11.00">vocab_terms</text>
<text text-anchor="start" x="383" y="-459.2" font-family="Helvetica,sans-Serif" font-size="11.00">[table]</text>
<polygon fill="none" stroke="black" points="281,-429 281,-451 425,-451 425,-429 281,-429"/>
<image xlink:href="../../images/primaryKeys.png" width="11px" height="12px" preserveAspectRatio="xMinYMin meet" x="286" y="-446"/>
<text text-anchor="start" x="301" y="-437.2" font-family="Helvetica,sans-Serif" font-size="11.00">vocabtermid</text>
<polygon fill="#ffffff" stroke="transparent" points="281,-407 281,-429 425,-429 425,-407 281,-407"/>
<polygon fill="none" stroke="black" points="281,-407 281,-429 425,-429 425,-407 281,-407"/>
<text text-anchor="start" x="301" y="-415.2" font-family="Helvetica,sans-Serif" font-size="11.00">term_code</text>
<polygon fill="none" stroke="black" points="281,-385 281,-407 425,-407 425,-385 281,-385"/>
<text text-anchor="start" x="301" y="-393.2" font-family="Helvetica,sans-Serif" font-size="11.00">preferred_label</text>
<polygon fill="none" stroke="black" points="281,-363 281,-385 425,-385 425,-363 281,-363"/>
<text text-anchor="start" x="301" y="-371.2" font-family="Helvetica,sans-Serif" font-size="11.00">definition</text>
<polygon fill="none" stroke="black" points="281,-341 281,-363 425,-363 425,-341 281,-341"/>
<text text-anchor="start" x="301" y="-349.2" font-family="Helvetica,sans-Serif" font-size="11.00">usage_note</text>
<polygon fill="none" stroke="black" points="281,-319 281,-341 425,-341 425,-319 281,-319"/>
<image xlink:href="../../images/foreignKeys.png" width="11px" height="12px" preserveAspectRatio="xMinYMin meet" x="286" y="-336"/>
<text text-anchor="start" x="301" y="-327.2" font-family="Helvetica,sans-Serif" font-size="11.00">status</text>
<polygon fill="none" stroke="black" points="281,-297 281,-319 425,-319 425,-297 281,-297"/>
<text text-anchor="start" x="301" y="-305.2" font-family="Helvetica,sans-Serif" font-size="11.00">createdate</text>
<polygon fill="#ffffff" stroke="transparent" points="281,-275 281,-297 425,-297 425,-275 281,-275"/>
<polygon fill="none" stroke="black" points="281,-275 281,-297 425,-297 425,-275 281,-275"/>
<text text-anchor="start" x="301" y="-283.2" font-family="Helvetica,sans-Serif" font-size="11.00">lookup_schema</text>
<polygon fill="#ffffff" stroke="transparent" points="281,-253 281,-275 425,-275 425,-253 281,-253"/>
<polygon fill="none" stroke="black" points="281,-253 281,-275 425,-275 425,-253 281,-253"/>
<text text-anchor="start" x="301" y="-261.2" font-family="Helvetica,sans-Serif" font-size="11.00">lookup_table</text>
<polygon fill="#ffffff" stroke="transparent" points="281,-231 281,-253 425,-253 425,-231 281,-231"/>
<polygon fill="none" stroke="black" points="281,-231 281,-253 425,-253 425,-231 281,-231"/>
<text text-anchor="start" x="301" y="-239.2" font-family="Helvetica,sans-Serif" font-size="11.00">lookup_valueid</text>
<polygon fill="none" stroke="black" points="281,-209 281,-231 425,-231 425,-209 281,-209"/>
<text text-anchor="start" x="301" y="-217.2" font-family="Helvetica,sans-Serif" font-size="11.00">lookup_text</text>
<polygon fill="none" stroke="black" points="281,-187 281,-209 425,-209 425,-187 281,-187"/>
<text text-anchor="start" x="301" y="-195.2" font-family="Helvetica,sans-Serif" font-size="11.00">sort</text>
<polygon fill="none" stroke="black" points="281,-165 281,-187 425,-187 425,-165 281,-165"/>
<text text-anchor="start" x="301" y="-173.2" font-family="Helvetica,sans-Serif" font-size="11.00">include_in_vocab</text>
<polygon fill="none" stroke="black" points="281,-143 281,-165 425,-165 425,-143 281,-143"/>
<text text-anchor="start" x="301" y="-151.2" font-family="Helvetica,sans-Serif" font-size="11.00">source_short</text>
<polygon fill="none" stroke="black" points="281,-121 281,-143 425,-143 425,-121 281,-121"/>
<text text-anchor="start" x="301" y="-129.2" font-family="Helvetica,sans-Serif" font-size="11.00">source_page</text>
<polygon fill="none" stroke="black" points="281,-99 281,-121 425,-121 425,-99 281,-99"/>
<text text-anchor="start" x="301" y="-107.2" font-family="Helvetica,sans-Serif" font-size="11.00">source_figure</text>
<polygon fill="none" stroke="black" points="281,-77 281,-99 425,-99 425,-77 281,-77"/>
<image xlink:href="../../images/foreignKeys.png" width="11px" height="12px" preserveAspectRatio="xMinYMin meet" x="286" y="-94"/>
<text text-anchor="start" x="301" y="-85.2" font-family="Helvetica,sans-Serif" font-size="11.00">definition_status</text>
<polygon fill="none" stroke="black" points="281,-55 281,-77 425,-77 425,-55 281,-55"/>
<text text-anchor="start" x="301" y="-63.2" font-family="Helvetica,sans-Serif" font-size="11.00">notes</text>
<polygon fill="#ffffff" stroke="transparent" points="281,-37 281,-55 425,-55 425,-37 281,-37"/>
<polygon fill="none" stroke="black" points="281,-37 281,-55 425,-55 425,-37 281,-37"/>
<polygon fill="#ffffff" stroke="transparent" points="282,-38 282,-54 319,-54 319,-38 282,-38"/>
<text text-anchor="start" x="284" y="-43.2" font-family="Helvetica,sans-Serif" font-size="11.00">&lt; 1</text>
<polygon fill="#ffffff" stroke="transparent" points="319,-38 319,-54 387,-54 387,-38 319,-38"/>
<text text-anchor="start" x="327.5" y="-43.2" font-family="Helvetica,sans-Serif" font-size="11.00">443 rows</text>
<polygon fill="#ffffff" stroke="transparent" points="387,-38 387,-54 424,-54 424,-38 387,-38"/>
<text text-anchor="start" x="402" y="-43.2" font-family="Helvetica,sans-Serif" font-size="11.00">1 &gt;</text>
<polygon fill="black" stroke="black" points="319,-38 319,-54 319,-54 319,-38 319,-38"/>
<polygon fill="black" stroke="black" points="387,-38 387,-54 387,-54 387,-38 387,-38"/>
</a>
</g>
</g>
<!-- vocab_terms&#45;&gt;tlkpvocab_status -->
<g id="edge2" class="edge">
<title>vocab_terms:w&#45;&gt;tlkpvocab_status:e</title>
<path fill="none" stroke="black" d="M265.55,-330C255.2,-330 248.35,-330 233.5,-330"/>
<polygon fill="black" stroke="black" points="272,-330 280,-333.6 276,-330 280,-330 280,-330 280,-330 276,-330 280,-326.4 272,-330 272,-330"/>
<ellipse fill="none" stroke="black" cx="268.8" cy="-330" rx="3.2" ry="3.2"/>
</g>
<!-- jtbl_lookup_vocab_terms -->
<g id="node4" class="node">
<title>jtbl_lookup_vocab_terms</title>
<g id="a_node4"><a xlink:href="../../tables/jtbl_lookup_vocab_terms.html" xlink:title="jtbl_lookup_vocab_terms" target="_top">
<polygon fill="#ffffff" stroke="transparent" points="474,-367 474,-583 700,-583 700,-367 474,-367"/>
<polygon fill="#f5f5f5" stroke="transparent" points="474,-561 474,-583 700,-583 700,-561 474,-561"/>
<polygon fill="none" stroke="black" points="474,-561 474,-583 700,-583 700,-561 474,-561"/>
<text text-anchor="start" x="479" y="-570.2" font-family="Helvetica,sans-Serif" font-weight="bold" font-size="11.00">jtbl_lookup_vocab_terms</text>
<text text-anchor="start" x="658" y="-569.2" font-family="Helvetica,sans-Serif" font-size="11.00">[table]</text>
<polygon fill="none" stroke="black" points="474,-539 474,-561 700,-561 700,-539 474,-539"/>
<image xlink:href="../../images/primaryKeys.png" width="11px" height="12px" preserveAspectRatio="xMinYMin meet" x="479" y="-556"/>
<text text-anchor="start" x="507" y="-547.2" font-family="Helvetica,sans-Serif" font-size="11.00">lookupvocabid</text>
<polygon fill="none" stroke="black" points="474,-517 474,-539 700,-539 700,-517 474,-517"/>
<text text-anchor="start" x="507" y="-525.2" font-family="Helvetica,sans-Serif" font-size="11.00">lookup_schema</text>
<polygon fill="none" stroke="black" points="474,-495 474,-517 700,-517 700,-495 474,-495"/>
<text text-anchor="start" x="507" y="-503.2" font-family="Helvetica,sans-Serif" font-size="11.00">lookup_table</text>
<polygon fill="none" stroke="black" points="474,-473 474,-495 700,-495 700,-473 474,-473"/>
<text text-anchor="start" x="507" y="-481.2" font-family="Helvetica,sans-Serif" font-size="11.00">lookup_valueid</text>
<polygon fill="none" stroke="black" points="474,-451 474,-473 700,-473 700,-451 474,-451"/>
<text text-anchor="start" x="507" y="-459.2" font-family="Helvetica,sans-Serif" font-size="11.00">lookup_text</text>
<polygon fill="none" stroke="black" points="474,-429 474,-451 700,-451 700,-429 474,-429"/>
<image xlink:href="../../images/foreignKeys.png" width="11px" height="12px" preserveAspectRatio="xMinYMin meet" x="479" y="-446"/>
<text text-anchor="start" x="507" y="-437.2" font-family="Helvetica,sans-Serif" font-size="11.00">vocabtermid</text>
<polygon fill="none" stroke="black" points="474,-407 474,-429 700,-429 700,-407 474,-407"/>
<image xlink:href="../../images/foreignKeys.png" width="11px" height="12px" preserveAspectRatio="xMinYMin meet" x="479" y="-424"/>
<text text-anchor="start" x="507" y="-415.2" font-family="Helvetica,sans-Serif" font-size="11.00">mapping_status</text>
<polygon fill="none" stroke="black" points="474,-385 474,-407 700,-407 700,-385 474,-385"/>
<text text-anchor="start" x="507" y="-393.2" font-family="Helvetica,sans-Serif" font-size="11.00">notes</text>
<polygon fill="#ffffff" stroke="transparent" points="474,-367 474,-385 700,-385 700,-367 474,-367"/>
<polygon fill="none" stroke="black" points="474,-367 474,-385 700,-385 700,-367 474,-367"/>
<polygon fill="#ffffff" stroke="transparent" points="475,-368 475,-384 558,-384 558,-368 475,-368"/>
<text text-anchor="start" x="477" y="-373.2" font-family="Helvetica,sans-Serif" font-size="11.00">&lt; 1</text>
<polygon fill="#ffffff" stroke="transparent" points="558,-368 558,-384 629,-384 629,-368 558,-368"/>
<text text-anchor="start" x="589.5" y="-373.2" font-family="Helvetica,sans-Serif" font-size="11.00"> &#160;</text>
<polygon fill="#ffffff" stroke="transparent" points="629,-368 629,-384 699,-384 699,-368 629,-368"/>
<text text-anchor="start" x="689" y="-373.2" font-family="Helvetica,sans-Serif" font-size="11.00"> &#160;</text>
<polygon fill="black" stroke="black" points="558,-368 558,-384 558,-384 558,-368 558,-368"/>
<polygon fill="black" stroke="black" points="629,-368 629,-384 629,-384 629,-368 629,-368"/>
</a>
</g>
</g>
<!-- jtbl_lookup_vocab_terms&#45;&gt;vocab_terms -->
<g id="edge1" class="edge">
<title>jtbl_lookup_vocab_terms:w&#45;&gt;vocab_terms:e</title>
<path fill="none" stroke="black" d="M458.4,-440C447.93,-440 441.01,-440 426,-440"/>
<polygon fill="black" stroke="black" points="465,-440 473,-443.6 469,-440 473,-440 473,-440 473,-440 469,-440 473,-436.4 465,-440 465,-440"/>
<ellipse fill="none" stroke="black" cx="461.8" cy="-440" rx="3.2" ry="3.2"/>
</g>
</g>
</svg>
