<?xml version="1.0" encoding="UTF-8" standalone="no"?>
<!DOCTYPE svg PUBLIC "-//W3C//DTD SVG 1.1//EN"
 "http://www.w3.org/Graphics/SVG/1.1/DTD/svg11.dtd">
<!-- Generated by graphviz version 2.43.0 (0)
 -->
<!-- Title: twoDegreesRelationshipsDiagram Pages: 1 -->
<svg width="565pt" height="988pt"
 viewBox="0.00 0.00 565.00 988.00" xmlns="http://www.w3.org/2000/svg" xmlns:xlink="http://www.w3.org/1999/xlink">
<g id="graph0" class="graph" transform="scale(1 1) rotate(0) translate(4 984)">
<title>twoDegreesRelationshipsDiagram</title>
<polygon fill="#ffffff" stroke="transparent" points="-4,4 -4,-984 561,-984 561,4 -4,4"/>
<text text-anchor="middle" x="79.5" y="-7.2" font-family="Helvetica,sans-Serif" font-size="11.00">Generated by SchemaSpy</text>
<!-- jtbl_citationgroups -->
<g id="node1" class="node">
<title>jtbl_citationgroups</title>
<g id="a_node1"><a xlink:href="../../tables/jtbl_citationgroups.html" xlink:title="jtbl_citationgroups" target="_top">
<polygon fill="#ffffff" stroke="transparent" points="347.5,-870 347.5,-976 531.5,-976 531.5,-870 347.5,-870"/>
<polygon fill="#f5f5f5" stroke="transparent" points="347.5,-954 347.5,-976 531.5,-976 531.5,-954 347.5,-954"/>
<polygon fill="none" stroke="black" points="347.5,-954 347.5,-976 531.5,-976 531.5,-954 347.5,-954"/>
<text text-anchor="start" x="352.5" y="-963.2" font-family="Helvetica,sans-Serif" font-weight="bold" font-size="11.00">jtbl_citationgroups</text>
<text text-anchor="start" x="489.5" y="-962.2" font-family="Helvetica,sans-Serif" font-size="11.00">[table]</text>
<polygon fill="none" stroke="black" points="347.5,-932 347.5,-954 531.5,-954 531.5,-932 347.5,-932"/>
<image xlink:href="../../images/primaryKeys.png" width="11px" height="12px" preserveAspectRatio="xMinYMin meet" x="352.5" y="-949"/>
<text text-anchor="start" x="380.5" y="-940.2" font-family="Helvetica,sans-Serif" font-size="11.00">junctid</text>
<polygon fill="#ffffff" stroke="transparent" points="347.5,-910 347.5,-932 531.5,-932 531.5,-910 347.5,-910"/>
<polygon fill="none" stroke="black" points="347.5,-910 347.5,-932 531.5,-932 531.5,-910 347.5,-910"/>
<image xlink:href="../../images/foreignKeys.png" width="11px" height="12px" preserveAspectRatio="xMinYMin meet" x="352.5" y="-927"/>
<text text-anchor="start" x="380.5" y="-918.2" font-family="Helvetica,sans-Serif" font-size="11.00">citationgroupid</text>
<polygon fill="#ffffff" stroke="transparent" points="347.5,-888 347.5,-910 531.5,-910 531.5,-888 347.5,-888"/>
<polygon fill="none" stroke="black" points="347.5,-888 347.5,-910 531.5,-910 531.5,-888 347.5,-888"/>
<image xlink:href="../../images/foreignKeys.png" width="11px" height="12px" preserveAspectRatio="xMinYMin meet" x="352.5" y="-905"/>
<text text-anchor="start" x="380.5" y="-896.2" font-family="Helvetica,sans-Serif" font-size="11.00">citationid</text>
<polygon fill="#ffffff" stroke="transparent" points="347.5,-870 347.5,-888 531.5,-888 531.5,-870 347.5,-870"/>
<polygon fill="none" stroke="black" points="347.5,-870 347.5,-888 531.5,-888 531.5,-870 347.5,-870"/>
<polygon fill="#ffffff" stroke="transparent" points="348.5,-871 348.5,-887 407.5,-887 407.5,-871 348.5,-871"/>
<text text-anchor="start" x="350.5" y="-876.2" font-family="Helvetica,sans-Serif" font-size="11.00">&lt; 2</text>
<polygon fill="#ffffff" stroke="transparent" points="407.5,-871 407.5,-887 483.5,-887 483.5,-871 407.5,-871"/>
<text text-anchor="start" x="427" y="-876.2" font-family="Helvetica,sans-Serif" font-size="11.00">3 rows</text>
<polygon fill="#ffffff" stroke="transparent" points="483.5,-871 483.5,-887 530.5,-887 530.5,-871 483.5,-871"/>
<text text-anchor="start" x="520.5" y="-876.2" font-family="Helvetica,sans-Serif" font-size="11.00"> &#160;</text>
<polygon fill="black" stroke="black" points="407.5,-871 407.5,-887 407.5,-887 407.5,-871 407.5,-871"/>
<polygon fill="black" stroke="black" points="483.5,-871 483.5,-887 483.5,-887 483.5,-871 483.5,-871"/>
</a>
</g>
</g>
<!-- tbl_citationgroup -->
<g id="node2" class="node">
<title>tbl_citationgroup</title>
<g id="a_node2"><a xlink:href="../../tables/tbl_citationgroup.html" xlink:title="tbl_citationgroup" target="_top">
<polygon fill="#ffffff" stroke="transparent" points="58.5,-898 58.5,-956 230.5,-956 230.5,-898 58.5,-898"/>
<polygon fill="#f5f5f5" stroke="transparent" points="58.5,-934 58.5,-956 230.5,-956 230.5,-934 58.5,-934"/>
<polygon fill="none" stroke="black" points="58.5,-934 58.5,-956 230.5,-956 230.5,-934 58.5,-934"/>
<text text-anchor="start" x="63.5" y="-943.2" font-family="Helvetica,sans-Serif" font-weight="bold" font-size="11.00">tbl_citationgroup</text>
<text text-anchor="start" x="188.5" y="-942.2" font-family="Helvetica,sans-Serif" font-size="11.00">[table]</text>
<polygon fill="none" stroke="black" points="58.5,-916 58.5,-934 230.5,-934 230.5,-916 58.5,-916"/>
<text text-anchor="start" x="61.5" y="-922.2" font-family="Helvetica,sans-Serif" font-size="11.00">...</text>
<polygon fill="#ffffff" stroke="transparent" points="58.5,-898 58.5,-916 230.5,-916 230.5,-898 58.5,-898"/>
<polygon fill="none" stroke="black" points="58.5,-898 58.5,-916 230.5,-916 230.5,-898 58.5,-898"/>
<polygon fill="#ffffff" stroke="transparent" points="59.5,-899 59.5,-915 102.5,-915 102.5,-899 59.5,-899"/>
<text text-anchor="start" x="61.5" y="-904.2" font-family="Helvetica,sans-Serif" font-size="11.00"> &#160;</text>
<polygon fill="#ffffff" stroke="transparent" points="102.5,-899 102.5,-915 174.5,-915 174.5,-899 102.5,-899"/>
<text text-anchor="start" x="120" y="-904.2" font-family="Helvetica,sans-Serif" font-size="11.00">5 rows</text>
<polygon fill="#ffffff" stroke="transparent" points="174.5,-899 174.5,-915 229.5,-915 229.5,-899 174.5,-899"/>
<text text-anchor="start" x="207.5" y="-904.2" font-family="Helvetica,sans-Serif" font-size="11.00">1 &gt;</text>
<polygon fill="black" stroke="black" points="102.5,-899 102.5,-915 102.5,-915 102.5,-899 102.5,-899"/>
<polygon fill="black" stroke="black" points="174.5,-899 174.5,-915 174.5,-915 174.5,-899 174.5,-899"/>
</a>
</g>
</g>
<!-- jtbl_citationgroups&#45;&gt;tbl_citationgroup -->
<g id="edge1" class="edge">
<title>jtbl_citationgroups:w&#45;&gt;tbl_citationgroup:e</title>
<path fill="none" stroke="black" d="M332.03,-921.12C292.38,-921.77 277.45,-925 231.5,-925"/>
<polygon fill="black" stroke="black" points="338.5,-921.06 346.53,-924.6 342.5,-921.03 346.5,-921 346.5,-921 346.5,-921 342.5,-921.03 346.47,-917.4 338.5,-921.06 338.5,-921.06"/>
<ellipse fill="none" stroke="black" cx="335.3" cy="-921.09" rx="3.2" ry="3.2"/>
</g>
<!-- tbl_citations -->
<g id="node3" class="node">
<title>tbl_citations</title>
<g id="a_node3"><a xlink:href="../../tables/tbl_citations.html" xlink:title="tbl_citations" target="_top">
<polygon fill="#ffffff" stroke="transparent" points="8,-116 8,-798 281,-798 281,-116 8,-116"/>
<polygon fill="#f5f5f5" stroke="transparent" points="10.5,-774 10.5,-796 279.5,-796 279.5,-774 10.5,-774"/>
<polygon fill="none" stroke="black" points="10.5,-774 10.5,-796 279.5,-796 279.5,-774 10.5,-774"/>
<text text-anchor="start" x="15.5" y="-783.2" font-family="Helvetica,sans-Serif" font-weight="bold" font-size="11.00">tbl_citations</text>
<text text-anchor="start" x="237.5" y="-782.2" font-family="Helvetica,sans-Serif" font-size="11.00">[table]</text>
<polygon fill="none" stroke="black" points="10.5,-752 10.5,-774 173.5,-774 173.5,-752 10.5,-752"/>
<image xlink:href="../../images/primaryKeys.png" width="11px" height="12px" preserveAspectRatio="xMinYMin meet" x="15.5" y="-769"/>
<text text-anchor="start" x="30.5" y="-760.2" font-family="Helvetica,sans-Serif" font-size="11.00">citationid</text>
<polygon fill="none" stroke="black" points="173.5,-752 173.5,-774 279.5,-774 279.5,-752 173.5,-752"/>
<text text-anchor="start" x="176.5" y="-760.2" font-family="Helvetica,sans-Serif" font-size="11.00">serial[10]</text>
<polygon fill="none" stroke="black" points="10.5,-730 10.5,-752 173.5,-752 173.5,-730 10.5,-730"/>
<text text-anchor="start" x="30.5" y="-738.2" font-family="Helvetica,sans-Serif" font-size="11.00">title</text>
<polygon fill="none" stroke="black" points="173.5,-730 173.5,-752 279.5,-752 279.5,-730 173.5,-730"/>
<text text-anchor="start" x="176.5" y="-738.2" font-family="Helvetica,sans-Serif" font-size="11.00">text[2147483647]</text>
<polygon fill="none" stroke="black" points="10.5,-708 10.5,-730 173.5,-730 173.5,-708 10.5,-708"/>
<text text-anchor="start" x="30.5" y="-716.2" font-family="Helvetica,sans-Serif" font-size="11.00">creators</text>
<polygon fill="none" stroke="black" points="173.5,-708 173.5,-730 279.5,-730 279.5,-708 173.5,-708"/>
<text text-anchor="start" x="176.5" y="-716.2" font-family="Helvetica,sans-Serif" font-size="11.00">text[2147483647]</text>
<polygon fill="none" stroke="black" points="10.5,-686 10.5,-708 173.5,-708 173.5,-686 10.5,-686"/>
<text text-anchor="start" x="30.5" y="-694.2" font-family="Helvetica,sans-Serif" font-size="11.00">abstractnote</text>
<polygon fill="none" stroke="black" points="173.5,-686 173.5,-708 279.5,-708 279.5,-686 173.5,-686"/>
<text text-anchor="start" x="176.5" y="-694.2" font-family="Helvetica,sans-Serif" font-size="11.00">text[2147483647]</text>
<polygon fill="none" stroke="black" points="10.5,-664 10.5,-686 173.5,-686 173.5,-664 10.5,-664"/>
<text text-anchor="start" x="30.5" y="-672.2" font-family="Helvetica,sans-Serif" font-size="11.00">booktitle</text>
<polygon fill="none" stroke="black" points="173.5,-664 173.5,-686 279.5,-686 279.5,-664 173.5,-664"/>
<text text-anchor="start" x="176.5" y="-672.2" font-family="Helvetica,sans-Serif" font-size="11.00">text[2147483647]</text>
<polygon fill="none" stroke="black" points="10.5,-642 10.5,-664 173.5,-664 173.5,-642 10.5,-642"/>
<text text-anchor="start" x="30.5" y="-650.2" font-family="Helvetica,sans-Serif" font-size="11.00">bookeditors</text>
<polygon fill="none" stroke="black" points="173.5,-642 173.5,-664 279.5,-664 279.5,-642 173.5,-642"/>
<text text-anchor="start" x="176.5" y="-650.2" font-family="Helvetica,sans-Serif" font-size="11.00">text[2147483647]</text>
<polygon fill="none" stroke="black" points="10.5,-620 10.5,-642 173.5,-642 173.5,-620 10.5,-620"/>
<text text-anchor="start" x="30.5" y="-628.2" font-family="Helvetica,sans-Serif" font-size="11.00">publicationtitle</text>
<polygon fill="none" stroke="black" points="173.5,-620 173.5,-642 279.5,-642 279.5,-620 173.5,-620"/>
<text text-anchor="start" x="176.5" y="-628.2" font-family="Helvetica,sans-Serif" font-size="11.00">text[2147483647]</text>
<polygon fill="none" stroke="black" points="10.5,-598 10.5,-620 173.5,-620 173.5,-598 10.5,-598"/>
<text text-anchor="start" x="30.5" y="-606.2" font-family="Helvetica,sans-Serif" font-size="11.00">containerisbn</text>
<polygon fill="none" stroke="black" points="173.5,-598 173.5,-620 279.5,-620 279.5,-598 173.5,-598"/>
<text text-anchor="start" x="176.5" y="-606.2" font-family="Helvetica,sans-Serif" font-size="11.00">varchar[255]</text>
<polygon fill="none" stroke="black" points="10.5,-576 10.5,-598 173.5,-598 173.5,-576 10.5,-576"/>
<text text-anchor="start" x="30.5" y="-584.2" font-family="Helvetica,sans-Serif" font-size="11.00">volume</text>
<polygon fill="none" stroke="black" points="173.5,-576 173.5,-598 279.5,-598 279.5,-576 173.5,-576"/>
<text text-anchor="start" x="176.5" y="-584.2" font-family="Helvetica,sans-Serif" font-size="11.00">int4[10]</text>
<polygon fill="none" stroke="black" points="10.5,-554 10.5,-576 173.5,-576 173.5,-554 10.5,-554"/>
<text text-anchor="start" x="30.5" y="-562.2" font-family="Helvetica,sans-Serif" font-size="11.00">issue</text>
<polygon fill="none" stroke="black" points="173.5,-554 173.5,-576 279.5,-576 279.5,-554 173.5,-554"/>
<text text-anchor="start" x="176.5" y="-562.2" font-family="Helvetica,sans-Serif" font-size="11.00">int4[10]</text>
<polygon fill="none" stroke="black" points="10.5,-532 10.5,-554 173.5,-554 173.5,-532 10.5,-532"/>
<text text-anchor="start" x="30.5" y="-540.2" font-family="Helvetica,sans-Serif" font-size="11.00">pages</text>
<polygon fill="none" stroke="black" points="173.5,-532 173.5,-554 279.5,-554 279.5,-532 173.5,-532"/>
<text text-anchor="start" x="176.5" y="-540.2" font-family="Helvetica,sans-Serif" font-size="11.00">varchar[255]</text>
<polygon fill="none" stroke="black" points="10.5,-510 10.5,-532 173.5,-532 173.5,-510 10.5,-510"/>
<text text-anchor="start" x="30.5" y="-518.2" font-family="Helvetica,sans-Serif" font-size="11.00">publicationdate</text>
<polygon fill="none" stroke="black" points="173.5,-510 173.5,-532 279.5,-532 279.5,-510 173.5,-510"/>
<text text-anchor="start" x="176.5" y="-518.2" font-family="Helvetica,sans-Serif" font-size="11.00">text[2147483647]</text>
<polygon fill="none" stroke="black" points="10.5,-488 10.5,-510 173.5,-510 173.5,-488 10.5,-488"/>
<text text-anchor="start" x="30.5" y="-496.2" font-family="Helvetica,sans-Serif" font-size="11.00">publisher</text>
<polygon fill="none" stroke="black" points="173.5,-488 173.5,-510 279.5,-510 279.5,-488 173.5,-488"/>
<text text-anchor="start" x="176.5" y="-496.2" font-family="Helvetica,sans-Serif" font-size="11.00">varchar[255]</text>
<polygon fill="none" stroke="black" points="10.5,-466 10.5,-488 173.5,-488 173.5,-466 10.5,-466"/>
<text text-anchor="start" x="30.5" y="-474.2" font-family="Helvetica,sans-Serif" font-size="11.00">place</text>
<polygon fill="none" stroke="black" points="173.5,-466 173.5,-488 279.5,-488 279.5,-466 173.5,-466"/>
<text text-anchor="start" x="176.5" y="-474.2" font-family="Helvetica,sans-Serif" font-size="11.00">varchar[255]</text>
<polygon fill="none" stroke="black" points="10.5,-444 10.5,-466 173.5,-466 173.5,-444 10.5,-444"/>
<text text-anchor="start" x="30.5" y="-452.2" font-family="Helvetica,sans-Serif" font-size="11.00">edition</text>
<polygon fill="none" stroke="black" points="173.5,-444 173.5,-466 279.5,-466 279.5,-444 173.5,-444"/>
<text text-anchor="start" x="176.5" y="-452.2" font-family="Helvetica,sans-Serif" font-size="11.00">int4[10]</text>
<polygon fill="none" stroke="black" points="10.5,-422 10.5,-444 173.5,-444 173.5,-422 10.5,-422"/>
<text text-anchor="start" x="30.5" y="-430.2" font-family="Helvetica,sans-Serif" font-size="11.00">isbn</text>
<polygon fill="none" stroke="black" points="173.5,-422 173.5,-444 279.5,-444 279.5,-422 173.5,-422"/>
<text text-anchor="start" x="176.5" y="-430.2" font-family="Helvetica,sans-Serif" font-size="11.00">varchar[255]</text>
<polygon fill="none" stroke="black" points="10.5,-400 10.5,-422 173.5,-422 173.5,-400 10.5,-400"/>
<text text-anchor="start" x="30.5" y="-408.2" font-family="Helvetica,sans-Serif" font-size="11.00">issn</text>
<polygon fill="none" stroke="black" points="173.5,-400 173.5,-422 279.5,-422 279.5,-400 173.5,-400"/>
<text text-anchor="start" x="176.5" y="-408.2" font-family="Helvetica,sans-Serif" font-size="11.00">varchar[255]</text>
<polygon fill="none" stroke="black" points="10.5,-378 10.5,-400 173.5,-400 173.5,-378 10.5,-378"/>
<text text-anchor="start" x="30.5" y="-386.2" font-family="Helvetica,sans-Serif" font-size="11.00">doi</text>
<polygon fill="none" stroke="black" points="173.5,-378 173.5,-400 279.5,-400 279.5,-378 173.5,-378"/>
<text text-anchor="start" x="176.5" y="-386.2" font-family="Helvetica,sans-Serif" font-size="11.00">varchar[255]</text>
<polygon fill="none" stroke="black" points="10.5,-356 10.5,-378 173.5,-378 173.5,-356 10.5,-356"/>
<text text-anchor="start" x="30.5" y="-364.2" font-family="Helvetica,sans-Serif" font-size="11.00">url</text>
<polygon fill="none" stroke="black" points="173.5,-356 173.5,-378 279.5,-378 279.5,-356 173.5,-356"/>
<text text-anchor="start" x="176.5" y="-364.2" font-family="Helvetica,sans-Serif" font-size="11.00">varchar[255]</text>
<polygon fill="none" stroke="black" points="10.5,-334 10.5,-356 173.5,-356 173.5,-334 10.5,-334"/>
<text text-anchor="start" x="30.5" y="-342.2" font-family="Helvetica,sans-Serif" font-size="11.00">accessdate</text>
<polygon fill="none" stroke="black" points="173.5,-334 173.5,-356 279.5,-356 279.5,-334 173.5,-334"/>
<text text-anchor="start" x="176.5" y="-342.2" font-family="Helvetica,sans-Serif" font-size="11.00">text[2147483647]</text>
<polygon fill="none" stroke="black" points="10.5,-312 10.5,-334 173.5,-334 173.5,-312 10.5,-312"/>
<text text-anchor="start" x="30.5" y="-320.2" font-family="Helvetica,sans-Serif" font-size="11.00">language</text>
<polygon fill="none" stroke="black" points="173.5,-312 173.5,-334 279.5,-334 279.5,-312 173.5,-312"/>
<text text-anchor="start" x="176.5" y="-320.2" font-family="Helvetica,sans-Serif" font-size="11.00">text[2147483647]</text>
<polygon fill="none" stroke="black" points="10.5,-290 10.5,-312 173.5,-312 173.5,-290 10.5,-290"/>
<text text-anchor="start" x="30.5" y="-298.2" font-family="Helvetica,sans-Serif" font-size="11.00">rights</text>
<polygon fill="none" stroke="black" points="173.5,-290 173.5,-312 279.5,-312 279.5,-290 173.5,-290"/>
<text text-anchor="start" x="176.5" y="-298.2" font-family="Helvetica,sans-Serif" font-size="11.00">text[2147483647]</text>
<polygon fill="none" stroke="black" points="10.5,-268 10.5,-290 173.5,-290 173.5,-268 10.5,-268"/>
<text text-anchor="start" x="30.5" y="-276.2" font-family="Helvetica,sans-Serif" font-size="11.00">extra</text>
<polygon fill="none" stroke="black" points="173.5,-268 173.5,-290 279.5,-290 279.5,-268 173.5,-268"/>
<text text-anchor="start" x="176.5" y="-276.2" font-family="Helvetica,sans-Serif" font-size="11.00">text[2147483647]</text>
<polygon fill="none" stroke="black" points="10.5,-246 10.5,-268 173.5,-268 173.5,-246 10.5,-246"/>
<text text-anchor="start" x="30.5" y="-254.2" font-family="Helvetica,sans-Serif" font-size="11.00">tags</text>
<polygon fill="none" stroke="black" points="173.5,-246 173.5,-268 279.5,-268 279.5,-246 173.5,-246"/>
<text text-anchor="start" x="176.5" y="-254.2" font-family="Helvetica,sans-Serif" font-size="11.00">text[2147483647]</text>
<polygon fill="none" stroke="black" points="10.5,-224 10.5,-246 173.5,-246 173.5,-224 10.5,-224"/>
<text text-anchor="start" x="30.5" y="-232.2" font-family="Helvetica,sans-Serif" font-size="11.00">dateadded</text>
<polygon fill="none" stroke="black" points="173.5,-224 173.5,-246 279.5,-246 279.5,-224 173.5,-224"/>
<text text-anchor="start" x="176.5" y="-232.2" font-family="Helvetica,sans-Serif" font-size="11.00">text[2147483647]</text>
<polygon fill="none" stroke="black" points="10.5,-202 10.5,-224 173.5,-224 173.5,-202 10.5,-202"/>
<text text-anchor="start" x="30.5" y="-210.2" font-family="Helvetica,sans-Serif" font-size="11.00">datemodified</text>
<polygon fill="none" stroke="black" points="173.5,-202 173.5,-224 279.5,-224 279.5,-202 173.5,-202"/>
<text text-anchor="start" x="176.5" y="-210.2" font-family="Helvetica,sans-Serif" font-size="11.00">text[2147483647]</text>
<polygon fill="none" stroke="black" points="10.5,-180 10.5,-202 173.5,-202 173.5,-180 10.5,-180"/>
<text text-anchor="start" x="30.5" y="-188.2" font-family="Helvetica,sans-Serif" font-size="11.00">citationorcollection</text>
<polygon fill="none" stroke="black" points="173.5,-180 173.5,-202 279.5,-202 279.5,-180 173.5,-180"/>
<text text-anchor="start" x="176.5" y="-188.2" font-family="Helvetica,sans-Serif" font-size="11.00">text[2147483647]</text>
<polygon fill="none" stroke="black" points="10.5,-158 10.5,-180 173.5,-180 173.5,-158 10.5,-158"/>
<text text-anchor="start" x="30.5" y="-166.2" font-family="Helvetica,sans-Serif" font-size="11.00">thesis</text>
<polygon fill="none" stroke="black" points="173.5,-158 173.5,-180 279.5,-180 279.5,-158 173.5,-158"/>
<text text-anchor="start" x="176.5" y="-166.2" font-family="Helvetica,sans-Serif" font-size="11.00">text[2147483647]</text>
<polygon fill="none" stroke="black" points="10.5,-136 10.5,-158 173.5,-158 173.5,-136 10.5,-136"/>
<text text-anchor="start" x="30.5" y="-144.2" font-family="Helvetica,sans-Serif" font-size="11.00">itemtypeid</text>
<polygon fill="none" stroke="black" points="173.5,-136 173.5,-158 279.5,-158 279.5,-136 173.5,-136"/>
<text text-anchor="start" x="176.5" y="-144.2" font-family="Helvetica,sans-Serif" font-size="11.00">int4[10]</text>
<polygon fill="#ffffff" stroke="transparent" points="10.5,-118 10.5,-136 279.5,-136 279.5,-118 10.5,-118"/>
<polygon fill="none" stroke="black" points="10.5,-118 10.5,-136 279.5,-136 279.5,-118 10.5,-118"/>
<polygon fill="#ffffff" stroke="transparent" points="11.5,-119 11.5,-135 92.5,-135 92.5,-119 11.5,-119"/>
<text text-anchor="start" x="13.5" y="-124.2" font-family="Helvetica,sans-Serif" font-size="11.00">&lt; 0</text>
<polygon fill="#ffffff" stroke="transparent" points="92.5,-119 92.5,-135 197.5,-135 197.5,-119 92.5,-119"/>
<text text-anchor="start" x="123" y="-124.2" font-family="Helvetica,sans-Serif" font-size="11.00">13 rows</text>
<polygon fill="#ffffff" stroke="transparent" points="197.5,-119 197.5,-135 278.5,-135 278.5,-119 197.5,-119"/>
<text text-anchor="start" x="256.5" y="-124.2" font-family="Helvetica,sans-Serif" font-size="11.00">3 &gt;</text>
<polygon fill="black" stroke="black" points="92.5,-119 92.5,-135 92.5,-135 92.5,-119 92.5,-119"/>
<polygon fill="black" stroke="black" points="197.5,-119 197.5,-135 197.5,-135 197.5,-119 197.5,-119"/>
<polygon fill="none" stroke="black" stroke-width="2" points="9,-117 9,-797 280,-797 280,-117 9,-117"/>
</a>
</g>
</g>
<!-- jtbl_citationgroups&#45;&gt;tbl_citations -->
<g id="edge2" class="edge">
<title>jtbl_citationgroups:w&#45;&gt;tbl_citations:e</title>
<path fill="none" stroke="black" d="M332.28,-896.28C289.84,-877.12 342.04,-763 280.5,-763"/>
<polygon fill="black" stroke="black" points="338.64,-897.5 345.82,-902.54 342.57,-898.25 346.5,-899 346.5,-899 346.5,-899 342.57,-898.25 347.18,-895.46 338.64,-897.5 338.64,-897.5"/>
<ellipse fill="none" stroke="black" cx="335.5" cy="-896.9" rx="3.2" ry="3.2"/>
</g>
<!-- jtbl_collection_citations -->
<g id="node4" class="node">
<title>jtbl_collection_citations</title>
<g id="a_node4"><a xlink:href="../../tables/jtbl_collection_citations.html" xlink:title="jtbl_collection_citations" target="_top">
<polygon fill="#ffffff" stroke="transparent" points="330,-737 330,-843 549,-843 549,-737 330,-737"/>
<polygon fill="#f5f5f5" stroke="transparent" points="330.5,-821 330.5,-843 549.5,-843 549.5,-821 330.5,-821"/>
<polygon fill="none" stroke="black" points="330.5,-821 330.5,-843 549.5,-843 549.5,-821 330.5,-821"/>
<text text-anchor="start" x="335.5" y="-830.2" font-family="Helvetica,sans-Serif" font-weight="bold" font-size="11.00">jtbl_collection_citations</text>
<text text-anchor="start" x="507.5" y="-829.2" font-family="Helvetica,sans-Serif" font-size="11.00">[table]</text>
<polygon fill="none" stroke="black" points="330.5,-799 330.5,-821 549.5,-821 549.5,-799 330.5,-799"/>
<image xlink:href="../../images/primaryKeys.png" width="11px" height="12px" preserveAspectRatio="xMinYMin meet" x="335.5" y="-816"/>
<text text-anchor="start" x="363.5" y="-807.2" font-family="Helvetica,sans-Serif" font-size="11.00">junctid</text>
<polygon fill="#ffffff" stroke="transparent" points="330.5,-777 330.5,-799 549.5,-799 549.5,-777 330.5,-777"/>
<polygon fill="none" stroke="black" points="330.5,-777 330.5,-799 549.5,-799 549.5,-777 330.5,-777"/>
<image xlink:href="../../images/foreignKeys.png" width="11px" height="12px" preserveAspectRatio="xMinYMin meet" x="335.5" y="-794"/>
<text text-anchor="start" x="363.5" y="-785.2" font-family="Helvetica,sans-Serif" font-size="11.00">collectionid</text>
<polygon fill="#ffffff" stroke="transparent" points="330.5,-755 330.5,-777 549.5,-777 549.5,-755 330.5,-755"/>
<polygon fill="none" stroke="black" points="330.5,-755 330.5,-777 549.5,-777 549.5,-755 330.5,-755"/>
<image xlink:href="../../images/foreignKeys.png" width="11px" height="12px" preserveAspectRatio="xMinYMin meet" x="335.5" y="-772"/>
<text text-anchor="start" x="363.5" y="-763.2" font-family="Helvetica,sans-Serif" font-size="11.00">citationid</text>
<polygon fill="#ffffff" stroke="transparent" points="330.5,-737 330.5,-755 549.5,-755 549.5,-737 330.5,-737"/>
<polygon fill="none" stroke="black" points="330.5,-737 330.5,-755 549.5,-755 549.5,-737 330.5,-737"/>
<polygon fill="#ffffff" stroke="transparent" points="331.5,-738 331.5,-754 412.5,-754 412.5,-738 331.5,-738"/>
<text text-anchor="start" x="333.5" y="-743.2" font-family="Helvetica,sans-Serif" font-size="11.00">&lt; 2</text>
<polygon fill="#ffffff" stroke="transparent" points="412.5,-738 412.5,-754 480.5,-754 480.5,-738 412.5,-738"/>
<text text-anchor="start" x="442.5" y="-743.2" font-family="Helvetica,sans-Serif" font-size="11.00"> &#160;</text>
<polygon fill="#ffffff" stroke="transparent" points="480.5,-738 480.5,-754 548.5,-754 548.5,-738 480.5,-738"/>
<text text-anchor="start" x="538.5" y="-743.2" font-family="Helvetica,sans-Serif" font-size="11.00"> &#160;</text>
<polygon fill="black" stroke="black" points="412.5,-738 412.5,-754 412.5,-754 412.5,-738 412.5,-738"/>
<polygon fill="black" stroke="black" points="480.5,-738 480.5,-754 480.5,-754 480.5,-738 480.5,-738"/>
</a>
</g>
</g>
<!-- jtbl_collection_citations&#45;&gt;tbl_citations -->
<g id="edge3" class="edge">
<title>jtbl_collection_citations:w&#45;&gt;tbl_citations:e</title>
<path fill="none" stroke="black" d="M314.98,-765.48C303.67,-764.62 296.52,-763 280.5,-763"/>
<polygon fill="black" stroke="black" points="321.51,-765.71 329.37,-769.6 325.5,-765.86 329.5,-766 329.5,-766 329.5,-766 325.5,-765.86 329.63,-762.4 321.51,-765.71 321.51,-765.71"/>
<ellipse fill="none" stroke="black" cx="318.31" cy="-765.6" rx="3.2" ry="3.2"/>
</g>
<!-- tbl_collections -->
<g id="node5" class="node">
<title>tbl_collections</title>
<g id="a_node5"><a xlink:href="../../tables/tbl_collections.html" xlink:title="tbl_collections" target="_top">
<polygon fill="#ffffff" stroke="transparent" points="68.5,-819 68.5,-877 220.5,-877 220.5,-819 68.5,-819"/>
<polygon fill="#f5f5f5" stroke="transparent" points="68.5,-855 68.5,-877 220.5,-877 220.5,-855 68.5,-855"/>
<polygon fill="none" stroke="black" points="68.5,-855 68.5,-877 220.5,-877 220.5,-855 68.5,-855"/>
<text text-anchor="start" x="73.5" y="-864.2" font-family="Helvetica,sans-Serif" font-weight="bold" font-size="11.00">tbl_collections</text>
<text text-anchor="start" x="178.5" y="-863.2" font-family="Helvetica,sans-Serif" font-size="11.00">[table]</text>
<polygon fill="none" stroke="black" points="68.5,-837 68.5,-855 220.5,-855 220.5,-837 68.5,-837"/>
<text text-anchor="start" x="71.5" y="-843.2" font-family="Helvetica,sans-Serif" font-size="11.00">...</text>
<polygon fill="#ffffff" stroke="transparent" points="68.5,-819 68.5,-837 220.5,-837 220.5,-819 68.5,-819"/>
<polygon fill="none" stroke="black" points="68.5,-819 68.5,-837 220.5,-837 220.5,-819 68.5,-819"/>
<polygon fill="#ffffff" stroke="transparent" points="69.5,-820 69.5,-836 106.5,-836 106.5,-820 69.5,-820"/>
<text text-anchor="start" x="71.5" y="-825.2" font-family="Helvetica,sans-Serif" font-size="11.00"> &#160;</text>
<polygon fill="#ffffff" stroke="transparent" points="106.5,-820 106.5,-836 171.5,-836 171.5,-820 106.5,-820"/>
<text text-anchor="start" x="120.5" y="-825.2" font-family="Helvetica,sans-Serif" font-size="11.00">6 rows</text>
<polygon fill="#ffffff" stroke="transparent" points="171.5,-820 171.5,-836 219.5,-836 219.5,-820 171.5,-820"/>
<text text-anchor="start" x="197.5" y="-825.2" font-family="Helvetica,sans-Serif" font-size="11.00">1 &gt;</text>
<polygon fill="black" stroke="black" points="106.5,-820 106.5,-836 106.5,-836 106.5,-820 106.5,-820"/>
<polygon fill="black" stroke="black" points="171.5,-820 171.5,-836 171.5,-836 171.5,-820 171.5,-820"/>
</a>
</g>
</g>
<!-- jtbl_collection_citations&#45;&gt;tbl_collections -->
<g id="edge4" class="edge">
<title>jtbl_collection_citations:w&#45;&gt;tbl_collections:e</title>
<path fill="none" stroke="black" d="M316.39,-793.99C288.56,-808.81 226.95,-846 221.5,-846"/>
<polygon fill="black" stroke="black" points="322.22,-791.32 331,-791.27 325.86,-789.66 329.5,-788 329.5,-788 329.5,-788 325.86,-789.66 328,-784.73 322.22,-791.32 322.22,-791.32"/>
<ellipse fill="none" stroke="black" cx="319.31" cy="-792.65" rx="3.2" ry="3.2"/>
</g>
<!-- jtbl_project_citations -->
<g id="node6" class="node">
<title>jtbl_project_citations</title>
<g id="a_node6"><a xlink:href="../../tables/jtbl_project_citations.html" xlink:title="jtbl_project_citations" target="_top">
<polygon fill="#ffffff" stroke="transparent" points="339.5,-313 339.5,-419 539.5,-419 539.5,-313 339.5,-313"/>
<polygon fill="#f5f5f5" stroke="transparent" points="339.5,-397 339.5,-419 539.5,-419 539.5,-397 339.5,-397"/>
<polygon fill="none" stroke="black" points="339.5,-397 339.5,-419 539.5,-419 539.5,-397 339.5,-397"/>
<text text-anchor="start" x="344.5" y="-406.2" font-family="Helvetica,sans-Serif" font-weight="bold" font-size="11.00">jtbl_project_citations</text>
<text text-anchor="start" x="497.5" y="-405.2" font-family="Helvetica,sans-Serif" font-size="11.00">[table]</text>
<polygon fill="none" stroke="black" points="339.5,-375 339.5,-397 539.5,-397 539.5,-375 339.5,-375"/>
<image xlink:href="../../images/primaryKeys.png" width="11px" height="12px" preserveAspectRatio="xMinYMin meet" x="344.5" y="-392"/>
<text text-anchor="start" x="372.5" y="-383.2" font-family="Helvetica,sans-Serif" font-size="11.00">junctid</text>
<polygon fill="#ffffff" stroke="transparent" points="339.5,-353 339.5,-375 539.5,-375 539.5,-353 339.5,-353"/>
<polygon fill="none" stroke="black" points="339.5,-353 339.5,-375 539.5,-375 539.5,-353 339.5,-353"/>
<image xlink:href="../../images/foreignKeys.png" width="11px" height="12px" preserveAspectRatio="xMinYMin meet" x="344.5" y="-370"/>
<text text-anchor="start" x="372.5" y="-361.2" font-family="Helvetica,sans-Serif" font-size="11.00">projectid</text>
<polygon fill="#ffffff" stroke="transparent" points="339.5,-331 339.5,-353 539.5,-353 539.5,-331 339.5,-331"/>
<polygon fill="none" stroke="black" points="339.5,-331 339.5,-353 539.5,-353 539.5,-331 339.5,-331"/>
<image xlink:href="../../images/foreignKeys.png" width="11px" height="12px" preserveAspectRatio="xMinYMin meet" x="344.5" y="-348"/>
<text text-anchor="start" x="372.5" y="-339.2" font-family="Helvetica,sans-Serif" font-size="11.00">citationid</text>
<polygon fill="#ffffff" stroke="transparent" points="339.5,-313 339.5,-331 539.5,-331 539.5,-313 339.5,-313"/>
<polygon fill="none" stroke="black" points="339.5,-313 339.5,-331 539.5,-331 539.5,-313 339.5,-313"/>
<polygon fill="#ffffff" stroke="transparent" points="340.5,-314 340.5,-330 414.5,-330 414.5,-314 340.5,-314"/>
<text text-anchor="start" x="342.5" y="-319.2" font-family="Helvetica,sans-Serif" font-size="11.00">&lt; 2</text>
<polygon fill="#ffffff" stroke="transparent" points="414.5,-314 414.5,-330 476.5,-330 476.5,-314 414.5,-314"/>
<text text-anchor="start" x="441.5" y="-319.2" font-family="Helvetica,sans-Serif" font-size="11.00"> &#160;</text>
<polygon fill="#ffffff" stroke="transparent" points="476.5,-314 476.5,-330 538.5,-330 538.5,-314 476.5,-314"/>
<text text-anchor="start" x="528.5" y="-319.2" font-family="Helvetica,sans-Serif" font-size="11.00"> &#160;</text>
<polygon fill="black" stroke="black" points="414.5,-314 414.5,-330 414.5,-330 414.5,-314 414.5,-314"/>
<polygon fill="black" stroke="black" points="476.5,-314 476.5,-330 476.5,-330 476.5,-314 476.5,-314"/>
</a>
</g>
</g>
<!-- jtbl_project_citations&#45;&gt;tbl_citations -->
<g id="edge5" class="edge">
<title>jtbl_project_citations:w&#45;&gt;tbl_citations:e</title>
<path fill="none" stroke="black" d="M324.54,-345.9C258.16,-388.34 369.59,-763 280.5,-763"/>
<polygon fill="black" stroke="black" points="330.79,-344.15 339.47,-345.47 334.65,-343.08 338.5,-342 338.5,-342 338.5,-342 334.65,-343.08 337.53,-338.53 330.79,-344.15 330.79,-344.15"/>
<ellipse fill="none" stroke="black" cx="327.71" cy="-345.01" rx="3.2" ry="3.2"/>
</g>
<!-- tbl_projectdata -->
<g id="node7" class="node">
<title>tbl_projectdata</title>
<g id="a_node7"><a xlink:href="../../tables/tbl_projectdata.html" xlink:title="tbl_projectdata" target="_top">
<polygon fill="#ffffff" stroke="transparent" points="65.5,-37 65.5,-95 223.5,-95 223.5,-37 65.5,-37"/>
<polygon fill="#f5f5f5" stroke="transparent" points="65.5,-73 65.5,-95 223.5,-95 223.5,-73 65.5,-73"/>
<polygon fill="none" stroke="black" points="65.5,-73 65.5,-95 223.5,-95 223.5,-73 65.5,-73"/>
<text text-anchor="start" x="70.5" y="-82.2" font-family="Helvetica,sans-Serif" font-weight="bold" font-size="11.00">tbl_projectdata</text>
<text text-anchor="start" x="181.5" y="-81.2" font-family="Helvetica,sans-Serif" font-size="11.00">[table]</text>
<polygon fill="none" stroke="black" points="65.5,-55 65.5,-73 223.5,-73 223.5,-55 65.5,-55"/>
<text text-anchor="start" x="68.5" y="-61.2" font-family="Helvetica,sans-Serif" font-size="11.00">...</text>
<polygon fill="#ffffff" stroke="transparent" points="65.5,-37 65.5,-55 223.5,-55 223.5,-37 65.5,-37"/>
<polygon fill="none" stroke="black" points="65.5,-37 65.5,-55 223.5,-55 223.5,-37 65.5,-37"/>
<polygon fill="#ffffff" stroke="transparent" points="66.5,-38 66.5,-54 110.5,-54 110.5,-38 66.5,-38"/>
<text text-anchor="start" x="68.5" y="-43.2" font-family="Helvetica,sans-Serif" font-size="11.00">&lt; 1</text>
<polygon fill="#ffffff" stroke="transparent" points="110.5,-38 110.5,-54 178.5,-54 178.5,-38 110.5,-38"/>
<text text-anchor="start" x="122.5" y="-43.2" font-family="Helvetica,sans-Serif" font-size="11.00">12 rows</text>
<polygon fill="#ffffff" stroke="transparent" points="178.5,-38 178.5,-54 222.5,-54 222.5,-38 178.5,-38"/>
<text text-anchor="start" x="200.5" y="-43.2" font-family="Helvetica,sans-Serif" font-size="11.00">2 &gt;</text>
<polygon fill="black" stroke="black" points="110.5,-38 110.5,-54 110.5,-54 110.5,-38 110.5,-38"/>
<polygon fill="black" stroke="black" points="178.5,-38 178.5,-54 178.5,-54 178.5,-38 178.5,-38"/>
</a>
</g>
</g>
<!-- jtbl_project_citations&#45;&gt;tbl_projectdata -->
<g id="edge6" class="edge">
<title>jtbl_project_citations:w&#45;&gt;tbl_projectdata:e</title>
<path fill="none" stroke="black" d="M324.57,-358.78C287.24,-326.13 318.5,-149.92 289,-106 269.92,-77.6 258.71,-64 224.5,-64"/>
<polygon fill="black" stroke="black" points="331.01,-361.19 337.24,-367.37 334.75,-362.6 338.5,-364 338.5,-364 338.5,-364 334.75,-362.6 339.76,-360.63 331.01,-361.19 331.01,-361.19"/>
<ellipse fill="none" stroke="black" cx="328.01" cy="-360.07" rx="3.2" ry="3.2"/>
</g>
</g>
</svg>
